%TF.GenerationSoftware,Altium Limited,Altium Designer,26.3.0 (6)*%
G04 Layer_Physical_Order=3*
G04 Layer_Color=16440176*
%FSLAX45Y45*%
%MOMM*%
%TF.SameCoordinates,D9BBDC1C-D3D2-418C-AC26-F9D2A8C021A8*%
%TF.FilePolarity,Positive*%
%TF.FileFunction,Copper,L3,Inr,Signal*%
%TF.Part,Single*%
G01*
G75*
%TA.AperFunction,Conductor*%
%ADD11C,0.50000*%
%TA.AperFunction,ComponentPad*%
G04:AMPARAMS|DCode=14|XSize=3.2mm|YSize=2.2mm|CornerRadius=0.55mm|HoleSize=0mm|Usage=FLASHONLY|Rotation=180.000|XOffset=0mm|YOffset=0mm|HoleType=Round|Shape=RoundedRectangle|*
%AMROUNDEDRECTD14*
21,1,3.20000,1.10000,0,0,180.0*
21,1,2.10000,2.20000,0,0,180.0*
1,1,1.10000,-1.05000,0.55000*
1,1,1.10000,1.05000,0.55000*
1,1,1.10000,1.05000,-0.55000*
1,1,1.10000,-1.05000,-0.55000*
%
%ADD14ROUNDEDRECTD14*%
G04:AMPARAMS|DCode=15|XSize=3.2mm|YSize=2.2mm|CornerRadius=0.55mm|HoleSize=0mm|Usage=FLASHONLY|Rotation=270.000|XOffset=0mm|YOffset=0mm|HoleType=Round|Shape=RoundedRectangle|*
%AMROUNDEDRECTD15*
21,1,3.20000,1.10000,0,0,270.0*
21,1,2.10000,2.20000,0,0,270.0*
1,1,1.10000,-0.55000,-1.05000*
1,1,1.10000,-0.55000,1.05000*
1,1,1.10000,0.55000,1.05000*
1,1,1.10000,0.55000,-1.05000*
%
%ADD15ROUNDEDRECTD15*%
%ADD16C,3.00000*%
%ADD17R,3.00000X3.00000*%
%ADD18R,3.00000X3.00000*%
%ADD19C,1.80000*%
%ADD20R,1.90000X1.90000*%
%ADD21C,1.90000*%
%ADD22C,3.30000*%
%ADD23R,1.60000X1.60000*%
%ADD24C,1.60000*%
%ADD25C,1.70000*%
G04:AMPARAMS|DCode=26|XSize=1.7mm|YSize=1.7mm|CornerRadius=0.425mm|HoleSize=0mm|Usage=FLASHONLY|Rotation=270.000|XOffset=0mm|YOffset=0mm|HoleType=Round|Shape=RoundedRectangle|*
%AMROUNDEDRECTD26*
21,1,1.70000,0.85000,0,0,270.0*
21,1,0.85000,1.70000,0,0,270.0*
1,1,0.85000,-0.42500,-0.42500*
1,1,0.85000,-0.42500,0.42500*
1,1,0.85000,0.42500,0.42500*
1,1,0.85000,0.42500,-0.42500*
%
%ADD26ROUNDEDRECTD26*%
G04:AMPARAMS|DCode=27|XSize=1.8mm|YSize=1.8mm|CornerRadius=0.45mm|HoleSize=0mm|Usage=FLASHONLY|Rotation=90.000|XOffset=0mm|YOffset=0mm|HoleType=Round|Shape=RoundedRectangle|*
%AMROUNDEDRECTD27*
21,1,1.80000,0.90000,0,0,90.0*
21,1,0.90000,1.80000,0,0,90.0*
1,1,0.90000,0.45000,0.45000*
1,1,0.90000,0.45000,-0.45000*
1,1,0.90000,-0.45000,-0.45000*
1,1,0.90000,-0.45000,0.45000*
%
%ADD27ROUNDEDRECTD27*%
G04:AMPARAMS|DCode=28|XSize=1.8mm|YSize=1.8mm|CornerRadius=0.45mm|HoleSize=0mm|Usage=FLASHONLY|Rotation=0.000|XOffset=0mm|YOffset=0mm|HoleType=Round|Shape=RoundedRectangle|*
%AMROUNDEDRECTD28*
21,1,1.80000,0.90000,0,0,0.0*
21,1,0.90000,1.80000,0,0,0.0*
1,1,0.90000,0.45000,-0.45000*
1,1,0.90000,-0.45000,-0.45000*
1,1,0.90000,-0.45000,0.45000*
1,1,0.90000,0.45000,0.45000*
%
%ADD28ROUNDEDRECTD28*%
%TA.AperFunction,ViaPad*%
%ADD29C,1.50000*%
%ADD30C,1.00000*%
%ADD31C,2.00000*%
%ADD32C,6.40000*%
%ADD33C,6.20000*%
%TA.AperFunction,Conductor*%
%ADD34C,0.40000*%
D11*
X17453090Y7525000D02*
X18199091Y6779000D01*
X11124000Y7525000D02*
X17453090D01*
X17269090Y7455000D02*
X18199091Y6525000D01*
X11308000Y7455000D02*
X17269090D01*
X14898550Y7875000D02*
X19297099D01*
X20393100Y6779000D01*
X14927545Y7805000D02*
X19113100D01*
X20393100Y6525000D01*
X14907709Y7785164D02*
X14927545Y7805000D01*
X10622164Y7785164D02*
X14907709D01*
X10424000Y6825000D02*
X11124000Y7525000D01*
X10424000Y6571000D02*
X11308000Y7455000D01*
X10424000Y7587000D02*
X10622164Y7785164D01*
X10438164Y7855164D02*
X14878714D01*
X14898550Y7875000D01*
X10424000Y7841000D02*
X10438164Y7855164D01*
X1015090Y8350000D02*
X6900000D01*
X7000000Y8250000D01*
X6935376Y8603000D02*
X7000000Y8538376D01*
X3937090Y8603000D02*
X6935376D01*
X762090D02*
X1015090Y8350000D01*
X6820000Y6820000D02*
X8100000Y8100000D01*
X6851000Y7100000D02*
X8100000Y8349000D01*
X3937090Y7079000D02*
X3958090Y7100000D01*
X6851000D01*
X967500Y6820000D02*
X6820000D01*
X762090Y7025410D02*
X967500Y6820000D01*
X762090Y7025410D02*
Y7079000D01*
D14*
X11811090Y8857000D02*
D03*
Y9457000D02*
D03*
X21509090Y8438000D02*
D03*
X12827090Y3050000D02*
D03*
Y3650000D02*
D03*
D15*
X11341090Y9157000D02*
D03*
X21809090Y7968000D02*
D03*
X21209090D02*
D03*
X13297090Y3350000D02*
D03*
D16*
X3556090Y9619000D02*
D03*
X14097090Y6825000D02*
D03*
X12573090D02*
D03*
X13081090D02*
D03*
X13589090D02*
D03*
X762090Y6063000D02*
D03*
Y6571000D02*
D03*
Y8095000D02*
D03*
Y7587000D02*
D03*
Y7079000D02*
D03*
X508000Y9619000D02*
D03*
X21209090Y9238000D02*
D03*
X6223090Y3396000D02*
D03*
X9652090D02*
D03*
X8509090D02*
D03*
X7366090D02*
D03*
X3937090Y7079000D02*
D03*
Y7587000D02*
D03*
Y8095000D02*
D03*
Y6571000D02*
D03*
Y6063000D02*
D03*
D17*
X4064090Y9619000D02*
D03*
X12065090Y6825000D02*
D03*
X1016000Y9619000D02*
D03*
X21717090Y9238000D02*
D03*
X5715090Y3396000D02*
D03*
X9144090D02*
D03*
X8001090D02*
D03*
X6858090D02*
D03*
D18*
X762090Y8603000D02*
D03*
X3937090D02*
D03*
D19*
X9770000D02*
D03*
Y8857000D02*
D03*
Y9111000D02*
D03*
Y9619000D02*
D03*
X10024000Y9873000D02*
D03*
Y9619000D02*
D03*
Y9365000D02*
D03*
Y9111000D02*
D03*
Y8857000D02*
D03*
Y8603000D02*
D03*
Y8349000D02*
D03*
Y8095000D02*
D03*
Y7841000D02*
D03*
Y7587000D02*
D03*
Y7333000D02*
D03*
Y7079000D02*
D03*
Y6825000D02*
D03*
Y6571000D02*
D03*
X9770000D02*
D03*
X9516000D02*
D03*
X9262000D02*
D03*
X9008000D02*
D03*
X8754000D02*
D03*
X8500000D02*
D03*
Y6825000D02*
D03*
Y7079000D02*
D03*
Y7333000D02*
D03*
Y7587000D02*
D03*
Y7841000D02*
D03*
Y8095000D02*
D03*
Y8349000D02*
D03*
Y8603000D02*
D03*
Y8857000D02*
D03*
Y9111000D02*
D03*
Y9365000D02*
D03*
Y9619000D02*
D03*
Y9873000D02*
D03*
X9516000Y6271000D02*
D03*
X9262000D02*
D03*
X9008000D02*
D03*
X9770000D02*
D03*
X10424000Y6825000D02*
D03*
Y6571000D02*
D03*
Y7841000D02*
D03*
Y7587000D02*
D03*
Y7333000D02*
D03*
Y7079000D02*
D03*
Y8857000D02*
D03*
Y8603000D02*
D03*
Y8349000D02*
D03*
Y8095000D02*
D03*
Y9619000D02*
D03*
Y9365000D02*
D03*
Y9111000D02*
D03*
X8100000Y6825000D02*
D03*
Y6571000D02*
D03*
Y7841000D02*
D03*
Y7587000D02*
D03*
Y7333000D02*
D03*
Y7079000D02*
D03*
Y8857000D02*
D03*
Y8603000D02*
D03*
Y8349000D02*
D03*
Y8095000D02*
D03*
Y9619000D02*
D03*
Y9365000D02*
D03*
Y9111000D02*
D03*
D20*
X20393100Y5001000D02*
D03*
X18199091D02*
D03*
D21*
X20393100Y5255000D02*
D03*
Y5509000D02*
D03*
Y5763000D02*
D03*
Y6017000D02*
D03*
Y6271000D02*
D03*
Y6525000D02*
D03*
Y6779000D02*
D03*
X19123100Y5001000D02*
D03*
Y5255000D02*
D03*
Y5509000D02*
D03*
Y5763000D02*
D03*
Y6017000D02*
D03*
Y6271000D02*
D03*
Y6525000D02*
D03*
Y6779000D02*
D03*
X16929089D02*
D03*
Y6525000D02*
D03*
Y6271000D02*
D03*
Y6017000D02*
D03*
Y5763000D02*
D03*
Y5509000D02*
D03*
Y5255000D02*
D03*
Y5001000D02*
D03*
X18199091Y6779000D02*
D03*
Y6525000D02*
D03*
Y6271000D02*
D03*
Y6017000D02*
D03*
Y5763000D02*
D03*
Y5509000D02*
D03*
Y5255000D02*
D03*
D22*
X14150600Y9189000D02*
D03*
X13007600D02*
D03*
X15985600Y9189000D02*
D03*
X14842599D02*
D03*
X16677600Y9189000D02*
D03*
X17820599D02*
D03*
X19177600Y9189000D02*
D03*
X20320599D02*
D03*
D23*
X14023599Y8554000D02*
D03*
X15858600Y8554000D02*
D03*
X17693600Y8554000D02*
D03*
X20193600Y8554000D02*
D03*
D24*
X13769600Y8554000D02*
D03*
X13515601D02*
D03*
X13261600D02*
D03*
X13896600Y8300000D02*
D03*
X13642599D02*
D03*
X13388600D02*
D03*
X13134599D02*
D03*
X15604601Y8554000D02*
D03*
X15350600D02*
D03*
X15096600D02*
D03*
X15731599Y8300000D02*
D03*
X15477600D02*
D03*
X15223599D02*
D03*
X14969600D02*
D03*
X16804601Y8300000D02*
D03*
X17058600D02*
D03*
X17312601D02*
D03*
X17566600D02*
D03*
X16931599Y8554000D02*
D03*
X17185600D02*
D03*
X17439600D02*
D03*
X19304601Y8300000D02*
D03*
X19558600D02*
D03*
X19812601D02*
D03*
X20066600D02*
D03*
X19431599Y8554000D02*
D03*
X19685600D02*
D03*
X19939600D02*
D03*
D25*
X17738000Y2961000D02*
D03*
Y3215000D02*
D03*
X17992000Y2961000D02*
D03*
Y3215000D02*
D03*
X18246001Y2961000D02*
D03*
X18500000D02*
D03*
X18246001Y3215000D02*
D03*
X16238000Y2961000D02*
D03*
Y3215000D02*
D03*
X16492000Y2961000D02*
D03*
Y3215000D02*
D03*
X16746001Y2961000D02*
D03*
X17000000D02*
D03*
X16746001Y3215000D02*
D03*
X14738000Y2961000D02*
D03*
Y3215000D02*
D03*
X14992000Y2961000D02*
D03*
Y3215000D02*
D03*
X15246001Y2961000D02*
D03*
X15500000D02*
D03*
X15246001Y3215000D02*
D03*
D26*
X18500000D02*
D03*
X17000000D02*
D03*
X15500000D02*
D03*
D27*
X8754000Y6271000D02*
D03*
D28*
X10424000Y9873000D02*
D03*
X8100000D02*
D03*
D29*
X17329100Y5800000D02*
D03*
X19523100D02*
D03*
D30*
X15589996Y7710000D02*
D03*
X15737495Y7692500D02*
D03*
X7000000Y8250000D02*
D03*
Y8538376D02*
D03*
D31*
X20600000Y7900000D02*
D03*
D32*
X12954100Y5301000D02*
D03*
D33*
X2032100D02*
D03*
D34*
X15664996Y7620000D02*
X15737495Y7692500D01*
X10965000Y7620000D02*
X15664996D01*
X10424000Y7079000D02*
X10965000Y7620000D01*
X10424000Y7333000D02*
X10800999Y7710000D01*
X15589996D01*
%TF.MD5,1a1facb39d76f81e0d0cddd6c1b8bff3*%
M02*
