%TF.GenerationSoftware,Altium Limited,Altium Designer,26.3.0 (6)*%
G04 Layer_Physical_Order=2*
G04 Layer_Color=36540*
%FSLAX45Y45*%
%MOMM*%
%TF.SameCoordinates,D9BBDC1C-D3D2-418C-AC26-F9D2A8C021A8*%
%TF.FilePolarity,Positive*%
%TF.FileFunction,Copper,L2,Inr,Signal*%
%TF.Part,Single*%
G01*
G75*
%TA.AperFunction,Conductor*%
%ADD11C,0.50000*%
%TA.AperFunction,ComponentPad*%
G04:AMPARAMS|DCode=14|XSize=3.2mm|YSize=2.2mm|CornerRadius=0.55mm|HoleSize=0mm|Usage=FLASHONLY|Rotation=180.000|XOffset=0mm|YOffset=0mm|HoleType=Round|Shape=RoundedRectangle|*
%AMROUNDEDRECTD14*
21,1,3.20000,1.10000,0,0,180.0*
21,1,2.10000,2.20000,0,0,180.0*
1,1,1.10000,-1.05000,0.55000*
1,1,1.10000,1.05000,0.55000*
1,1,1.10000,1.05000,-0.55000*
1,1,1.10000,-1.05000,-0.55000*
%
%ADD14ROUNDEDRECTD14*%
G04:AMPARAMS|DCode=15|XSize=3.2mm|YSize=2.2mm|CornerRadius=0.55mm|HoleSize=0mm|Usage=FLASHONLY|Rotation=270.000|XOffset=0mm|YOffset=0mm|HoleType=Round|Shape=RoundedRectangle|*
%AMROUNDEDRECTD15*
21,1,3.20000,1.10000,0,0,270.0*
21,1,2.10000,2.20000,0,0,270.0*
1,1,1.10000,-0.55000,-1.05000*
1,1,1.10000,-0.55000,1.05000*
1,1,1.10000,0.55000,1.05000*
1,1,1.10000,0.55000,-1.05000*
%
%ADD15ROUNDEDRECTD15*%
%ADD16C,3.00000*%
%ADD17R,3.00000X3.00000*%
%ADD18R,3.00000X3.00000*%
%ADD19C,1.80000*%
%ADD20R,1.90000X1.90000*%
%ADD21C,1.90000*%
%ADD22C,3.30000*%
%ADD23R,1.60000X1.60000*%
%ADD24C,1.60000*%
%ADD25C,1.70000*%
G04:AMPARAMS|DCode=26|XSize=1.7mm|YSize=1.7mm|CornerRadius=0.425mm|HoleSize=0mm|Usage=FLASHONLY|Rotation=270.000|XOffset=0mm|YOffset=0mm|HoleType=Round|Shape=RoundedRectangle|*
%AMROUNDEDRECTD26*
21,1,1.70000,0.85000,0,0,270.0*
21,1,0.85000,1.70000,0,0,270.0*
1,1,0.85000,-0.42500,-0.42500*
1,1,0.85000,-0.42500,0.42500*
1,1,0.85000,0.42500,0.42500*
1,1,0.85000,0.42500,-0.42500*
%
%ADD26ROUNDEDRECTD26*%
G04:AMPARAMS|DCode=27|XSize=1.8mm|YSize=1.8mm|CornerRadius=0.45mm|HoleSize=0mm|Usage=FLASHONLY|Rotation=90.000|XOffset=0mm|YOffset=0mm|HoleType=Round|Shape=RoundedRectangle|*
%AMROUNDEDRECTD27*
21,1,1.80000,0.90000,0,0,90.0*
21,1,0.90000,1.80000,0,0,90.0*
1,1,0.90000,0.45000,0.45000*
1,1,0.90000,0.45000,-0.45000*
1,1,0.90000,-0.45000,-0.45000*
1,1,0.90000,-0.45000,0.45000*
%
%ADD27ROUNDEDRECTD27*%
G04:AMPARAMS|DCode=28|XSize=1.8mm|YSize=1.8mm|CornerRadius=0.45mm|HoleSize=0mm|Usage=FLASHONLY|Rotation=0.000|XOffset=0mm|YOffset=0mm|HoleType=Round|Shape=RoundedRectangle|*
%AMROUNDEDRECTD28*
21,1,1.80000,0.90000,0,0,0.0*
21,1,0.90000,1.80000,0,0,0.0*
1,1,0.90000,0.45000,-0.45000*
1,1,0.90000,-0.45000,-0.45000*
1,1,0.90000,-0.45000,0.45000*
1,1,0.90000,0.45000,0.45000*
%
%ADD28ROUNDEDRECTD28*%
%TA.AperFunction,ViaPad*%
%ADD29C,1.50000*%
%ADD30C,1.00000*%
%ADD31C,2.00000*%
%ADD32C,6.40000*%
%ADD33C,6.20000*%
%TA.AperFunction,Conductor*%
%ADD34C,0.40000*%
D11*
X15175002Y5341461D02*
Y7454204D01*
Y5341461D02*
X17555463Y2961000D01*
X15175002Y7454204D02*
X16020798Y8300000D01*
X14727499Y7783551D02*
X14990506Y8046557D01*
X14727499Y4998961D02*
X16108000Y3618461D01*
X14727499Y4998961D02*
Y7783551D01*
X16020798Y8300000D02*
X16804601D01*
X17555463Y2961000D02*
X17738000D01*
X16108000Y3080406D02*
Y3618461D01*
X14969600Y8300000D02*
X14990506Y8279094D01*
X16227406Y2961000D02*
X16238000D01*
X14990506Y8046557D02*
Y8279094D01*
X16108000Y3080406D02*
X16227406Y2961000D01*
X11303090Y8603000D02*
X13081090Y6825000D01*
X11049090Y8349000D02*
X12573090Y6825000D01*
X10796190Y8093900D02*
X12065090Y6825000D01*
X10425100Y8093900D02*
X10796190D01*
X10424000Y8603000D02*
X11303090D01*
X10424000Y8095000D02*
X10425100Y8093900D01*
X10424000Y8349000D02*
X11049090D01*
X7800000Y6543505D02*
X8343505Y6000000D01*
X13272090D01*
X14097090Y6825000D01*
X8342500Y6100000D02*
X12864090D01*
X13589090Y6825000D01*
X7900000Y6542500D02*
X8342500Y6100000D01*
X7800000Y8557000D02*
X8100000Y8857000D01*
X7800000Y6543505D02*
Y8557000D01*
X7900000Y8403000D02*
X8100000Y8603000D01*
X7900000Y6542500D02*
Y8403000D01*
D14*
X11811090Y8857000D02*
D03*
Y9457000D02*
D03*
X21509090Y8438000D02*
D03*
X12827090Y3050000D02*
D03*
Y3650000D02*
D03*
D15*
X11341090Y9157000D02*
D03*
X21809090Y7968000D02*
D03*
X21209090D02*
D03*
X13297090Y3350000D02*
D03*
D16*
X3556090Y9619000D02*
D03*
X14097090Y6825000D02*
D03*
X12573090D02*
D03*
X13081090D02*
D03*
X13589090D02*
D03*
X762090Y6063000D02*
D03*
Y6571000D02*
D03*
Y8095000D02*
D03*
Y7587000D02*
D03*
Y7079000D02*
D03*
X508000Y9619000D02*
D03*
X21209090Y9238000D02*
D03*
X6223090Y3396000D02*
D03*
X9652090D02*
D03*
X8509090D02*
D03*
X7366090D02*
D03*
X3937090Y7079000D02*
D03*
Y7587000D02*
D03*
Y8095000D02*
D03*
Y6571000D02*
D03*
Y6063000D02*
D03*
D17*
X4064090Y9619000D02*
D03*
X12065090Y6825000D02*
D03*
X1016000Y9619000D02*
D03*
X21717090Y9238000D02*
D03*
X5715090Y3396000D02*
D03*
X9144090D02*
D03*
X8001090D02*
D03*
X6858090D02*
D03*
D18*
X762090Y8603000D02*
D03*
X3937090D02*
D03*
D19*
X9770000D02*
D03*
Y8857000D02*
D03*
Y9111000D02*
D03*
Y9619000D02*
D03*
X10024000Y9873000D02*
D03*
Y9619000D02*
D03*
Y9365000D02*
D03*
Y9111000D02*
D03*
Y8857000D02*
D03*
Y8603000D02*
D03*
Y8349000D02*
D03*
Y8095000D02*
D03*
Y7841000D02*
D03*
Y7587000D02*
D03*
Y7333000D02*
D03*
Y7079000D02*
D03*
Y6825000D02*
D03*
Y6571000D02*
D03*
X9770000D02*
D03*
X9516000D02*
D03*
X9262000D02*
D03*
X9008000D02*
D03*
X8754000D02*
D03*
X8500000D02*
D03*
Y6825000D02*
D03*
Y7079000D02*
D03*
Y7333000D02*
D03*
Y7587000D02*
D03*
Y7841000D02*
D03*
Y8095000D02*
D03*
Y8349000D02*
D03*
Y8603000D02*
D03*
Y8857000D02*
D03*
Y9111000D02*
D03*
Y9365000D02*
D03*
Y9619000D02*
D03*
Y9873000D02*
D03*
X9516000Y6271000D02*
D03*
X9262000D02*
D03*
X9008000D02*
D03*
X9770000D02*
D03*
X10424000Y6825000D02*
D03*
Y6571000D02*
D03*
Y7841000D02*
D03*
Y7587000D02*
D03*
Y7333000D02*
D03*
Y7079000D02*
D03*
Y8857000D02*
D03*
Y8603000D02*
D03*
Y8349000D02*
D03*
Y8095000D02*
D03*
Y9619000D02*
D03*
Y9365000D02*
D03*
Y9111000D02*
D03*
X8100000Y6825000D02*
D03*
Y6571000D02*
D03*
Y7841000D02*
D03*
Y7587000D02*
D03*
Y7333000D02*
D03*
Y7079000D02*
D03*
Y8857000D02*
D03*
Y8603000D02*
D03*
Y8349000D02*
D03*
Y8095000D02*
D03*
Y9619000D02*
D03*
Y9365000D02*
D03*
Y9111000D02*
D03*
D20*
X20393100Y5001000D02*
D03*
X18199091D02*
D03*
D21*
X20393100Y5255000D02*
D03*
Y5509000D02*
D03*
Y5763000D02*
D03*
Y6017000D02*
D03*
Y6271000D02*
D03*
Y6525000D02*
D03*
Y6779000D02*
D03*
X19123100Y5001000D02*
D03*
Y5255000D02*
D03*
Y5509000D02*
D03*
Y5763000D02*
D03*
Y6017000D02*
D03*
Y6271000D02*
D03*
Y6525000D02*
D03*
Y6779000D02*
D03*
X16929089D02*
D03*
Y6525000D02*
D03*
Y6271000D02*
D03*
Y6017000D02*
D03*
Y5763000D02*
D03*
Y5509000D02*
D03*
Y5255000D02*
D03*
Y5001000D02*
D03*
X18199091Y6779000D02*
D03*
Y6525000D02*
D03*
Y6271000D02*
D03*
Y6017000D02*
D03*
Y5763000D02*
D03*
Y5509000D02*
D03*
Y5255000D02*
D03*
D22*
X14150600Y9189000D02*
D03*
X13007600D02*
D03*
X15985600Y9189000D02*
D03*
X14842599D02*
D03*
X16677600Y9189000D02*
D03*
X17820599D02*
D03*
X19177600Y9189000D02*
D03*
X20320599D02*
D03*
D23*
X14023599Y8554000D02*
D03*
X15858600Y8554000D02*
D03*
X17693600Y8554000D02*
D03*
X20193600Y8554000D02*
D03*
D24*
X13769600Y8554000D02*
D03*
X13515601D02*
D03*
X13261600D02*
D03*
X13896600Y8300000D02*
D03*
X13642599D02*
D03*
X13388600D02*
D03*
X13134599D02*
D03*
X15604601Y8554000D02*
D03*
X15350600D02*
D03*
X15096600D02*
D03*
X15731599Y8300000D02*
D03*
X15477600D02*
D03*
X15223599D02*
D03*
X14969600D02*
D03*
X16804601Y8300000D02*
D03*
X17058600D02*
D03*
X17312601D02*
D03*
X17566600D02*
D03*
X16931599Y8554000D02*
D03*
X17185600D02*
D03*
X17439600D02*
D03*
X19304601Y8300000D02*
D03*
X19558600D02*
D03*
X19812601D02*
D03*
X20066600D02*
D03*
X19431599Y8554000D02*
D03*
X19685600D02*
D03*
X19939600D02*
D03*
D25*
X17738000Y2961000D02*
D03*
Y3215000D02*
D03*
X17992000Y2961000D02*
D03*
Y3215000D02*
D03*
X18246001Y2961000D02*
D03*
X18500000D02*
D03*
X18246001Y3215000D02*
D03*
X16238000Y2961000D02*
D03*
Y3215000D02*
D03*
X16492000Y2961000D02*
D03*
Y3215000D02*
D03*
X16746001Y2961000D02*
D03*
X17000000D02*
D03*
X16746001Y3215000D02*
D03*
X14738000Y2961000D02*
D03*
Y3215000D02*
D03*
X14992000Y2961000D02*
D03*
Y3215000D02*
D03*
X15246001Y2961000D02*
D03*
X15500000D02*
D03*
X15246001Y3215000D02*
D03*
D26*
X18500000D02*
D03*
X17000000D02*
D03*
X15500000D02*
D03*
D27*
X8754000Y6271000D02*
D03*
D28*
X10424000Y9873000D02*
D03*
X8100000D02*
D03*
D29*
X17329100Y5800000D02*
D03*
X19523100D02*
D03*
D30*
X15589996Y7710000D02*
D03*
X15737495Y7692500D02*
D03*
X7000000Y8250000D02*
D03*
Y8538376D02*
D03*
D31*
X20600000Y7900000D02*
D03*
D32*
X12954100Y5301000D02*
D03*
D33*
X2032100D02*
D03*
D34*
X15737498Y7692498D02*
X15962500Y7917500D01*
X16845805D02*
X17185600Y8257295D01*
X15300000Y7255000D02*
X15737498Y7692498D01*
X15962500Y7917500D02*
X16845805D01*
X15240001Y7372500D02*
X15846310Y7978811D01*
X17058600Y8299442D02*
Y8300000D01*
X15846310Y7978811D02*
X16737968D01*
X17058600Y8299442D01*
X15480000Y7134852D02*
X16082648Y7737500D01*
X16979805Y7797500D02*
X17439600Y8257295D01*
X15360001Y7184558D02*
X16032942Y7857500D01*
X16870657D02*
X17312601Y8299442D01*
X16082648Y7737500D02*
X17004659D01*
X16057796Y7797500D02*
X16979805D01*
X17113805Y7677500D02*
X17693600Y8257295D01*
X15420000Y7159705D02*
X16057796Y7797500D01*
X16032942Y7857500D02*
X16870657D01*
X15539999Y7110000D02*
X16107500Y7677500D01*
X17113805D01*
X17004659Y7737500D02*
X17566600Y8299442D01*
X15300000Y5478090D02*
Y7255000D01*
X15480000Y7035000D02*
Y7134852D01*
X15539999Y5577500D02*
Y7110000D01*
X15420000Y5527795D02*
Y7159705D01*
X15360001Y5502943D02*
Y7184558D01*
X15420000Y5527795D02*
X17380295Y3567500D01*
X15360001Y5502943D02*
X17372943Y3490000D01*
X15480000Y5552648D02*
Y7035000D01*
X15240001Y5453237D02*
Y7372500D01*
X15300000Y5478090D02*
X17348090Y3430000D01*
X15480000Y5552648D02*
X15664999Y5367649D01*
X15539999Y5577500D02*
X17430000Y3687500D01*
X15240001Y5453237D02*
X17323238Y3370000D01*
X17380295Y3567500D02*
X18034999D01*
X15664999Y5367649D02*
X17405148Y3627500D01*
X14975000Y7599718D02*
X15604601Y8229318D01*
X14914999Y7624570D02*
X15454639Y8164209D01*
X14855000Y5133089D02*
Y7649423D01*
X14795001Y5108237D02*
X16363000Y3540237D01*
X15035001Y7574865D02*
X15731599Y8271465D01*
X14975000Y5182795D02*
X16746001Y3411795D01*
X14914999Y5157942D02*
X16617000Y3455942D01*
X14855000Y5133089D02*
X16492000Y3496090D01*
X14975000Y5182795D02*
Y7599718D01*
X14795001Y7674276D02*
X15223599Y8102875D01*
X15035001Y5207647D02*
X16871001Y3371647D01*
X14795001Y5108237D02*
Y7674276D01*
X15095000Y5232500D02*
X16990932Y3336568D01*
X15095000Y5232500D02*
Y7493694D01*
X14914999Y5157942D02*
Y7624570D01*
X15095000Y7493694D02*
X15851601Y8250294D01*
X14855000Y7649423D02*
X15350600Y8145023D01*
X15035001Y5207647D02*
Y7574865D01*
X14527089Y4937743D02*
Y7486221D01*
X13896600Y8288548D02*
X14589999Y7595148D01*
X14527089Y4937743D02*
X15246001Y4218833D01*
X14589999Y4959685D02*
X15371001Y4178685D01*
X13769600Y8243710D02*
X14527089Y7486221D01*
X14650000Y4984538D02*
Y7620000D01*
X14023599Y8246400D02*
X14650000Y7620000D01*
X14589999Y4959685D02*
Y7595148D01*
X14650000Y4984538D02*
X15500000Y4134538D01*
X13388600Y8289048D02*
Y8300000D01*
X14287090Y3411910D02*
X14738000Y2961000D01*
X13261600Y8245900D02*
Y8554000D01*
X14347090Y3605910D02*
X14738000Y3215000D01*
X13515601Y8246900D02*
Y8554000D01*
X14407091Y4803185D02*
X14863530Y4346745D01*
X13769600Y8243710D02*
Y8554000D01*
X14287090Y3411910D02*
Y7135558D01*
X14467088Y4828038D02*
X14992000Y4303128D01*
X13261600Y8245900D02*
X14347090Y7160410D01*
X13134599Y8288047D02*
X14287090Y7135558D01*
X14407091Y4803185D02*
Y7270558D01*
X13515601Y8246900D02*
X14467088Y7295411D01*
X14347090Y3605910D02*
Y7160410D01*
X14467088Y4828038D02*
Y7295411D01*
X13134599Y8288047D02*
Y8300000D01*
X13896600Y8288548D02*
Y8300000D01*
X13388600Y8289048D02*
X14407091Y7270558D01*
X17405148Y3627500D02*
X17526819D01*
X17348090Y3430000D02*
X17907500D01*
X17430000Y3687500D02*
X18150000D01*
X17372943Y3490000D02*
X17995000D01*
X17323238Y3370000D02*
X17802499D01*
X17526819Y3627500D02*
X18122501D01*
X16363000Y3090000D02*
Y3540237D01*
X16492000Y3215000D02*
Y3496090D01*
X16617000Y3090000D02*
Y3455942D01*
X14863530Y3089470D02*
Y4346745D01*
X15371001Y3090000D02*
Y4178685D01*
X15246001Y3215000D02*
Y4218833D01*
X14992000Y3154554D02*
Y4303128D01*
X15500000Y3215000D02*
Y4134538D01*
X16990932Y3224068D02*
X17000000Y3215000D01*
X16990932Y3224068D02*
Y3336568D01*
X16871001Y3090000D02*
Y3371647D01*
X16746001Y3215000D02*
Y3411795D01*
X15604601Y8229318D02*
Y8554000D01*
X15731599Y8271465D02*
Y8300000D01*
X15223599Y8102875D02*
Y8300000D01*
X15454639Y8164209D02*
Y8277039D01*
X15350600Y8145023D02*
Y8554000D01*
X14863530Y3089470D02*
X14992000Y2961000D01*
X15454639Y8277039D02*
X15477600Y8300000D01*
X15851601Y8250294D02*
Y8547000D01*
X17802499Y3370000D02*
X17863000Y3309500D01*
Y3003924D02*
Y3309500D01*
X17992000Y3215000D02*
Y3345500D01*
X17907500Y3430000D02*
X17992000Y3345500D01*
X18034999Y3567500D02*
X18246001Y3356500D01*
Y3215000D02*
Y3356500D01*
X18120000Y3087000D02*
Y3365000D01*
X17995000Y3490000D02*
X18120000Y3365000D01*
X18371001Y3090000D02*
Y3379000D01*
X18122501Y3627500D02*
X18371001Y3379000D01*
X18500000Y3215000D02*
Y3337500D01*
X18150000Y3687500D02*
X18500000Y3337500D01*
X17693600Y8257295D02*
Y8554000D01*
X17566600Y8299442D02*
Y8300000D01*
X17439600Y8257295D02*
Y8554000D01*
X17185600Y8257295D02*
Y8554000D01*
X17312601Y8299442D02*
Y8300000D01*
X17886432Y2980492D02*
X17972508D01*
X17992000Y2961000D01*
X17863000Y3003924D02*
X17886432Y2980492D01*
X16871001Y3090000D02*
X17000000Y2961000D01*
X15851601Y8547000D02*
X15858600Y8554000D01*
X18371001Y3090000D02*
X18500000Y2961000D01*
X18120000Y3087000D02*
X18246001Y2961000D01*
X15371001Y3090000D02*
X15500000Y2961000D01*
X13642599Y8285858D02*
Y8300000D01*
X16363000Y3090000D02*
X16492000Y2961000D01*
X16617000Y3090000D02*
X16746001Y2961000D01*
X14023599Y8246400D02*
Y8554000D01*
%TF.MD5,6a3cdf4be1acb6ede4cc9e2bf3db1d71*%
M02*
