%TF.GenerationSoftware,Altium Limited,Altium Designer,26.3.0 (6)*%
G04 Layer_Physical_Order=1*
G04 Layer_Color=255*
%FSLAX45Y45*%
%MOMM*%
%TF.SameCoordinates,D9BBDC1C-D3D2-418C-AC26-F9D2A8C021A8*%
%TF.FilePolarity,Positive*%
%TF.FileFunction,Copper,L1,Top,Signal*%
%TF.Part,Single*%
G01*
G75*
%TA.AperFunction,SMDPad,CuDef*%
%ADD10R,2.45000X2.85000*%
%TA.AperFunction,Conductor*%
%ADD11C,0.50000*%
%ADD12C,2.00000*%
%ADD13C,1.00000*%
%TA.AperFunction,ComponentPad*%
G04:AMPARAMS|DCode=14|XSize=3.2mm|YSize=2.2mm|CornerRadius=0.55mm|HoleSize=0mm|Usage=FLASHONLY|Rotation=180.000|XOffset=0mm|YOffset=0mm|HoleType=Round|Shape=RoundedRectangle|*
%AMROUNDEDRECTD14*
21,1,3.20000,1.10000,0,0,180.0*
21,1,2.10000,2.20000,0,0,180.0*
1,1,1.10000,-1.05000,0.55000*
1,1,1.10000,1.05000,0.55000*
1,1,1.10000,1.05000,-0.55000*
1,1,1.10000,-1.05000,-0.55000*
%
%ADD14ROUNDEDRECTD14*%
G04:AMPARAMS|DCode=15|XSize=3.2mm|YSize=2.2mm|CornerRadius=0.55mm|HoleSize=0mm|Usage=FLASHONLY|Rotation=270.000|XOffset=0mm|YOffset=0mm|HoleType=Round|Shape=RoundedRectangle|*
%AMROUNDEDRECTD15*
21,1,3.20000,1.10000,0,0,270.0*
21,1,2.10000,2.20000,0,0,270.0*
1,1,1.10000,-0.55000,-1.05000*
1,1,1.10000,-0.55000,1.05000*
1,1,1.10000,0.55000,1.05000*
1,1,1.10000,0.55000,-1.05000*
%
%ADD15ROUNDEDRECTD15*%
%ADD16C,3.00000*%
%ADD17R,3.00000X3.00000*%
%ADD18R,3.00000X3.00000*%
%ADD19C,1.80000*%
%ADD20R,1.90000X1.90000*%
%ADD21C,1.90000*%
%ADD22C,3.30000*%
%ADD23R,1.60000X1.60000*%
%ADD24C,1.60000*%
%ADD25C,1.70000*%
G04:AMPARAMS|DCode=26|XSize=1.7mm|YSize=1.7mm|CornerRadius=0.425mm|HoleSize=0mm|Usage=FLASHONLY|Rotation=270.000|XOffset=0mm|YOffset=0mm|HoleType=Round|Shape=RoundedRectangle|*
%AMROUNDEDRECTD26*
21,1,1.70000,0.85000,0,0,270.0*
21,1,0.85000,1.70000,0,0,270.0*
1,1,0.85000,-0.42500,-0.42500*
1,1,0.85000,-0.42500,0.42500*
1,1,0.85000,0.42500,0.42500*
1,1,0.85000,0.42500,-0.42500*
%
%ADD26ROUNDEDRECTD26*%
G04:AMPARAMS|DCode=27|XSize=1.8mm|YSize=1.8mm|CornerRadius=0.45mm|HoleSize=0mm|Usage=FLASHONLY|Rotation=90.000|XOffset=0mm|YOffset=0mm|HoleType=Round|Shape=RoundedRectangle|*
%AMROUNDEDRECTD27*
21,1,1.80000,0.90000,0,0,90.0*
21,1,0.90000,1.80000,0,0,90.0*
1,1,0.90000,0.45000,0.45000*
1,1,0.90000,0.45000,-0.45000*
1,1,0.90000,-0.45000,-0.45000*
1,1,0.90000,-0.45000,0.45000*
%
%ADD27ROUNDEDRECTD27*%
G04:AMPARAMS|DCode=28|XSize=1.8mm|YSize=1.8mm|CornerRadius=0.45mm|HoleSize=0mm|Usage=FLASHONLY|Rotation=0.000|XOffset=0mm|YOffset=0mm|HoleType=Round|Shape=RoundedRectangle|*
%AMROUNDEDRECTD28*
21,1,1.80000,0.90000,0,0,0.0*
21,1,0.90000,1.80000,0,0,0.0*
1,1,0.90000,0.45000,-0.45000*
1,1,0.90000,-0.45000,-0.45000*
1,1,0.90000,-0.45000,0.45000*
1,1,0.90000,0.45000,0.45000*
%
%ADD28ROUNDEDRECTD28*%
%TA.AperFunction,ViaPad*%
%ADD29C,1.50000*%
%ADD30C,1.00000*%
%ADD31C,2.00000*%
%ADD32C,6.40000*%
%ADD33C,6.20000*%
D10*
X19523100Y5496000D02*
D03*
Y5001000D02*
D03*
X17329100D02*
D03*
Y5496000D02*
D03*
D11*
X16833995Y7072500D02*
X18421495D01*
X16700000Y6938505D02*
X16833995Y7072500D01*
X16770000Y6180000D02*
Y6909511D01*
X16862990Y7002500D02*
X18450490D01*
X16630000Y5810000D02*
Y6967500D01*
X16805000Y7142500D01*
X16770000Y6909511D02*
X16862990Y7002500D01*
X16700000Y5997500D02*
Y6938505D01*
X16805000Y7142500D02*
X18392500D01*
X18450490Y7002500D02*
X19430000Y7982011D01*
X16929089Y6271000D02*
X17590590Y6932500D01*
X18392500Y7142500D02*
X19179601Y7929600D01*
X18479485Y6932500D02*
X19558600Y8011616D01*
X17590590Y6932500D02*
X18479485D01*
X18421495Y7072500D02*
X19304601Y7955605D01*
X16770000Y6176090D02*
X16929089Y6017000D01*
X19430000Y7982011D02*
Y8355000D01*
X16700000Y5992090D02*
X16929089Y5763000D01*
X18967500Y5918600D02*
Y7220000D01*
Y5917500D02*
Y5918600D01*
X20193600Y7087500D02*
Y8554000D01*
X16630000Y5808090D02*
X16929089Y5509000D01*
X19123100Y6271000D02*
X20066600Y7214500D01*
X18895000Y5737100D02*
X19123100Y5509000D01*
X18967500Y5918600D02*
X19123100Y5763000D01*
X18895000Y5742500D02*
Y7249021D01*
X19123100Y6017000D02*
X20193600Y7087500D01*
X19304601Y7955605D02*
Y8300000D01*
X19685001Y8039021D02*
Y8362500D01*
X18895000Y7249021D02*
X19685001Y8039021D01*
X19179601Y7929600D02*
Y8419600D01*
X19558600Y8011616D02*
Y8300000D01*
X19179601Y8419600D02*
X19292952Y8532952D01*
X19410551D01*
X19431599Y8554000D01*
X19607951Y8532952D02*
X19664552D01*
X19685600Y8554000D01*
X19430000Y8355000D02*
X19607951Y8532952D01*
X19812601Y8065100D02*
Y8300000D01*
X18967500Y7220000D02*
X19812601Y8065100D01*
X20066600Y7217500D02*
Y8300000D01*
X13305000Y4177500D02*
X14651501Y2831000D01*
X13451500Y4247500D02*
X14738000Y2961000D01*
X3937090Y7079000D02*
X6768590Y4247500D01*
X2438500Y7079000D02*
X5340000Y4177500D01*
X6768590Y4247500D02*
X13451500D01*
X5340000Y4177500D02*
X13305000D01*
X762090Y7079000D02*
X2438500D01*
X14651501Y2831000D02*
X14862000D01*
X14992000Y2961000D01*
X16025000Y8305000D02*
X16799600D01*
X15175000Y7455000D02*
X16025000Y8305000D01*
X15175000Y5342500D02*
Y7455000D01*
Y5342500D02*
X17533539Y2983961D01*
X14730000Y7785000D02*
X14989999Y8045000D01*
X14730000Y4997500D02*
X16107500Y3620000D01*
X14730000Y4997500D02*
Y7785000D01*
X17533539Y2983961D02*
X17715039D01*
X16107500Y3080000D02*
Y3620000D01*
X16799600Y8305000D02*
X16804601Y8300000D01*
X17715039Y2983961D02*
X17738000Y2961000D01*
X14969600Y8300000D02*
X14989999Y8279600D01*
Y8045000D02*
Y8279600D01*
X16107500Y3080000D02*
X16200000Y2987500D01*
X16232500D01*
X19685001Y8362500D02*
X19853539Y8531039D01*
X19916640D02*
X19939600Y8554000D01*
X19853539Y8531039D02*
X19916640D01*
X10945000Y6412500D02*
Y8590000D01*
X10875000Y6442500D02*
Y8406000D01*
X10424000Y9111000D02*
X10945000Y8590000D01*
X10424000Y8857000D02*
X10875000Y8406000D01*
X7497500Y6772500D02*
X8270000Y6000000D01*
X10532500D01*
X10945000Y6412500D01*
X10532500Y6100000D02*
X10875000Y6442500D01*
X8312500Y6100000D02*
X10532500D01*
X7642500Y6770000D02*
X8312500Y6100000D01*
X7000000Y8538376D02*
X7642500Y7895876D01*
X7000000Y8250000D02*
X7497500Y7752500D01*
X7642500Y6770000D02*
Y7895876D01*
X7497500Y6772500D02*
Y7752500D01*
D12*
X17329100Y5001000D02*
X17339932Y4990168D01*
Y4722568D02*
Y4990168D01*
Y4722568D02*
X17592500Y4470000D01*
X19772501D01*
X20782500D01*
X19526932Y4715568D02*
X19772501Y4470000D01*
X19526932Y4715568D02*
Y4997168D01*
X19523100Y5001000D02*
X19526932Y4997168D01*
X20782500Y4470000D02*
X21209090Y4896590D01*
Y7968000D01*
Y8730000D01*
X8607090Y2790000D02*
X8690000D01*
X7510000D02*
X8607090D01*
X9750090D02*
X9770000D01*
X8690000D02*
X9750090D01*
X7464090D02*
X7510000D01*
X9770000D02*
X11917090D01*
X6321090D02*
X7464090D01*
X14575000Y9860000D02*
X20210001D01*
X10600000Y5700000D02*
X11250000Y6350000D01*
X7983090Y5700000D02*
X10600000D01*
X11250000Y6350000D02*
Y8295910D01*
X4064090Y9619000D02*
X7983090Y5700000D01*
X20600000Y7900000D02*
X20620000Y7920000D01*
X20210001Y9860000D02*
X20620000Y9450000D01*
Y7920000D02*
Y9450000D01*
X12864090Y9860000D02*
X14575000D01*
X11861090Y8857000D02*
X12864090Y9860000D01*
X11250000Y8295910D02*
X11751090Y8797000D01*
X3655090Y9210000D02*
X4064090Y9619000D01*
X1425000Y9210000D02*
X3655090D01*
X1016000Y9619000D02*
X1425000Y9210000D01*
X11751090Y8797000D02*
Y8847000D01*
X11761090Y8857000D01*
X9144090Y3396000D02*
X9750090Y2790000D01*
X8001090Y3396000D02*
X8607090Y2790000D01*
X6858090Y3396000D02*
X7464090Y2790000D01*
X12777090Y3650000D02*
X12827090D01*
X11917090Y2790000D02*
X12777090Y3650000D01*
X5715090Y3396000D02*
X6321090Y2790000D01*
X21209090Y8730000D02*
X21717090Y9238000D01*
D13*
X17309100Y5001000D02*
X17329100Y4981000D01*
X19123090Y5001000D02*
X19436252D01*
X19123090Y5255000D02*
X19302100D01*
X19523100Y5496000D02*
Y5800000D01*
X19302100Y5255000D02*
X19523100Y5476000D01*
Y5496000D01*
X20600000Y6477900D02*
Y7900000D01*
Y6475000D02*
Y6477900D01*
X16929089Y5001000D02*
X17309100D01*
X17329100Y5476000D02*
Y5496000D01*
Y5800000D01*
X17103101Y5250000D02*
X17329100Y5476000D01*
X16934090Y5250000D02*
X17103101D01*
X16929089Y5255000D02*
X16934090Y5250000D01*
X20393100Y6271000D02*
X20600000Y6477900D01*
X17512000Y2735000D02*
X17738000Y2961000D01*
X14380000Y2735000D02*
X17512000D01*
X12874384Y3650000D02*
X13464999D01*
X14380000Y2735000D01*
X14575000Y8694600D02*
Y9860000D01*
Y8694600D02*
X14969600Y8300000D01*
X12874384Y3650000D02*
X12934003Y3709619D01*
X12827090Y3650000D02*
X12874384D01*
X11811090Y8857000D02*
X11861090D01*
X10024000Y7587000D02*
X10424000D01*
X11000000Y9050000D02*
Y9550000D01*
Y9050000D02*
X11193000Y8857000D01*
X11761090D01*
X10677000Y9873000D02*
X11000000Y9550000D01*
X10424000Y9873000D02*
X10677000D01*
X8100000D02*
X8500000D01*
X10024000D02*
X10424000D01*
X10024000Y9619000D02*
X10424000D01*
X10024000Y9365000D02*
X10424000D01*
X10024000Y9111000D02*
X10424000D01*
X10024000Y8857000D02*
X10424000D01*
X10024000Y8603000D02*
X10424000D01*
X10024000Y8349000D02*
X10424000D01*
X10024000Y8095000D02*
X10424000D01*
X10024000Y7841000D02*
X10424000D01*
X10024000Y7333000D02*
X10424000D01*
X9262000Y6271000D02*
Y6571000D01*
X10024000Y7079000D02*
X10424000D01*
X10024000Y6825000D02*
X10424000D01*
X10024000Y6571000D02*
X10424000D01*
X9770000Y6271000D02*
Y6571000D01*
X9516000Y6271000D02*
Y6571000D01*
X9008000Y6271000D02*
Y6571000D01*
X8754000Y6271000D02*
Y6571000D01*
X8100000D02*
X8500000D01*
X8100000Y6825000D02*
X8500000D01*
X8100000Y7079000D02*
X8500000D01*
X8100000Y7333000D02*
X8500000D01*
X8100000Y7587000D02*
X8500000D01*
X8100000Y7841000D02*
X8500000D01*
X8100000Y8095000D02*
X8500000D01*
X8100000Y8349000D02*
X8500000D01*
X8100000Y8603000D02*
X8500000D01*
X8100000Y8857000D02*
X8500000D01*
X8100000Y9111000D02*
X8500000D01*
X8100000Y9365000D02*
X8500000D01*
X8100000Y9619000D02*
X8500000D01*
D14*
X11811090Y8857000D02*
D03*
Y9457000D02*
D03*
X21509090Y8438000D02*
D03*
X12827090Y3050000D02*
D03*
Y3650000D02*
D03*
D15*
X11341090Y9157000D02*
D03*
X21809090Y7968000D02*
D03*
X21209090D02*
D03*
X13297090Y3350000D02*
D03*
D16*
X3556090Y9619000D02*
D03*
X14097090Y6825000D02*
D03*
X12573090D02*
D03*
X13081090D02*
D03*
X13589090D02*
D03*
X762090Y6063000D02*
D03*
Y6571000D02*
D03*
Y8095000D02*
D03*
Y7587000D02*
D03*
Y7079000D02*
D03*
X508000Y9619000D02*
D03*
X21209090Y9238000D02*
D03*
X6223090Y3396000D02*
D03*
X9652090D02*
D03*
X8509090D02*
D03*
X7366090D02*
D03*
X3937090Y7079000D02*
D03*
Y7587000D02*
D03*
Y8095000D02*
D03*
Y6571000D02*
D03*
Y6063000D02*
D03*
D17*
X4064090Y9619000D02*
D03*
X12065090Y6825000D02*
D03*
X1016000Y9619000D02*
D03*
X21717090Y9238000D02*
D03*
X5715090Y3396000D02*
D03*
X9144090D02*
D03*
X8001090D02*
D03*
X6858090D02*
D03*
D18*
X762090Y8603000D02*
D03*
X3937090D02*
D03*
D19*
X9770000D02*
D03*
Y8857000D02*
D03*
Y9111000D02*
D03*
Y9619000D02*
D03*
X10024000Y9873000D02*
D03*
Y9619000D02*
D03*
Y9365000D02*
D03*
Y9111000D02*
D03*
Y8857000D02*
D03*
Y8603000D02*
D03*
Y8349000D02*
D03*
Y8095000D02*
D03*
Y7841000D02*
D03*
Y7587000D02*
D03*
Y7333000D02*
D03*
Y7079000D02*
D03*
Y6825000D02*
D03*
Y6571000D02*
D03*
X9770000D02*
D03*
X9516000D02*
D03*
X9262000D02*
D03*
X9008000D02*
D03*
X8754000D02*
D03*
X8500000D02*
D03*
Y6825000D02*
D03*
Y7079000D02*
D03*
Y7333000D02*
D03*
Y7587000D02*
D03*
Y7841000D02*
D03*
Y8095000D02*
D03*
Y8349000D02*
D03*
Y8603000D02*
D03*
Y8857000D02*
D03*
Y9111000D02*
D03*
Y9365000D02*
D03*
Y9619000D02*
D03*
Y9873000D02*
D03*
X9516000Y6271000D02*
D03*
X9262000D02*
D03*
X9008000D02*
D03*
X9770000D02*
D03*
X10424000Y6825000D02*
D03*
Y6571000D02*
D03*
Y7841000D02*
D03*
Y7587000D02*
D03*
Y7333000D02*
D03*
Y7079000D02*
D03*
Y8857000D02*
D03*
Y8603000D02*
D03*
Y8349000D02*
D03*
Y8095000D02*
D03*
Y9619000D02*
D03*
Y9365000D02*
D03*
Y9111000D02*
D03*
X8100000Y6825000D02*
D03*
Y6571000D02*
D03*
Y7841000D02*
D03*
Y7587000D02*
D03*
Y7333000D02*
D03*
Y7079000D02*
D03*
Y8857000D02*
D03*
Y8603000D02*
D03*
Y8349000D02*
D03*
Y8095000D02*
D03*
Y9619000D02*
D03*
Y9365000D02*
D03*
Y9111000D02*
D03*
D20*
X20393100Y5001000D02*
D03*
X18199091D02*
D03*
D21*
X20393100Y5255000D02*
D03*
Y5509000D02*
D03*
Y5763000D02*
D03*
Y6017000D02*
D03*
Y6271000D02*
D03*
Y6525000D02*
D03*
Y6779000D02*
D03*
X19123100Y5001000D02*
D03*
Y5255000D02*
D03*
Y5509000D02*
D03*
Y5763000D02*
D03*
Y6017000D02*
D03*
Y6271000D02*
D03*
Y6525000D02*
D03*
Y6779000D02*
D03*
X16929089D02*
D03*
Y6525000D02*
D03*
Y6271000D02*
D03*
Y6017000D02*
D03*
Y5763000D02*
D03*
Y5509000D02*
D03*
Y5255000D02*
D03*
Y5001000D02*
D03*
X18199091Y6779000D02*
D03*
Y6525000D02*
D03*
Y6271000D02*
D03*
Y6017000D02*
D03*
Y5763000D02*
D03*
Y5509000D02*
D03*
Y5255000D02*
D03*
D22*
X14150600Y9189000D02*
D03*
X13007600D02*
D03*
X15985600Y9189000D02*
D03*
X14842599D02*
D03*
X16677600Y9189000D02*
D03*
X17820599D02*
D03*
X19177600Y9189000D02*
D03*
X20320599D02*
D03*
D23*
X14023599Y8554000D02*
D03*
X15858600Y8554000D02*
D03*
X17693600Y8554000D02*
D03*
X20193600Y8554000D02*
D03*
D24*
X13769600Y8554000D02*
D03*
X13515601D02*
D03*
X13261600D02*
D03*
X13896600Y8300000D02*
D03*
X13642599D02*
D03*
X13388600D02*
D03*
X13134599D02*
D03*
X15604601Y8554000D02*
D03*
X15350600D02*
D03*
X15096600D02*
D03*
X15731599Y8300000D02*
D03*
X15477600D02*
D03*
X15223599D02*
D03*
X14969600D02*
D03*
X16804601Y8300000D02*
D03*
X17058600D02*
D03*
X17312601D02*
D03*
X17566600D02*
D03*
X16931599Y8554000D02*
D03*
X17185600D02*
D03*
X17439600D02*
D03*
X19304601Y8300000D02*
D03*
X19558600D02*
D03*
X19812601D02*
D03*
X20066600D02*
D03*
X19431599Y8554000D02*
D03*
X19685600D02*
D03*
X19939600D02*
D03*
D25*
X17738000Y2961000D02*
D03*
Y3215000D02*
D03*
X17992000Y2961000D02*
D03*
Y3215000D02*
D03*
X18246001Y2961000D02*
D03*
X18500000D02*
D03*
X18246001Y3215000D02*
D03*
X16238000Y2961000D02*
D03*
Y3215000D02*
D03*
X16492000Y2961000D02*
D03*
Y3215000D02*
D03*
X16746001Y2961000D02*
D03*
X17000000D02*
D03*
X16746001Y3215000D02*
D03*
X14738000Y2961000D02*
D03*
Y3215000D02*
D03*
X14992000Y2961000D02*
D03*
Y3215000D02*
D03*
X15246001Y2961000D02*
D03*
X15500000D02*
D03*
X15246001Y3215000D02*
D03*
D26*
X18500000D02*
D03*
X17000000D02*
D03*
X15500000D02*
D03*
D27*
X8754000Y6271000D02*
D03*
D28*
X10424000Y9873000D02*
D03*
X8100000D02*
D03*
D29*
X17329100Y5800000D02*
D03*
X19523100D02*
D03*
D30*
X15589996Y7710000D02*
D03*
X15737495Y7692500D02*
D03*
X7000000Y8250000D02*
D03*
Y8538376D02*
D03*
D31*
X20600000Y7900000D02*
D03*
D32*
X12954100Y5301000D02*
D03*
D33*
X2032100D02*
D03*
%TF.MD5,335bbdbd799bdc483a6772dfc9daf5f6*%
M02*
