%TF.GenerationSoftware,Altium Limited,Altium Designer,26.3.0 (6)*%
G04 Layer_Color=8388736*
%FSLAX45Y45*%
%MOMM*%
%TF.SameCoordinates,D9BBDC1C-D3D2-418C-AC26-F9D2A8C021A8*%
%TF.FilePolarity,Negative*%
%TF.FileFunction,Soldermask,Top*%
%TF.Part,Single*%
G01*
G75*
%TA.AperFunction,SMDPad,CuDef*%
%ADD41R,2.65320X3.05320*%
%TA.AperFunction,ComponentPad*%
G04:AMPARAMS|DCode=42|XSize=3.4032mm|YSize=2.4032mm|CornerRadius=0.6516mm|HoleSize=0mm|Usage=FLASHONLY|Rotation=180.000|XOffset=0mm|YOffset=0mm|HoleType=Round|Shape=RoundedRectangle|*
%AMROUNDEDRECTD42*
21,1,3.40320,1.10000,0,0,180.0*
21,1,2.10000,2.40320,0,0,180.0*
1,1,1.30320,-1.05000,0.55000*
1,1,1.30320,1.05000,0.55000*
1,1,1.30320,1.05000,-0.55000*
1,1,1.30320,-1.05000,-0.55000*
%
%ADD42ROUNDEDRECTD42*%
G04:AMPARAMS|DCode=43|XSize=3.4032mm|YSize=2.4032mm|CornerRadius=0.6516mm|HoleSize=0mm|Usage=FLASHONLY|Rotation=270.000|XOffset=0mm|YOffset=0mm|HoleType=Round|Shape=RoundedRectangle|*
%AMROUNDEDRECTD43*
21,1,3.40320,1.10000,0,0,270.0*
21,1,2.10000,2.40320,0,0,270.0*
1,1,1.30320,-0.55000,-1.05000*
1,1,1.30320,-0.55000,1.05000*
1,1,1.30320,0.55000,1.05000*
1,1,1.30320,0.55000,-1.05000*
%
%ADD43ROUNDEDRECTD43*%
%ADD44C,3.20320*%
%ADD45R,3.20320X3.20320*%
%ADD46R,3.20320X3.20320*%
%ADD47C,2.00320*%
%ADD48R,2.10320X2.10320*%
%ADD49C,2.10320*%
%ADD50C,3.50320*%
%ADD51R,1.80320X1.80320*%
%ADD52C,1.80320*%
%ADD53C,1.90320*%
G04:AMPARAMS|DCode=54|XSize=1.9032mm|YSize=1.9032mm|CornerRadius=0.5266mm|HoleSize=0mm|Usage=FLASHONLY|Rotation=270.000|XOffset=0mm|YOffset=0mm|HoleType=Round|Shape=RoundedRectangle|*
%AMROUNDEDRECTD54*
21,1,1.90320,0.85000,0,0,270.0*
21,1,0.85000,1.90320,0,0,270.0*
1,1,1.05320,-0.42500,-0.42500*
1,1,1.05320,-0.42500,0.42500*
1,1,1.05320,0.42500,0.42500*
1,1,1.05320,0.42500,-0.42500*
%
%ADD54ROUNDEDRECTD54*%
G04:AMPARAMS|DCode=55|XSize=2.0032mm|YSize=2.0032mm|CornerRadius=0.5516mm|HoleSize=0mm|Usage=FLASHONLY|Rotation=90.000|XOffset=0mm|YOffset=0mm|HoleType=Round|Shape=RoundedRectangle|*
%AMROUNDEDRECTD55*
21,1,2.00320,0.90000,0,0,90.0*
21,1,0.90000,2.00320,0,0,90.0*
1,1,1.10320,0.45000,0.45000*
1,1,1.10320,0.45000,-0.45000*
1,1,1.10320,-0.45000,-0.45000*
1,1,1.10320,-0.45000,0.45000*
%
%ADD55ROUNDEDRECTD55*%
G04:AMPARAMS|DCode=56|XSize=2.0032mm|YSize=2.0032mm|CornerRadius=0.5516mm|HoleSize=0mm|Usage=FLASHONLY|Rotation=0.000|XOffset=0mm|YOffset=0mm|HoleType=Round|Shape=RoundedRectangle|*
%AMROUNDEDRECTD56*
21,1,2.00320,0.90000,0,0,0.0*
21,1,0.90000,2.00320,0,0,0.0*
1,1,1.10320,0.45000,-0.45000*
1,1,1.10320,-0.45000,-0.45000*
1,1,1.10320,-0.45000,0.45000*
1,1,1.10320,0.45000,0.45000*
%
%ADD56ROUNDEDRECTD56*%
%TA.AperFunction,ViaPad*%
%ADD57C,1.70320*%
%ADD58C,1.20320*%
%ADD59C,2.20320*%
%ADD60C,6.60320*%
%ADD61C,6.40320*%
D41*
X19523100Y5496000D02*
D03*
Y5001000D02*
D03*
X17329100D02*
D03*
Y5496000D02*
D03*
D42*
X11811090Y8857000D02*
D03*
Y9457000D02*
D03*
X21509090Y8438000D02*
D03*
X12827090Y3050000D02*
D03*
Y3650000D02*
D03*
D43*
X11341090Y9157000D02*
D03*
X21809090Y7968000D02*
D03*
X21209090D02*
D03*
X13297090Y3350000D02*
D03*
D44*
X3556090Y9619000D02*
D03*
X14097090Y6825000D02*
D03*
X12573090D02*
D03*
X13081090D02*
D03*
X13589090D02*
D03*
X762090Y6063000D02*
D03*
Y6571000D02*
D03*
Y8095000D02*
D03*
Y7587000D02*
D03*
Y7079000D02*
D03*
X508000Y9619000D02*
D03*
X21209090Y9238000D02*
D03*
X6223090Y3396000D02*
D03*
X9652090D02*
D03*
X8509090D02*
D03*
X7366090D02*
D03*
X3937090Y7079000D02*
D03*
Y7587000D02*
D03*
Y8095000D02*
D03*
Y6571000D02*
D03*
Y6063000D02*
D03*
D45*
X4064090Y9619000D02*
D03*
X12065090Y6825000D02*
D03*
X1016000Y9619000D02*
D03*
X21717090Y9238000D02*
D03*
X5715090Y3396000D02*
D03*
X9144090D02*
D03*
X8001090D02*
D03*
X6858090D02*
D03*
D46*
X762090Y8603000D02*
D03*
X3937090D02*
D03*
D47*
X9770000D02*
D03*
Y8857000D02*
D03*
Y9111000D02*
D03*
Y9619000D02*
D03*
X10024000Y9873000D02*
D03*
Y9619000D02*
D03*
Y9365000D02*
D03*
Y9111000D02*
D03*
Y8857000D02*
D03*
Y8603000D02*
D03*
Y8349000D02*
D03*
Y8095000D02*
D03*
Y7841000D02*
D03*
Y7587000D02*
D03*
Y7333000D02*
D03*
Y7079000D02*
D03*
Y6825000D02*
D03*
Y6571000D02*
D03*
X9770000D02*
D03*
X9516000D02*
D03*
X9262000D02*
D03*
X9008000D02*
D03*
X8754000D02*
D03*
X8500000D02*
D03*
Y6825000D02*
D03*
Y7079000D02*
D03*
Y7333000D02*
D03*
Y7587000D02*
D03*
Y7841000D02*
D03*
Y8095000D02*
D03*
Y8349000D02*
D03*
Y8603000D02*
D03*
Y8857000D02*
D03*
Y9111000D02*
D03*
Y9365000D02*
D03*
Y9619000D02*
D03*
Y9873000D02*
D03*
X9516000Y6271000D02*
D03*
X9262000D02*
D03*
X9008000D02*
D03*
X9770000D02*
D03*
X10424000Y6825000D02*
D03*
Y6571000D02*
D03*
Y7841000D02*
D03*
Y7587000D02*
D03*
Y7333000D02*
D03*
Y7079000D02*
D03*
Y8857000D02*
D03*
Y8603000D02*
D03*
Y8349000D02*
D03*
Y8095000D02*
D03*
Y9619000D02*
D03*
Y9365000D02*
D03*
Y9111000D02*
D03*
X8100000Y6825000D02*
D03*
Y6571000D02*
D03*
Y7841000D02*
D03*
Y7587000D02*
D03*
Y7333000D02*
D03*
Y7079000D02*
D03*
Y8857000D02*
D03*
Y8603000D02*
D03*
Y8349000D02*
D03*
Y8095000D02*
D03*
Y9619000D02*
D03*
Y9365000D02*
D03*
Y9111000D02*
D03*
D48*
X20393100Y5001000D02*
D03*
X18199091D02*
D03*
D49*
X20393100Y5255000D02*
D03*
Y5509000D02*
D03*
Y5763000D02*
D03*
Y6017000D02*
D03*
Y6271000D02*
D03*
Y6525000D02*
D03*
Y6779000D02*
D03*
X19123100Y5001000D02*
D03*
Y5255000D02*
D03*
Y5509000D02*
D03*
Y5763000D02*
D03*
Y6017000D02*
D03*
Y6271000D02*
D03*
Y6525000D02*
D03*
Y6779000D02*
D03*
X16929089D02*
D03*
Y6525000D02*
D03*
Y6271000D02*
D03*
Y6017000D02*
D03*
Y5763000D02*
D03*
Y5509000D02*
D03*
Y5255000D02*
D03*
Y5001000D02*
D03*
X18199091Y6779000D02*
D03*
Y6525000D02*
D03*
Y6271000D02*
D03*
Y6017000D02*
D03*
Y5763000D02*
D03*
Y5509000D02*
D03*
Y5255000D02*
D03*
D50*
X14150600Y9189000D02*
D03*
X13007600D02*
D03*
X15985600Y9189000D02*
D03*
X14842599D02*
D03*
X16677600Y9189000D02*
D03*
X17820599D02*
D03*
X19177600Y9189000D02*
D03*
X20320599D02*
D03*
D51*
X14023599Y8554000D02*
D03*
X15858600Y8554000D02*
D03*
X17693600Y8554000D02*
D03*
X20193600Y8554000D02*
D03*
D52*
X13769600Y8554000D02*
D03*
X13515601D02*
D03*
X13261600D02*
D03*
X13896600Y8300000D02*
D03*
X13642599D02*
D03*
X13388600D02*
D03*
X13134599D02*
D03*
X15604601Y8554000D02*
D03*
X15350600D02*
D03*
X15096600D02*
D03*
X15731599Y8300000D02*
D03*
X15477600D02*
D03*
X15223599D02*
D03*
X14969600D02*
D03*
X16804601Y8300000D02*
D03*
X17058600D02*
D03*
X17312601D02*
D03*
X17566600D02*
D03*
X16931599Y8554000D02*
D03*
X17185600D02*
D03*
X17439600D02*
D03*
X19304601Y8300000D02*
D03*
X19558600D02*
D03*
X19812601D02*
D03*
X20066600D02*
D03*
X19431599Y8554000D02*
D03*
X19685600D02*
D03*
X19939600D02*
D03*
D53*
X17738000Y2961000D02*
D03*
Y3215000D02*
D03*
X17992000Y2961000D02*
D03*
Y3215000D02*
D03*
X18246001Y2961000D02*
D03*
X18500000D02*
D03*
X18246001Y3215000D02*
D03*
X16238000Y2961000D02*
D03*
Y3215000D02*
D03*
X16492000Y2961000D02*
D03*
Y3215000D02*
D03*
X16746001Y2961000D02*
D03*
X17000000D02*
D03*
X16746001Y3215000D02*
D03*
X14738000Y2961000D02*
D03*
Y3215000D02*
D03*
X14992000Y2961000D02*
D03*
Y3215000D02*
D03*
X15246001Y2961000D02*
D03*
X15500000D02*
D03*
X15246001Y3215000D02*
D03*
D54*
X18500000D02*
D03*
X17000000D02*
D03*
X15500000D02*
D03*
D55*
X8754000Y6271000D02*
D03*
D56*
X10424000Y9873000D02*
D03*
X8100000D02*
D03*
D57*
X17329100Y5800000D02*
D03*
X19523100D02*
D03*
D58*
X15589996Y7710000D02*
D03*
X15737495Y7692500D02*
D03*
X7000000Y8250000D02*
D03*
Y8538376D02*
D03*
D59*
X20600000Y7900000D02*
D03*
D60*
X12954100Y5301000D02*
D03*
D61*
X2032100D02*
D03*
%TF.MD5,aeb0e7182ee72b2cbfeb8f02e5a00794*%
M02*
