999
FreeCAD v0.21 33668 +26 (Git)
  0
SECTION
  2
HEADER
  9
$ACADVER
  1
AC1014
  9
$ACADMAINTVER
 70
     9
  9
$DWGCODEPAGE
  3
ANSI_1252
  9
$TEXTSTYLE
  7
STANDARD
  9
$DIMSTYLE
  2
STANDARD
  9
$DIMTXSTY
  7
STANDARD
  9
$CMLSTYLE
  2
STANDARD
  9
$LUNITS
 70
2
  9
$INSUNITS
 70
4
  9
$PEXTMAX
 10
50
 20
50
 30
50
  9
$PEXTMIN
 10
0
 20
0
 30
0
  9
$HANDSEED
  5
FFFF
  0
ENDSEC
  0
SECTION
  2
CLASSES
  0
CLASS
  1
ACDBDICTIONARYWDFLT
  2
AcDbDictionaryWithDefault
  3
ObjectDBX Classes
 90
        0
280
     0
281
     0
  0
CLASS
  1
XRECORD
  2
AcDbXrecord
  3
ObjectDBX Classes
 90
        0
280
     0
281
     0
  0
CLASS
  1
LWPOLYLINE
  2
AcDbPolyline
  3
ObjectDBX Classes
 90
        0
280
     0
281
     1
  0
ENDSEC
  0
SECTION
  2
TABLES
  0
TABLE
  2
VPORT
  5
20
330
0
100
AcDbSymbolTable
 70
     1
  0
VPORT
  5
21
330
20
100
AcDbSymbolTableRecord
100
AcDbViewportTableRecord
  2
*ACTIVE
 70
     0
  0
ENDTAB
  0
TABLE
  2
LTYPE
  5
22
330
0
100
AcDbSymbolTable
 70
     1
  0
LTYPE
  5
23
330
21
100
AcDbSymbolTableRecord
100
AcDbLinetypeTableRecord
  2
BYBLOCK
 70
     0
  3

 72
    65
 73
     0
 40
0.0
  0
LTYPE
  5
24
330
21
100
AcDbSymbolTableRecord
100
AcDbLinetypeTableRecord
  2
BYLAYER
 70
     0
  3

 72
    65
 73
     0
 40
0.0
  0
LTYPE
  5
25
330
21
100
AcDbSymbolTableRecord
100
AcDbLinetypeTableRecord
  2
CONTINUOUS
 70
     0
  3
Solid line
 72
    65
 73
     0
 40
0.0
  0
ENDTAB
  0
TABLE
  2
LAYER
  5
A88
330
0
100
AcDbSymbolTable
 70
2
  0
LAYER
  5
A89
330
A88
100
AcDbSymbolTableRecord
100
AcDbLayerTableRecord
  2
0
 70
   0
 62
   7
  6
CONTINUOUS
  0
LAYER
  5
A8A
330
A88
100
AcDbSymbolTableRecord
100
AcDbLayerTableRecord
  2
View
 70
    0
 62
    7
  6
CONTINUOUS
  0
ENDTAB
  0
TABLE
  2
STYLE
  5
70
330
0
100
AcDbSymbolTable
 70
     2
  0
STYLE
  5
71
330
70
100
AcDbSymbolTableRecord
100
AcDbTextStyleTableRecord
  2
STANDARD
 70
     0
 40
0.0
 41
1.0
 50
0.0
 71
     0
 42
2.5
  3
arial.ttf
  4

  0
STYLE
  5
72
330
70
100
AcDbSymbolTableRecord
100
AcDbTextStyleTableRecord
  2
ANNOTATIVE
 70
     0
 40
0.0
 41
1.0
 50
0.0
 71
     0
 42
2.5
  3
arial.ttf
  4

  0
ENDTAB
  0
TABLE
  2
VIEW
  5
73
330
0
100
AcDbSymbolTable
 70
     0
  0
ENDTAB
  0
TABLE
  2
UCS
  5
74
330
0
100
AcDbSymbolTable
 70
     0
  0
ENDTAB
  0
TABLE
  2
APPID
  5
75
330
0
100
AcDbSymbolTable
 70
     2
  0
APPID
  5
76
330
75
100
AcDbSymbolTableRecord
100
AcDbRegAppTableRecord
  2
ACAD
 70
     0
  0
APPID
  5
77
330
75
100
AcDbSymbolTableRecord
100
AcDbRegAppTableRecord
  2
ACADANNOTATIVE
 70
     0
  0
ENDTAB
  0
TABLE
  2
DIMSTYLE
  5
78
330
0
100
AcDbSymbolTable
 70
     2
  0
DIMSTYLE
105
79
330
78
100
AcDbSymbolTableRecord
100
AcDbDimStyleTableRecord
  2
STANDARD
 70
     0
  3

  4

  5

  6

  7

 40
0.0
 41
2.5
 42
0.625
 43
3.75
 44
1.25
 45
0.0
 46
0.0
 47
0.0
 48
0.0
140
2.5
141
2.5
142
0.0
143
0.03937007874016
144
1.0
145
0.0
146
1.0
147
0.625
 71
     0
 72
     0
 73
     0
 74
     0
 75
     0
 76
     0
 77
     1
 78
     8
170
     0
171
     3
172
     1
173
     0
174
     0
175
     0
176
     0
177
     0
178
     0
270
     2
271
     2
272
     2
273
     2
274
     3
340
71
275
     0
280
     0
281
     0
282
     0
283
     0
284
     8
285
     0
286
     0
287
     3
288
     0
  0
ENDTAB
  0
TABLE
  2
BLOCK_RECORD
  5
A01
330
0
100
AcDbSymbolTable
  70
5
  0
BLOCK_RECORD
  5
A02
330
A01
100
AcDbSymbolTableRecord
100
AcDbBlockTableRecord
  2
*MODEL_SPACE
  0
BLOCK_RECORD
  5
A03
330
A01
100
AcDbSymbolTableRecord
100
AcDbBlockTableRecord
  2
*PAPER_SPACE
  0
ENDTAB
  0
ENDSEC
  0
SECTION
  2
BLOCKS
  0
BLOCK
  5
A04
330
A02
100
AcDbEntity
  8
0
100
AcDbBlockBegin
  2
*MODEL_SPACE
 70
   0
 10
0
 20
0
 30
0
  3
*MODEL_SPACE
  1
 
  0
ENDBLK
  5
A05
330
A02
100
AcDbEntity
  8
0
100
AcDbBlockEnd
  0
BLOCK
  5
A06
330
A03
100
AcDbEntity
 67
1
  8
0
100
AcDbBlockBegin
  2
*PAPER_SPACE
 70
   0
 10
0
 20
0
 30
0
  3
*PAPER_SPACE
  1
 
  0
ENDBLK
  5
A07
330
A03
100
AcDbEntity
 67
    1
  8
0
100
AcDbBlockEnd
  0
ENDSEC
  0
SECTION
  2
ENTITIES
  0
LINE
  5
A08
330
A02
100
AcDbEntity
  8
View
100
AcDbLine
 10
148.449
 20
163.25
 30
0
 11
35.4412
 21
163.247
 31
0
  0
LINE
  5
A09
330
A02
100
AcDbEntity
  8
View
100
AcDbLine
 10
148.449
 20
163.25
 30
0
 11
148.449
 21
161.7
 31
0
  0
LINE
  5
A0A
330
A02
100
AcDbEntity
  8
View
100
AcDbLine
 10
35.4412
 20
163.247
 30
0
 11
35.8952
 21
162.793
 31
0
  0
ARC
  5
A0B
330
A02
100
AcDbEntity
  8
View
100
AcDbCircle
 10
149.999
 20
161.7
 30
0
 40
1.55
100
AcDbArc
 50
-179.999
 51
0.00143239
  0
ARC
  5
A0C
330
A02
100
AcDbEntity
  8
View
100
AcDbCircle
 10
34.7992
 20
161.697
 30
0
 40
1.55
100
AcDbArc
 50
-134.999
 51
45.0014
  0
LINE
  5
A0D
330
A02
100
AcDbEntity
  8
View
100
AcDbLine
 10
151.549
 20
163.25
 30
0
 11
151.549
 21
161.7
 31
0
  0
LINE
  5
A0E
330
A02
100
AcDbEntity
  8
View
100
AcDbLine
 10
33.2492
 20
161.055
 30
0
 11
33.7032
 21
160.601
 31
0
  0
LINE
  5
A0F
330
A02
100
AcDbEntity
  8
View
100
AcDbLine
 10
151.549
 20
163.25
 30
0
 11
264.557
 21
163.253
 31
0
  0
LINE
  5
A10
330
A02
100
AcDbEntity
  8
View
100
AcDbLine
 10
33.2492
 20
161.055
 30
0
 11
33.2508
 21
98.9391
 31
0
  0
LINE
  5
A11
330
A02
100
AcDbEntity
  8
View
100
AcDbLine
 10
264.557
 20
163.253
 30
0
 11
264.103
 21
162.799
 31
0
  0
LINE
  5
A12
330
A02
100
AcDbEntity
  8
View
100
AcDbLine
 10
33.2508
 20
98.9391
 30
0
 11
33.7047
 21
99.3931
 31
0
  0
ARC
  5
A13
330
A02
100
AcDbEntity
  8
View
100
AcDbCircle
 10
265.199
 20
161.703
 30
0
 40
1.55
100
AcDbArc
 50
135.001
 51
-44.9986
  0
ARC
  5
A14
330
A02
100
AcDbEntity
  8
View
100
AcDbCircle
 10
34.8008
 20
98.2971
 30
0
 40
1.55
100
AcDbArc
 50
-44.9986
 51
135.001
  0
LINE
  5
A15
330
A02
100
AcDbEntity
  8
View
100
AcDbLine
 10
266.749
 20
161.061
 30
0
 11
266.295
 21
160.607
 31
0
  0
LINE
  5
A16
330
A02
100
AcDbEntity
  8
View
100
AcDbLine
 10
35.4429
 20
96.7471
 30
0
 11
35.8968
 21
97.2011
 31
0
  0
LINE
  5
A17
330
A02
100
AcDbEntity
  8
View
100
AcDbLine
 10
266.749
 20
161.061
 30
0
 11
266.751
 21
98.9449
 31
0
  0
LINE
  5
A18
330
A02
100
AcDbEntity
  8
View
100
AcDbLine
 10
35.4429
 20
96.7471
 30
0
 11
148.451
 21
96.75
 31
0
  0
LINE
  5
A19
330
A02
100
AcDbEntity
  8
View
100
AcDbLine
 10
266.751
 20
98.9449
 30
0
 11
266.297
 21
99.3989
 31
0
  0
LINE
  5
A1A
330
A02
100
AcDbEntity
  8
View
100
AcDbLine
 10
148.451
 20
96.75
 30
0
 11
148.451
 21
98.3
 31
0
  0
ARC
  5
A1B
330
A02
100
AcDbEntity
  8
View
100
AcDbCircle
 10
265.201
 20
98.3029
 30
0
 40
1.55
100
AcDbArc
 50
45.0014
 51
-134.999
  0
ARC
  5
A1C
330
A02
100
AcDbEntity
  8
View
100
AcDbCircle
 10
150.001
 20
98.3
 30
0
 40
1.55
100
AcDbArc
 50
0.00143239
 51
-179.999
  0
LINE
  5
A1D
330
A02
100
AcDbEntity
  8
View
100
AcDbLine
 10
264.559
 20
96.7529
 30
0
 11
264.105
 21
97.2068
 31
0
  0
LINE
  5
A1E
330
A02
100
AcDbEntity
  8
View
100
AcDbLine
 10
151.551
 20
96.75
 30
0
 11
151.551
 21
98.3
 31
0
  0
LINE
  5
A1F
330
A02
100
AcDbEntity
  8
View
100
AcDbLine
 10
151.551
 20
96.75
 30
0
 11
264.559
 21
96.7529
 31
0
  0
LINE
  5
A20
330
A02
100
AcDbEntity
  8
View
100
AcDbLine
 10
131.75
 20
135.3
 30
0
 11
131.75
 21
133.6
 31
0
  0
LINE
  5
A21
330
A02
100
AcDbEntity
  8
View
100
AcDbLine
 10
131.75
 20
133.6
 30
0
 11
129.1
 21
133.599
 31
0
  0
LINE
  5
A22
330
A02
100
AcDbEntity
  8
View
100
AcDbLine
 10
129.1
 20
133.599
 30
0
 11
129.1
 21
132.074
 31
0
  0
LINE
  5
A23
330
A02
100
AcDbEntity
  8
View
100
AcDbLine
 10
129.1
 20
132.074
 30
0
 11
127.25
 21
132.074
 31
0
  0
LINE
  5
A24
330
A02
100
AcDbEntity
  8
View
100
AcDbLine
 10
127.25
 20
132.074
 30
0
 11
127.25
 21
127.924
 31
0
  0
LINE
  5
A25
330
A02
100
AcDbEntity
  8
View
100
AcDbLine
 10
127.25
 20
127.924
 30
0
 11
129.1
 21
127.924
 31
0
  0
LINE
  5
A26
330
A02
100
AcDbEntity
  8
View
100
AcDbLine
 10
129.1
 20
127.924
 30
0
 11
129.1
 21
126.399
 31
0
  0
LINE
  5
A27
330
A02
100
AcDbEntity
  8
View
100
AcDbLine
 10
129.1
 20
126.399
 30
0
 11
136.4
 21
126.4
 31
0
  0
LINE
  5
A28
330
A02
100
AcDbEntity
  8
View
100
AcDbLine
 10
136.4
 20
127.925
 30
0
 11
136.4
 21
126.4
 31
0
  0
LINE
  5
A29
330
A02
100
AcDbEntity
  8
View
100
AcDbLine
 10
138.25
 20
127.925
 30
0
 11
136.4
 21
127.925
 31
0
  0
LINE
  5
A2A
330
A02
100
AcDbEntity
  8
View
100
AcDbLine
 10
138.25
 20
132.075
 30
0
 11
138.25
 21
127.925
 31
0
  0
LINE
  5
A2B
330
A02
100
AcDbEntity
  8
View
100
AcDbLine
 10
136.4
 20
132.075
 30
0
 11
138.25
 21
132.075
 31
0
  0
LINE
  5
A2C
330
A02
100
AcDbEntity
  8
View
100
AcDbLine
 10
136.4
 20
133.6
 30
0
 11
136.4
 21
132.075
 31
0
  0
LINE
  5
A2D
330
A02
100
AcDbEntity
  8
View
100
AcDbLine
 10
133.75
 20
133.6
 30
0
 11
136.4
 21
133.6
 31
0
  0
LINE
  5
A2E
330
A02
100
AcDbEntity
  8
View
100
AcDbLine
 10
133.75
 20
135.3
 30
0
 11
133.75
 21
133.6
 31
0
  0
LINE
  5
A2F
330
A02
100
AcDbEntity
  8
View
100
AcDbLine
 10
131.75
 20
135.3
 30
0
 11
133.75
 21
135.3
 31
0
  0
LINE
  5
A30
330
A02
100
AcDbEntity
  8
View
100
AcDbLine
 10
166.75
 20
135.3
 30
0
 11
166.75
 21
133.6
 31
0
  0
LINE
  5
A31
330
A02
100
AcDbEntity
  8
View
100
AcDbLine
 10
166.75
 20
133.6
 30
0
 11
164.1
 21
133.6
 31
0
  0
LINE
  5
A32
330
A02
100
AcDbEntity
  8
View
100
AcDbLine
 10
164.1
 20
133.6
 30
0
 11
164.1
 21
132.075
 31
0
  0
LINE
  5
A33
330
A02
100
AcDbEntity
  8
View
100
AcDbLine
 10
164.1
 20
132.075
 30
0
 11
162.25
 21
132.075
 31
0
  0
LINE
  5
A34
330
A02
100
AcDbEntity
  8
View
100
AcDbLine
 10
162.25
 20
132.075
 30
0
 11
162.25
 21
127.925
 31
0
  0
LINE
  5
A35
330
A02
100
AcDbEntity
  8
View
100
AcDbLine
 10
162.25
 20
127.925
 30
0
 11
164.1
 21
127.925
 31
0
  0
LINE
  5
A36
330
A02
100
AcDbEntity
  8
View
100
AcDbLine
 10
164.1
 20
127.925
 30
0
 11
164.1
 21
126.4
 31
0
  0
LINE
  5
A37
330
A02
100
AcDbEntity
  8
View
100
AcDbLine
 10
164.1
 20
126.4
 30
0
 11
171.4
 21
126.401
 31
0
  0
LINE
  5
A38
330
A02
100
AcDbEntity
  8
View
100
AcDbLine
 10
171.4
 20
127.926
 30
0
 11
171.4
 21
126.401
 31
0
  0
LINE
  5
A39
330
A02
100
AcDbEntity
  8
View
100
AcDbLine
 10
173.25
 20
127.926
 30
0
 11
171.4
 21
127.926
 31
0
  0
LINE
  5
A3A
330
A02
100
AcDbEntity
  8
View
100
AcDbLine
 10
173.25
 20
132.076
 30
0
 11
173.25
 21
127.926
 31
0
  0
LINE
  5
A3B
330
A02
100
AcDbEntity
  8
View
100
AcDbLine
 10
171.4
 20
132.076
 30
0
 11
173.25
 21
132.076
 31
0
  0
LINE
  5
A3C
330
A02
100
AcDbEntity
  8
View
100
AcDbLine
 10
171.4
 20
133.601
 30
0
 11
171.4
 21
132.076
 31
0
  0
LINE
  5
A3D
330
A02
100
AcDbEntity
  8
View
100
AcDbLine
 10
168.75
 20
133.6
 30
0
 11
171.4
 21
133.601
 31
0
  0
LINE
  5
A3E
330
A02
100
AcDbEntity
  8
View
100
AcDbLine
 10
168.75
 20
135.3
 30
0
 11
168.75
 21
133.6
 31
0
  0
LINE
  5
A3F
330
A02
100
AcDbEntity
  8
View
100
AcDbLine
 10
166.75
 20
135.3
 30
0
 11
168.75
 21
135.3
 31
0
  0
LINE
  5
A40
330
A02
100
AcDbEntity
  8
View
100
AcDbLine
 10
148.449
 20
163.25
 30
0
 11
35.4412
 21
163.247
 31
0
  0
LINE
  5
A41
330
A02
100
AcDbEntity
  8
View
100
AcDbLine
 10
148.449
 20
163.25
 30
0
 11
148.449
 21
161.7
 31
0
  0
LINE
  5
A42
330
A02
100
AcDbEntity
  8
View
100
AcDbLine
 10
35.4412
 20
163.247
 30
0
 11
35.8952
 21
162.793
 31
0
  0
ARC
  5
A43
330
A02
100
AcDbEntity
  8
View
100
AcDbCircle
 10
149.999
 20
161.7
 30
0
 40
1.55
100
AcDbArc
 50
-179.999
 51
0.00143239
  0
ARC
  5
A44
330
A02
100
AcDbEntity
  8
View
100
AcDbCircle
 10
34.7992
 20
161.697
 30
0
 40
1.55
100
AcDbArc
 50
-134.999
 51
45.0014
  0
LINE
  5
A45
330
A02
100
AcDbEntity
  8
View
100
AcDbLine
 10
151.549
 20
163.25
 30
0
 11
151.549
 21
161.7
 31
0
  0
LINE
  5
A46
330
A02
100
AcDbEntity
  8
View
100
AcDbLine
 10
33.2492
 20
161.055
 30
0
 11
33.7032
 21
160.601
 31
0
  0
LINE
  5
A47
330
A02
100
AcDbEntity
  8
View
100
AcDbLine
 10
151.549
 20
163.25
 30
0
 11
264.557
 21
163.253
 31
0
  0
LINE
  5
A48
330
A02
100
AcDbEntity
  8
View
100
AcDbLine
 10
33.2492
 20
161.055
 30
0
 11
33.2508
 21
98.9391
 31
0
  0
LINE
  5
A49
330
A02
100
AcDbEntity
  8
View
100
AcDbLine
 10
264.557
 20
163.253
 30
0
 11
264.103
 21
162.799
 31
0
  0
LINE
  5
A4A
330
A02
100
AcDbEntity
  8
View
100
AcDbLine
 10
33.2508
 20
98.9391
 30
0
 11
33.7047
 21
99.3931
 31
0
  0
ARC
  5
A4B
330
A02
100
AcDbEntity
  8
View
100
AcDbCircle
 10
265.199
 20
161.703
 30
0
 40
1.55
100
AcDbArc
 50
135.001
 51
-44.9986
  0
ARC
  5
A4C
330
A02
100
AcDbEntity
  8
View
100
AcDbCircle
 10
34.8008
 20
98.2971
 30
0
 40
1.55
100
AcDbArc
 50
-44.9986
 51
135.001
  0
LINE
  5
A4D
330
A02
100
AcDbEntity
  8
View
100
AcDbLine
 10
266.749
 20
161.061
 30
0
 11
266.295
 21
160.607
 31
0
  0
LINE
  5
A4E
330
A02
100
AcDbEntity
  8
View
100
AcDbLine
 10
35.4429
 20
96.7471
 30
0
 11
35.8968
 21
97.2011
 31
0
  0
LINE
  5
A4F
330
A02
100
AcDbEntity
  8
View
100
AcDbLine
 10
266.749
 20
161.061
 30
0
 11
266.751
 21
98.9449
 31
0
  0
LINE
  5
A50
330
A02
100
AcDbEntity
  8
View
100
AcDbLine
 10
35.4429
 20
96.7471
 30
0
 11
148.451
 21
96.75
 31
0
  0
LINE
  5
A51
330
A02
100
AcDbEntity
  8
View
100
AcDbLine
 10
266.751
 20
98.9449
 30
0
 11
266.297
 21
99.3989
 31
0
  0
LINE
  5
A52
330
A02
100
AcDbEntity
  8
View
100
AcDbLine
 10
148.451
 20
96.75
 30
0
 11
148.451
 21
98.3
 31
0
  0
ARC
  5
A53
330
A02
100
AcDbEntity
  8
View
100
AcDbCircle
 10
265.201
 20
98.3029
 30
0
 40
1.55
100
AcDbArc
 50
45.0014
 51
-134.999
  0
ARC
  5
A54
330
A02
100
AcDbEntity
  8
View
100
AcDbCircle
 10
150.001
 20
98.3
 30
0
 40
1.55
100
AcDbArc
 50
0.00143239
 51
-179.999
  0
LINE
  5
A55
330
A02
100
AcDbEntity
  8
View
100
AcDbLine
 10
264.559
 20
96.7529
 30
0
 11
264.105
 21
97.2068
 31
0
  0
LINE
  5
A56
330
A02
100
AcDbEntity
  8
View
100
AcDbLine
 10
151.551
 20
96.75
 30
0
 11
151.551
 21
98.3
 31
0
  0
LINE
  5
A57
330
A02
100
AcDbEntity
  8
View
100
AcDbLine
 10
151.551
 20
96.75
 30
0
 11
264.559
 21
96.7529
 31
0
  0
LINE
  5
A58
330
A02
100
AcDbEntity
  8
View
100
AcDbLine
 10
125.25
 20
122.499
 30
0
 11
125.25
 21
137.499
 31
0
  0
LINE
  5
A59
330
A02
100
AcDbEntity
  8
View
100
AcDbLine
 10
140.25
 20
122.5
 30
0
 11
125.25
 21
122.499
 31
0
  0
LINE
  5
A5A
330
A02
100
AcDbEntity
  8
View
100
AcDbLine
 10
140.25
 20
137.5
 30
0
 11
140.25
 21
122.5
 31
0
  0
LINE
  5
A5B
330
A02
100
AcDbEntity
  8
View
100
AcDbLine
 10
125.25
 20
137.499
 30
0
 11
140.25
 21
137.5
 31
0
  0
LINE
  5
A5C
330
A02
100
AcDbEntity
  8
View
100
AcDbLine
 10
160.25
 20
122.5
 30
0
 11
160.25
 21
137.5
 31
0
  0
LINE
  5
A5D
330
A02
100
AcDbEntity
  8
View
100
AcDbLine
 10
175.25
 20
122.501
 30
0
 11
160.25
 21
122.5
 31
0
  0
LINE
  5
A5E
330
A02
100
AcDbEntity
  8
View
100
AcDbLine
 10
175.25
 20
137.501
 30
0
 11
175.25
 21
122.501
 31
0
  0
LINE
  5
A5F
330
A02
100
AcDbEntity
  8
View
100
AcDbLine
 10
160.25
 20
137.5
 30
0
 11
175.25
 21
137.501
 31
0
  0
LINE
  5
A60
330
A02
100
AcDbEntity
  8
View
100
AcDbLine
 10
125.25
 20
122.499
 30
0
 11
125.25
 21
137.499
 31
0
  0
LINE
  5
A61
330
A02
100
AcDbEntity
  8
View
100
AcDbLine
 10
140.25
 20
122.5
 30
0
 11
125.25
 21
122.499
 31
0
  0
LINE
  5
A62
330
A02
100
AcDbEntity
  8
View
100
AcDbLine
 10
140.25
 20
137.5
 30
0
 11
140.25
 21
122.5
 31
0
  0
LINE
  5
A63
330
A02
100
AcDbEntity
  8
View
100
AcDbLine
 10
125.25
 20
137.499
 30
0
 11
140.25
 21
137.5
 31
0
  0
LINE
  5
A64
330
A02
100
AcDbEntity
  8
View
100
AcDbLine
 10
160.25
 20
122.5
 30
0
 11
160.25
 21
137.5
 31
0
  0
LINE
  5
A65
330
A02
100
AcDbEntity
  8
View
100
AcDbLine
 10
175.25
 20
122.501
 30
0
 11
160.25
 21
122.5
 31
0
  0
LINE
  5
A66
330
A02
100
AcDbEntity
  8
View
100
AcDbLine
 10
175.25
 20
137.501
 30
0
 11
175.25
 21
122.501
 31
0
  0
LINE
  5
A67
330
A02
100
AcDbEntity
  8
View
100
AcDbLine
 10
160.25
 20
137.5
 30
0
 11
175.25
 21
137.501
 31
0
  0
LINE
  5
A68
330
A02
100
AcDbEntity
  8
View
100
AcDbLine
 10
131.75
 20
133.6
 30
0
 11
131.75
 21
135.3
 31
0
  0
LINE
  5
A69
330
A02
100
AcDbEntity
  8
View
100
AcDbLine
 10
129.1
 20
133.599
 30
0
 11
131.75
 21
133.6
 31
0
  0
LINE
  5
A6A
330
A02
100
AcDbEntity
  8
View
100
AcDbLine
 10
129.1
 20
132.074
 30
0
 11
129.1
 21
133.599
 31
0
  0
LINE
  5
A6B
330
A02
100
AcDbEntity
  8
View
100
AcDbLine
 10
127.25
 20
132.074
 30
0
 11
129.1
 21
132.074
 31
0
  0
LINE
  5
A6C
330
A02
100
AcDbEntity
  8
View
100
AcDbLine
 10
127.25
 20
127.924
 30
0
 11
127.25
 21
132.074
 31
0
  0
LINE
  5
A6D
330
A02
100
AcDbEntity
  8
View
100
AcDbLine
 10
129.1
 20
127.924
 30
0
 11
127.25
 21
127.924
 31
0
  0
LINE
  5
A6E
330
A02
100
AcDbEntity
  8
View
100
AcDbLine
 10
129.1
 20
126.399
 30
0
 11
129.1
 21
127.924
 31
0
  0
LINE
  5
A6F
330
A02
100
AcDbEntity
  8
View
100
AcDbLine
 10
136.4
 20
126.4
 30
0
 11
129.1
 21
126.399
 31
0
  0
LINE
  5
A70
330
A02
100
AcDbEntity
  8
View
100
AcDbLine
 10
136.4
 20
126.4
 30
0
 11
136.4
 21
127.925
 31
0
  0
LINE
  5
A71
330
A02
100
AcDbEntity
  8
View
100
AcDbLine
 10
136.4
 20
127.925
 30
0
 11
138.25
 21
127.925
 31
0
  0
LINE
  5
A72
330
A02
100
AcDbEntity
  8
View
100
AcDbLine
 10
138.25
 20
127.925
 30
0
 11
138.25
 21
132.075
 31
0
  0
LINE
  5
A73
330
A02
100
AcDbEntity
  8
View
100
AcDbLine
 10
138.25
 20
132.075
 30
0
 11
136.4
 21
132.075
 31
0
  0
LINE
  5
A74
330
A02
100
AcDbEntity
  8
View
100
AcDbLine
 10
136.4
 20
132.075
 30
0
 11
136.4
 21
133.6
 31
0
  0
LINE
  5
A75
330
A02
100
AcDbEntity
  8
View
100
AcDbLine
 10
136.4
 20
133.6
 30
0
 11
133.75
 21
133.6
 31
0
  0
LINE
  5
A76
330
A02
100
AcDbEntity
  8
View
100
AcDbLine
 10
133.75
 20
133.6
 30
0
 11
133.75
 21
135.3
 31
0
  0
LINE
  5
A77
330
A02
100
AcDbEntity
  8
View
100
AcDbLine
 10
133.75
 20
135.3
 30
0
 11
131.75
 21
135.3
 31
0
  0
LINE
  5
A78
330
A02
100
AcDbEntity
  8
View
100
AcDbLine
 10
166.75
 20
133.6
 30
0
 11
166.75
 21
135.3
 31
0
  0
LINE
  5
A79
330
A02
100
AcDbEntity
  8
View
100
AcDbLine
 10
164.1
 20
133.6
 30
0
 11
166.75
 21
133.6
 31
0
  0
LINE
  5
A7A
330
A02
100
AcDbEntity
  8
View
100
AcDbLine
 10
164.1
 20
132.075
 30
0
 11
164.1
 21
133.6
 31
0
  0
LINE
  5
A7B
330
A02
100
AcDbEntity
  8
View
100
AcDbLine
 10
162.25
 20
132.075
 30
0
 11
164.1
 21
132.075
 31
0
  0
LINE
  5
A7C
330
A02
100
AcDbEntity
  8
View
100
AcDbLine
 10
162.25
 20
127.925
 30
0
 11
162.25
 21
132.075
 31
0
  0
LINE
  5
A7D
330
A02
100
AcDbEntity
  8
View
100
AcDbLine
 10
164.1
 20
127.925
 30
0
 11
162.25
 21
127.925
 31
0
  0
LINE
  5
A7E
330
A02
100
AcDbEntity
  8
View
100
AcDbLine
 10
164.1
 20
126.4
 30
0
 11
164.1
 21
127.925
 31
0
  0
LINE
  5
A7F
330
A02
100
AcDbEntity
  8
View
100
AcDbLine
 10
171.4
 20
126.401
 30
0
 11
164.1
 21
126.4
 31
0
  0
LINE
  5
A80
330
A02
100
AcDbEntity
  8
View
100
AcDbLine
 10
171.4
 20
126.401
 30
0
 11
171.4
 21
127.926
 31
0
  0
LINE
  5
A81
330
A02
100
AcDbEntity
  8
View
100
AcDbLine
 10
171.4
 20
127.926
 30
0
 11
173.25
 21
127.926
 31
0
  0
LINE
  5
A82
330
A02
100
AcDbEntity
  8
View
100
AcDbLine
 10
173.25
 20
127.926
 30
0
 11
173.25
 21
132.076
 31
0
  0
LINE
  5
A83
330
A02
100
AcDbEntity
  8
View
100
AcDbLine
 10
173.25
 20
132.076
 30
0
 11
171.4
 21
132.076
 31
0
  0
LINE
  5
A84
330
A02
100
AcDbEntity
  8
View
100
AcDbLine
 10
171.4
 20
132.076
 30
0
 11
171.4
 21
133.601
 31
0
  0
LINE
  5
A85
330
A02
100
AcDbEntity
  8
View
100
AcDbLine
 10
171.4
 20
133.601
 30
0
 11
168.75
 21
133.6
 31
0
  0
LINE
  5
A86
330
A02
100
AcDbEntity
  8
View
100
AcDbLine
 10
168.75
 20
133.6
 30
0
 11
168.75
 21
135.3
 31
0
  0
LINE
  5
A87
330
A02
100
AcDbEntity
  8
View
100
AcDbLine
 10
168.75
 20
135.3
 30
0
 11
166.75
 21
135.3
 31
0
  0
ENDSEC
  0
SECTION
  2
OBJECTS
  0
DICTIONARY
  5
F000
330
0
100
AcDbDictionary
  3
ACAD_GROUP
350
F001
  0
DICTIONARY
  5
F001
330
F000
100
AcDbDictionary
  0
ENDSEC
  0
EOF