%TF.GenerationSoftware,Altium Limited,Altium Designer,25.8.1 (18)*%
G04 Layer_Physical_Order=1*
G04 Layer_Color=255*
%FSLAX45Y45*%
%MOMM*%
%TF.SameCoordinates,54162AFE-A5A8-4166-B9B9-F60AE772EB98*%
%TF.FilePolarity,Positive*%
%TF.FileFunction,Copper,L1,Top,Signal*%
%TF.Part,Single*%
G01*
G75*
%TA.AperFunction,SMDPad,CuDef*%
%ADD10R,2.45000X2.85000*%
%TA.AperFunction,Conductor*%
%ADD11C,0.50000*%
%ADD12C,2.00000*%
%ADD13C,1.00000*%
%TA.AperFunction,ComponentPad*%
%ADD14C,1.80000*%
G04:AMPARAMS|DCode=15|XSize=1.8mm|YSize=1.8mm|CornerRadius=0.45mm|HoleSize=0mm|Usage=FLASHONLY|Rotation=0.000|XOffset=0mm|YOffset=0mm|HoleType=Round|Shape=RoundedRectangle|*
%AMROUNDEDRECTD15*
21,1,1.80000,0.90000,0,0,0.0*
21,1,0.90000,1.80000,0,0,0.0*
1,1,0.90000,0.45000,-0.45000*
1,1,0.90000,-0.45000,-0.45000*
1,1,0.90000,-0.45000,0.45000*
1,1,0.90000,0.45000,0.45000*
%
%ADD15ROUNDEDRECTD15*%
%ADD16C,3.30000*%
%ADD17R,1.60000X1.60000*%
%ADD18C,1.60000*%
G04:AMPARAMS|DCode=19|XSize=1.7mm|YSize=1.7mm|CornerRadius=0.425mm|HoleSize=0mm|Usage=FLASHONLY|Rotation=270.000|XOffset=0mm|YOffset=0mm|HoleType=Round|Shape=RoundedRectangle|*
%AMROUNDEDRECTD19*
21,1,1.70000,0.85000,0,0,270.0*
21,1,0.85000,1.70000,0,0,270.0*
1,1,0.85000,-0.42500,-0.42500*
1,1,0.85000,-0.42500,0.42500*
1,1,0.85000,0.42500,0.42500*
1,1,0.85000,0.42500,-0.42500*
%
%ADD19ROUNDEDRECTD19*%
%ADD20C,1.70000*%
G04:AMPARAMS|DCode=21|XSize=1.8mm|YSize=1.8mm|CornerRadius=0.45mm|HoleSize=0mm|Usage=FLASHONLY|Rotation=90.000|XOffset=0mm|YOffset=0mm|HoleType=Round|Shape=RoundedRectangle|*
%AMROUNDEDRECTD21*
21,1,1.80000,0.90000,0,0,90.0*
21,1,0.90000,1.80000,0,0,90.0*
1,1,0.90000,0.45000,0.45000*
1,1,0.90000,0.45000,-0.45000*
1,1,0.90000,-0.45000,-0.45000*
1,1,0.90000,-0.45000,0.45000*
%
%ADD21ROUNDEDRECTD21*%
G04:AMPARAMS|DCode=22|XSize=3.2mm|YSize=2.2mm|CornerRadius=0.55mm|HoleSize=0mm|Usage=FLASHONLY|Rotation=270.000|XOffset=0mm|YOffset=0mm|HoleType=Round|Shape=RoundedRectangle|*
%AMROUNDEDRECTD22*
21,1,3.20000,1.10000,0,0,270.0*
21,1,2.10000,2.20000,0,0,270.0*
1,1,1.10000,-0.55000,-1.05000*
1,1,1.10000,-0.55000,1.05000*
1,1,1.10000,0.55000,1.05000*
1,1,1.10000,0.55000,-1.05000*
%
%ADD22ROUNDEDRECTD22*%
G04:AMPARAMS|DCode=23|XSize=3.2mm|YSize=2.2mm|CornerRadius=0.55mm|HoleSize=0mm|Usage=FLASHONLY|Rotation=180.000|XOffset=0mm|YOffset=0mm|HoleType=Round|Shape=RoundedRectangle|*
%AMROUNDEDRECTD23*
21,1,3.20000,1.10000,0,0,180.0*
21,1,2.10000,2.20000,0,0,180.0*
1,1,1.10000,-1.05000,0.55000*
1,1,1.10000,1.05000,0.55000*
1,1,1.10000,1.05000,-0.55000*
1,1,1.10000,-1.05000,-0.55000*
%
%ADD23ROUNDEDRECTD23*%
%ADD24R,3.00000X3.00000*%
%ADD25C,3.00000*%
%ADD26R,3.00000X3.00000*%
%ADD27R,1.90000X1.90000*%
%ADD28C,1.90000*%
%TA.AperFunction,ViaPad*%
%ADD29C,1.00000*%
%ADD30C,1.50000*%
%ADD31C,2.00000*%
%ADD32C,6.40000*%
%ADD33C,6.20000*%
D10*
X16529100Y5796000D02*
D03*
Y5301000D02*
D03*
X19323100Y5796000D02*
D03*
Y5301000D02*
D03*
D11*
X15300000Y5217500D02*
Y7606771D01*
Y5217500D02*
X17533539Y2983961D01*
X17715039D01*
X14787500Y4940000D02*
Y7842500D01*
X16107500Y3080000D02*
Y3620000D01*
X14787500Y4940000D02*
X16107500Y3620000D01*
X16799600Y8305000D02*
X16804601Y8300000D01*
X15300000Y7606771D02*
X15998228Y8305000D01*
X16799600D01*
X17715039Y2983961D02*
X17738000Y2961000D01*
X14969600Y8300000D02*
X14989999Y8279600D01*
Y8045000D02*
Y8279600D01*
X14787500Y7842500D02*
X14989999Y8045000D01*
X16107500Y3080000D02*
X16200000Y2987500D01*
X16232500D01*
X16073950Y7435000D02*
X18162146D01*
X15827499Y7188550D02*
X16073950Y7435000D01*
X18162146D02*
X19281145Y8554000D01*
X18477890Y7290000D02*
X19430000Y8242110D01*
X18364600Y7360000D02*
X19304601Y8300000D01*
X18505885Y7219000D02*
X19558600Y8271715D01*
X16777090Y7219000D02*
X18505885D01*
X15897501Y7159555D02*
X16097945Y7360000D01*
X15967500Y7130560D02*
X16126939Y7290000D01*
X18477890D01*
X16129089Y6571000D02*
X16777090Y7219000D01*
X16097945Y7360000D02*
X18364600D01*
X15967500Y6478590D02*
Y7130560D01*
X15827499Y5997736D02*
Y7188550D01*
Y5997736D02*
X16002455Y5822781D01*
X15967500Y6478590D02*
X16129089Y6317000D01*
X15897501Y6294590D02*
X16129089Y6063000D01*
X15897501Y6294590D02*
Y7159555D01*
X19664552Y8532952D02*
X19685600Y8554000D01*
X19430000Y8355000D02*
X19607951Y8532952D01*
X19664552D01*
X19430000Y8242110D02*
Y8355000D01*
X19558600Y8271715D02*
Y8300000D01*
X16115309Y5822781D02*
X16129089Y5809000D01*
X19281145Y8554000D02*
X19431599D01*
X16002455Y5822781D02*
X16115309D01*
X18767500Y7215000D02*
X19772949Y8220449D01*
X18767500Y6218590D02*
X18923090Y6063000D01*
X18767500Y6218590D02*
Y7215000D01*
X18675000Y7221495D02*
X19685001Y8231495D01*
X18675000Y6057090D02*
Y7221495D01*
Y6057090D02*
X18923090Y5809000D01*
X19772949Y8230582D02*
X19812601Y8270234D01*
X19772949Y8220449D02*
Y8230582D01*
X19812601Y8270234D02*
Y8300000D01*
X19685001Y8231495D02*
Y8362500D01*
X19853539Y8531039D01*
X19916640D02*
X19939600Y8554000D01*
X19853539Y8531039D02*
X19916640D01*
X10945000Y6412500D02*
Y8590000D01*
X10875000Y6442500D02*
Y8406000D01*
X10424000Y9111000D02*
X10945000Y8590000D01*
X10424000Y8857000D02*
X10875000Y8406000D01*
X7497500Y6772500D02*
X8270000Y6000000D01*
X10532500D01*
X10945000Y6412500D01*
X10532500Y6100000D02*
X10875000Y6442500D01*
X8312500Y6100000D02*
X10532500D01*
X7642500Y6770000D02*
X8312500Y6100000D01*
X7000000Y8538376D02*
X7642500Y7895876D01*
X7000000Y8250000D02*
X7497500Y7752500D01*
X7642500Y6770000D02*
Y7895876D01*
X7497500Y6772500D02*
Y7752500D01*
X18923090Y6317000D02*
X20193600Y7587510D01*
Y8554000D01*
X18923090Y6571000D02*
X20066600Y7714510D01*
Y8300000D01*
D12*
X8607090Y2790000D02*
X8690000D01*
X7510000D02*
X8607090D01*
X9750090D02*
X9770000D01*
X8690000D02*
X9750090D01*
X7464090D02*
X7510000D01*
X9770000D02*
X11917090D01*
X6321090D02*
X7464090D01*
X16820100Y5010000D02*
X19614101D01*
X16551601Y5258500D02*
X16571600D01*
X16529100Y5281000D02*
X16551601Y5258500D01*
X16571600D02*
X16820100Y5010000D01*
X14575000Y9860000D02*
X20210001D01*
X10600000Y5700000D02*
X11250000Y6350000D01*
X7983090Y5700000D02*
X10600000D01*
X11250000Y6350000D02*
Y8295910D01*
X4064090Y9619000D02*
X7983090Y5700000D01*
X20600000Y7900000D02*
X20620000Y7920000D01*
X20210001Y9860000D02*
X20620000Y9450000D01*
Y7920000D02*
Y9450000D01*
X12864090Y9860000D02*
X14575000D01*
X11861090Y8857000D02*
X12864090Y9860000D01*
X11250000Y8295910D02*
X11751090Y8797000D01*
X3655090Y9210000D02*
X4064090Y9619000D01*
X1425000Y9210000D02*
X3655090D01*
X1016000Y9619000D02*
X1425000Y9210000D01*
X11751090Y8797000D02*
Y8847000D01*
X11761090Y8857000D01*
X9144090Y3396000D02*
X9750090Y2790000D01*
X8001090Y3396000D02*
X8607090Y2790000D01*
X6858090Y3396000D02*
X7464090Y2790000D01*
X12777090Y3650000D02*
X12827090D01*
X11917090Y2790000D02*
X12777090Y3650000D01*
X5715090Y3396000D02*
X6321090Y2790000D01*
X19365601Y5258500D02*
X19614101Y5010000D01*
X21091933D01*
X21209090Y5127157D02*
Y7968000D01*
X21091933Y5010000D02*
X21209090Y5127157D01*
X19323100Y5281000D02*
X19345599Y5258500D01*
X19365601D01*
X21209090Y7968000D02*
Y8730000D01*
X21717090Y9238000D01*
D13*
X17512000Y2735000D02*
X17738000Y2961000D01*
X14380000Y2735000D02*
X17512000D01*
X12874384Y3650000D02*
X13464999D01*
X14380000Y2735000D01*
X18923090Y5301000D02*
X19303101D01*
X16529100Y5796000D02*
Y6100000D01*
Y5776000D02*
Y5796000D01*
X14575000Y8694600D02*
Y9860000D01*
Y8694600D02*
X14969600Y8300000D01*
X12874384Y3650000D02*
X12934003Y3709619D01*
X12827090Y3650000D02*
X12874384D01*
X11811090Y8857000D02*
X11861090D01*
X10024000Y7587000D02*
X10424000D01*
X11000000Y9050000D02*
Y9550000D01*
Y9050000D02*
X11193000Y8857000D01*
X11761090D01*
X10677000Y9873000D02*
X11000000Y9550000D01*
X10424000Y9873000D02*
X10677000D01*
X8100000D02*
X8500000D01*
X10024000D02*
X10424000D01*
X10024000Y9619000D02*
X10424000D01*
X10024000Y9365000D02*
X10424000D01*
X10024000Y9111000D02*
X10424000D01*
X10024000Y8857000D02*
X10424000D01*
X10024000Y8603000D02*
X10424000D01*
X10024000Y8349000D02*
X10424000D01*
X10024000Y8095000D02*
X10424000D01*
X10024000Y7841000D02*
X10424000D01*
X10024000Y7333000D02*
X10424000D01*
X9262000Y6271000D02*
Y6571000D01*
X10024000Y7079000D02*
X10424000D01*
X10024000Y6825000D02*
X10424000D01*
X10024000Y6571000D02*
X10424000D01*
X9770000Y6271000D02*
Y6571000D01*
X9516000Y6271000D02*
Y6571000D01*
X9008000Y6271000D02*
Y6571000D01*
X8754000Y6271000D02*
Y6571000D01*
X8100000D02*
X8500000D01*
X8100000Y6825000D02*
X8500000D01*
X8100000Y7079000D02*
X8500000D01*
X8100000Y7333000D02*
X8500000D01*
X8100000Y7587000D02*
X8500000D01*
X8100000Y7841000D02*
X8500000D01*
X8100000Y8095000D02*
X8500000D01*
X8100000Y8349000D02*
X8500000D01*
X8100000Y8603000D02*
X8500000D01*
X8100000Y8857000D02*
X8500000D01*
X8100000Y9111000D02*
X8500000D01*
X8100000Y9365000D02*
X8500000D01*
X8100000Y9619000D02*
X8500000D01*
X19323100Y5776000D02*
Y6100000D01*
X18923090Y5555000D02*
X19102100D01*
X19323100Y5776000D01*
X16509100Y5301000D02*
X16529100Y5281000D01*
X16129089Y5301000D02*
X16509100D01*
X19303101D02*
X19323100Y5281000D01*
X20600000Y6977910D02*
Y7900000D01*
X20193089Y6571000D02*
X20600000Y6977910D01*
X16303101Y5550000D02*
X16529100Y5776000D01*
X16134090Y5550000D02*
X16303101D01*
X16129089Y5555000D02*
X16134090Y5550000D01*
D14*
X10424000Y9111000D02*
D03*
Y9365000D02*
D03*
Y9619000D02*
D03*
Y8095000D02*
D03*
Y8349000D02*
D03*
Y8603000D02*
D03*
Y8857000D02*
D03*
Y7079000D02*
D03*
Y7333000D02*
D03*
Y7587000D02*
D03*
Y7841000D02*
D03*
Y6571000D02*
D03*
Y6825000D02*
D03*
X8100000D02*
D03*
Y6571000D02*
D03*
Y7841000D02*
D03*
Y7587000D02*
D03*
Y7333000D02*
D03*
Y7079000D02*
D03*
Y8857000D02*
D03*
Y8603000D02*
D03*
Y8349000D02*
D03*
Y8095000D02*
D03*
Y9619000D02*
D03*
Y9365000D02*
D03*
Y9111000D02*
D03*
X9770000Y6271000D02*
D03*
X9008000D02*
D03*
X9262000D02*
D03*
X9516000D02*
D03*
X8500000Y9873000D02*
D03*
Y9619000D02*
D03*
Y9365000D02*
D03*
Y9111000D02*
D03*
Y8857000D02*
D03*
Y8603000D02*
D03*
Y8349000D02*
D03*
Y8095000D02*
D03*
Y7841000D02*
D03*
Y7587000D02*
D03*
Y7333000D02*
D03*
Y7079000D02*
D03*
Y6825000D02*
D03*
Y6571000D02*
D03*
X8754000D02*
D03*
X9008000D02*
D03*
X9262000D02*
D03*
X9516000D02*
D03*
X9770000D02*
D03*
X10024000D02*
D03*
Y6825000D02*
D03*
Y7079000D02*
D03*
Y7333000D02*
D03*
Y7587000D02*
D03*
Y7841000D02*
D03*
Y8095000D02*
D03*
Y8349000D02*
D03*
Y8603000D02*
D03*
Y8857000D02*
D03*
Y9111000D02*
D03*
Y9365000D02*
D03*
Y9619000D02*
D03*
Y9873000D02*
D03*
X9770000Y9619000D02*
D03*
Y9111000D02*
D03*
Y8857000D02*
D03*
Y8603000D02*
D03*
D15*
X10424000Y9873000D02*
D03*
X8100000D02*
D03*
D16*
X15985600Y9189000D02*
D03*
X14842599D02*
D03*
X16677600Y9189000D02*
D03*
X17820599D02*
D03*
X13007600D02*
D03*
X14150600D02*
D03*
X19177600Y9189000D02*
D03*
X20320599D02*
D03*
D17*
X15858600Y8554000D02*
D03*
X17693600Y8554000D02*
D03*
X14023599D02*
D03*
X20193600Y8554000D02*
D03*
D18*
X15604601D02*
D03*
X15350600D02*
D03*
X15096600D02*
D03*
X15731599Y8300000D02*
D03*
X15477600D02*
D03*
X15223599D02*
D03*
X14969600D02*
D03*
X16804601Y8300000D02*
D03*
X17058600D02*
D03*
X17312601D02*
D03*
X17566600D02*
D03*
X16931599Y8554000D02*
D03*
X17185600D02*
D03*
X17439600D02*
D03*
X13134599Y8300000D02*
D03*
X13388600D02*
D03*
X13642599D02*
D03*
X13896600D02*
D03*
X13261600Y8554000D02*
D03*
X13515601D02*
D03*
X13769600D02*
D03*
X19304601Y8300000D02*
D03*
X19558600D02*
D03*
X19812601D02*
D03*
X20066600D02*
D03*
X19431599Y8554000D02*
D03*
X19685600D02*
D03*
X19939600D02*
D03*
D19*
X18500000Y3215000D02*
D03*
X17000000D02*
D03*
X15500000D02*
D03*
D20*
X18246001D02*
D03*
X18500000Y2961000D02*
D03*
X18246001D02*
D03*
X17992000Y3215000D02*
D03*
Y2961000D02*
D03*
X17738000Y3215000D02*
D03*
Y2961000D02*
D03*
X16238000D02*
D03*
Y3215000D02*
D03*
X16492000Y2961000D02*
D03*
Y3215000D02*
D03*
X16746001Y2961000D02*
D03*
X17000000D02*
D03*
X16746001Y3215000D02*
D03*
X14738000Y2961000D02*
D03*
Y3215000D02*
D03*
X14992000Y2961000D02*
D03*
Y3215000D02*
D03*
X15246001Y2961000D02*
D03*
X15500000D02*
D03*
X15246001Y3215000D02*
D03*
D21*
X8754000Y6271000D02*
D03*
D22*
X11341090Y9157000D02*
D03*
X21809090Y7968000D02*
D03*
X21209090D02*
D03*
X13297090Y3350000D02*
D03*
D23*
X11811090Y9457000D02*
D03*
Y8857000D02*
D03*
X21509090Y8438000D02*
D03*
X12827090Y3050000D02*
D03*
Y3650000D02*
D03*
D24*
X4064090Y9619000D02*
D03*
X1016000D02*
D03*
X21717090Y9238000D02*
D03*
X5715090Y3396000D02*
D03*
X9144090D02*
D03*
X8001090D02*
D03*
X6858090D02*
D03*
X12065090Y6825000D02*
D03*
D25*
X3556090Y9619000D02*
D03*
X508000D02*
D03*
X21209090Y9238000D02*
D03*
X6223090Y3396000D02*
D03*
X9652090D02*
D03*
X8509090D02*
D03*
X7366090D02*
D03*
X762090Y7079000D02*
D03*
Y7587000D02*
D03*
Y8095000D02*
D03*
Y6571000D02*
D03*
Y6063000D02*
D03*
X3937090Y7079000D02*
D03*
Y7587000D02*
D03*
Y8095000D02*
D03*
Y6571000D02*
D03*
Y6063000D02*
D03*
X13589090Y6825000D02*
D03*
X13081090D02*
D03*
X12573090D02*
D03*
X14097090D02*
D03*
D26*
X762090Y8603000D02*
D03*
X3937090D02*
D03*
D27*
X17399091Y5301000D02*
D03*
X20193089D02*
D03*
D28*
X17399091Y5555000D02*
D03*
Y5809000D02*
D03*
Y6063000D02*
D03*
Y6317000D02*
D03*
Y6571000D02*
D03*
Y6825000D02*
D03*
Y7079000D02*
D03*
X16129089Y5301000D02*
D03*
Y5555000D02*
D03*
Y5809000D02*
D03*
Y6063000D02*
D03*
Y6317000D02*
D03*
Y6571000D02*
D03*
Y6825000D02*
D03*
Y7079000D02*
D03*
X20193089Y5555000D02*
D03*
Y5809000D02*
D03*
Y6063000D02*
D03*
Y6317000D02*
D03*
Y6571000D02*
D03*
Y6825000D02*
D03*
Y7079000D02*
D03*
X18923090Y5301000D02*
D03*
Y5555000D02*
D03*
Y5809000D02*
D03*
Y6063000D02*
D03*
Y6317000D02*
D03*
Y6571000D02*
D03*
Y6825000D02*
D03*
Y7079000D02*
D03*
D29*
X15650000Y7710000D02*
D03*
X15822501Y7692500D02*
D03*
X7000000Y8250000D02*
D03*
Y8538376D02*
D03*
D30*
X16529100Y6100000D02*
D03*
X19323100D02*
D03*
D31*
X20600000Y7900000D02*
D03*
D32*
X12954100Y5301000D02*
D03*
D33*
X2032100D02*
D03*
%TF.MD5,f23293b2f2b346877e6ab16c431442b5*%
M02*
