M48
;Layer_Color=9474304
;FILE_FORMAT=4:4
METRIC,LZ
;TYPE=PLATED
T01F00S00C0.5000
T02F00S00C0.6000
T04F00S00C0.8000
T05F00S00C0.9000
T06F00S00C1.0000
T07F00S00C1.5000
T08F00S00C3.2000
T09F00S00C3.3000
%
T01
X01565Y00771
X0158225Y0076925
T02
X007Y00825
Y00853838
T04
X0165291Y0061
X0193231
T05
X0085Y006571
Y006825
Y007079
Y007333
Y007587
Y007841
X008754Y006571
X009008
X009262
X009516
X00977
X010024
Y006825
Y007079
Y007333
Y007587
Y007841
Y008095
Y008349
Y008603
Y008857
Y009111
Y009365
Y009619
Y009873
X00977Y009619
Y009111
Y008857
Y008603
X0085
Y008857
Y009111
Y009365
Y009619
Y009873
Y008349
Y008095
X0131346Y0083
X0133886
X0136426
X0138966
X0137696Y008554
X0135156
X0132616
X0140236
X0150966Y008554
X0153506
X0156046
X0158586
X0157316Y0083
X0154776
X0152236
X0149696
X0168046Y0083
X0170586
X0173126
X0175666
X0174396Y008554
X0171856
X0169316
X0176936
X0194316Y008554
X0196856
X0195586Y0083
X0193046
X0198126
X0200666
X0199396Y008554
X0201936
T06
X014738Y002961
Y003215
X014992
Y002961
X015246
X0155
Y003215
X015246
X016238
Y002961
X016492
Y003215
X016746
Y002961
X017
Y003215
X017738
X017992
X018246
X0185
Y002961
X018246
X017992
X017738
X02019309Y005301
Y005555
Y005809
Y006063
Y006317
Y006571
Y006825
Y007079
X0206Y0079
X01892309Y007079
Y006825
Y006571
Y006317
Y006063
Y005809
Y005555
Y005301
X01739909
Y005555
Y005809
Y006063
Y006317
Y006571
Y006825
Y007079
X01612909
Y006825
Y006571
Y006317
Y006063
Y005809
Y005555
Y005301
X010424Y006571
Y006825
Y007079
Y007333
Y007587
Y007841
X00977Y006271
X009516
X009262
X009008
X008754
X0081Y006571
Y006825
Y007079
Y007333
Y007587
Y007841
Y008095
Y008349
Y008603
Y008857
Y009111
Y009365
Y009619
Y009873
X010424
Y009619
Y009365
Y009111
Y008857
Y008603
Y008349
Y008095
T07
X00571509Y003396
X00622309
X00685809
X00736609
X00800109
X00850909
X00914409
X00965209
X01206509Y006825
X01257309
X01308109
X01358909
X01409709
X00393709Y007079
Y007587
Y006571
Y006063
X00076209
Y006571
Y007079
Y007587
Y008095
Y008603
X001016Y009619
X000508
X00355609
X00393709Y008603
Y008095
X00406409Y009619
X02120909Y009238
X02171709
T08
X0129541Y005301
X0020321
T09
X0130076Y009189
X0141506
X0148426Y009189
X0159856
X0166776Y009189
X0178206
X0191776Y009189
X0203206
M30
