%TF.GenerationSoftware,Altium Limited,Altium Designer,26.3.0 (6)*%
G04 Layer_Color=8388736*
%FSLAX45Y45*%
%MOMM*%
%TF.SameCoordinates,9DF5E86A-AFF4-4DEB-8806-04E8110C71FD*%
%TF.FilePolarity,Negative*%
%TF.FileFunction,Soldermask,Top*%
%TF.Part,Single*%
G01*
G75*
%TA.AperFunction,SMDPad,CuDef*%
%ADD30R,1.25320X1.65320*%
%ADD31R,1.40320X2.00320*%
%ADD32R,1.50320X0.85320*%
%ADD33R,1.65320X1.25320*%
%TA.AperFunction,ComponentPad*%
%ADD34C,2.10320*%
G04:AMPARAMS|DCode=35|XSize=2.1032mm|YSize=2.1032mm|CornerRadius=0.5766mm|HoleSize=0mm|Usage=FLASHONLY|Rotation=90.000|XOffset=0mm|YOffset=0mm|HoleType=Round|Shape=RoundedRectangle|*
%AMROUNDEDRECTD35*
21,1,2.10320,0.95000,0,0,90.0*
21,1,0.95000,2.10320,0,0,90.0*
1,1,1.15320,0.47500,0.47500*
1,1,1.15320,0.47500,-0.47500*
1,1,1.15320,-0.47500,-0.47500*
1,1,1.15320,-0.47500,0.47500*
%
%ADD35ROUNDEDRECTD35*%
%ADD36C,3.50320*%
%ADD37R,1.80320X1.80320*%
%ADD38C,1.80320*%
%ADD39C,2.00320*%
G04:AMPARAMS|DCode=40|XSize=2.0032mm|YSize=2.0032mm|CornerRadius=0.5516mm|HoleSize=0mm|Usage=FLASHONLY|Rotation=180.000|XOffset=0mm|YOffset=0mm|HoleType=Round|Shape=RoundedRectangle|*
%AMROUNDEDRECTD40*
21,1,2.00320,0.90000,0,0,180.0*
21,1,0.90000,2.00320,0,0,180.0*
1,1,1.10320,-0.45000,0.45000*
1,1,1.10320,0.45000,0.45000*
1,1,1.10320,0.45000,-0.45000*
1,1,1.10320,-0.45000,-0.45000*
%
%ADD40ROUNDEDRECTD40*%
G04:AMPARAMS|DCode=41|XSize=2.0032mm|YSize=2.0032mm|CornerRadius=0.5516mm|HoleSize=0mm|Usage=FLASHONLY|Rotation=90.000|XOffset=0mm|YOffset=0mm|HoleType=Round|Shape=RoundedRectangle|*
%AMROUNDEDRECTD41*
21,1,2.00320,0.90000,0,0,90.0*
21,1,0.90000,2.00320,0,0,90.0*
1,1,1.10320,0.45000,0.45000*
1,1,1.10320,0.45000,-0.45000*
1,1,1.10320,-0.45000,-0.45000*
1,1,1.10320,-0.45000,0.45000*
%
%ADD41ROUNDEDRECTD41*%
%TA.AperFunction,ViaPad*%
%ADD42C,3.40320*%
%ADD43C,1.20320*%
D30*
X20092500Y16080000D02*
D03*
X19907500D02*
D03*
X19672501Y15800000D02*
D03*
X19487500D02*
D03*
X16907500Y16080000D02*
D03*
X17092500D02*
D03*
X16487500Y15800000D02*
D03*
X16672501D02*
D03*
D31*
X22652499Y15096001D02*
D03*
X22947501D02*
D03*
D32*
X19880000Y15705000D02*
D03*
Y15800000D02*
D03*
Y15895000D02*
D03*
X20120000D02*
D03*
Y15800000D02*
D03*
Y15705000D02*
D03*
X17120000D02*
D03*
Y15800000D02*
D03*
Y15895000D02*
D03*
X16880000D02*
D03*
Y15800000D02*
D03*
Y15705000D02*
D03*
D33*
X20134000Y14195000D02*
D03*
Y14005000D02*
D03*
X20384000Y14195000D02*
D03*
Y14005000D02*
D03*
X17384000Y14195000D02*
D03*
Y14005000D02*
D03*
X17134000Y14005000D02*
D03*
Y14195000D02*
D03*
X22595500Y12395000D02*
D03*
Y12205000D02*
D03*
X23595500Y12395000D02*
D03*
Y12205000D02*
D03*
X24595500Y12395000D02*
D03*
Y12205000D02*
D03*
X20092500Y16264999D02*
D03*
Y16455000D02*
D03*
X17092500Y16264999D02*
D03*
Y16455000D02*
D03*
D34*
X22000000Y14746001D02*
D03*
D35*
Y15096001D02*
D03*
D36*
X30637500Y10811000D02*
D03*
X31780499D02*
D03*
X25938501D02*
D03*
X24795500D02*
D03*
X19588499D02*
D03*
X18445500D02*
D03*
X12349500D02*
D03*
X11206500D02*
D03*
D37*
X30764499Y11446000D02*
D03*
X24922501D02*
D03*
X18572501D02*
D03*
X11333500D02*
D03*
D38*
X31018500D02*
D03*
X31272501D02*
D03*
X31526501D02*
D03*
X30891501Y11700000D02*
D03*
X31145499D02*
D03*
X31399500D02*
D03*
X31653500D02*
D03*
X25811499D02*
D03*
X25557500D02*
D03*
X25303500D02*
D03*
X25049500D02*
D03*
X25684500Y11446000D02*
D03*
X25430499D02*
D03*
X25176500D02*
D03*
X19461501Y11700000D02*
D03*
X19207500D02*
D03*
X18953500D02*
D03*
X18699500D02*
D03*
X19334500Y11446000D02*
D03*
X19080499D02*
D03*
X18826500D02*
D03*
X12222500Y11700000D02*
D03*
X11968500D02*
D03*
X11714500D02*
D03*
X11460500D02*
D03*
X12095500Y11446000D02*
D03*
X11841500D02*
D03*
X11587500D02*
D03*
D39*
X18245500Y13500000D02*
D03*
Y13246001D02*
D03*
Y12992000D02*
D03*
X24595500Y12738000D02*
D03*
X31335999D02*
D03*
X31082001D02*
D03*
X31335999Y12992000D02*
D03*
X31082001D02*
D03*
X31335999Y13246001D02*
D03*
Y13500000D02*
D03*
X31082001Y13246001D02*
D03*
X20134000Y14746001D02*
D03*
Y15000000D02*
D03*
X19788499Y12738000D02*
D03*
X11006500Y12992000D02*
D03*
Y13246001D02*
D03*
Y13500000D02*
D03*
X12549500Y13246001D02*
D03*
Y12992000D02*
D03*
Y12738000D02*
D03*
X22595500D02*
D03*
X26138501D02*
D03*
X23595500D02*
D03*
X26646500D02*
D03*
X20296500D02*
D03*
X27154501D02*
D03*
X20804500D02*
D03*
X27662500D02*
D03*
X21312500D02*
D03*
X17134000Y15000000D02*
D03*
Y14746001D02*
D03*
D40*
X18245500Y12738000D02*
D03*
X24595500Y12992000D02*
D03*
X31082001Y13500000D02*
D03*
X20134000Y15253999D02*
D03*
X19788499Y12992000D02*
D03*
X11006500Y12738000D02*
D03*
X20092500Y16700000D02*
D03*
X17092500D02*
D03*
X12549500Y13500000D02*
D03*
X22595500Y12992000D02*
D03*
X26138501D02*
D03*
X23595500D02*
D03*
X26646500D02*
D03*
X20296500D02*
D03*
X27154501D02*
D03*
X20804500D02*
D03*
X27662500D02*
D03*
X21312500D02*
D03*
X17134000Y15253999D02*
D03*
D41*
X19880000Y15000000D02*
D03*
X16880000D02*
D03*
D42*
X22000000Y10400000D02*
D03*
X29500000D02*
D03*
X31800000Y16600000D02*
D03*
X10400000Y10400000D02*
D03*
Y16600000D02*
D03*
D43*
X20550000Y14746001D02*
D03*
X19672501Y15500000D02*
D03*
X17550000Y14746001D02*
D03*
X16672501Y15500000D02*
D03*
%TF.MD5,98ee0bdd26f6654be30bb0abaa9ccc69*%
M02*
