%TF.GenerationSoftware,Altium Limited,Altium Designer,26.3.0 (6)*%
G04 Layer_Physical_Order=2*
G04 Layer_Color=16711680*
%FSLAX45Y45*%
%MOMM*%
%TF.SameCoordinates,9DF5E86A-AFF4-4DEB-8806-04E8110C71FD*%
%TF.FilePolarity,Positive*%
%TF.FileFunction,Copper,L2,Bot,Signal*%
%TF.Part,Single*%
G01*
G75*
%TA.AperFunction,Conductor*%
%ADD14C,0.50000*%
%ADD15C,1.00000*%
%TA.AperFunction,ComponentPad*%
%ADD16C,1.90000*%
G04:AMPARAMS|DCode=17|XSize=1.9mm|YSize=1.9mm|CornerRadius=0.475mm|HoleSize=0mm|Usage=FLASHONLY|Rotation=90.000|XOffset=0mm|YOffset=0mm|HoleType=Round|Shape=RoundedRectangle|*
%AMROUNDEDRECTD17*
21,1,1.90000,0.95000,0,0,90.0*
21,1,0.95000,1.90000,0,0,90.0*
1,1,0.95000,0.47500,0.47500*
1,1,0.95000,0.47500,-0.47500*
1,1,0.95000,-0.47500,-0.47500*
1,1,0.95000,-0.47500,0.47500*
%
%ADD17ROUNDEDRECTD17*%
%ADD18C,3.30000*%
%ADD19R,1.60000X1.60000*%
%ADD20C,1.60000*%
%ADD21C,1.80000*%
G04:AMPARAMS|DCode=22|XSize=1.8mm|YSize=1.8mm|CornerRadius=0.45mm|HoleSize=0mm|Usage=FLASHONLY|Rotation=180.000|XOffset=0mm|YOffset=0mm|HoleType=Round|Shape=RoundedRectangle|*
%AMROUNDEDRECTD22*
21,1,1.80000,0.90000,0,0,180.0*
21,1,0.90000,1.80000,0,0,180.0*
1,1,0.90000,-0.45000,0.45000*
1,1,0.90000,0.45000,0.45000*
1,1,0.90000,0.45000,-0.45000*
1,1,0.90000,-0.45000,-0.45000*
%
%ADD22ROUNDEDRECTD22*%
G04:AMPARAMS|DCode=23|XSize=1.8mm|YSize=1.8mm|CornerRadius=0.45mm|HoleSize=0mm|Usage=FLASHONLY|Rotation=90.000|XOffset=0mm|YOffset=0mm|HoleType=Round|Shape=RoundedRectangle|*
%AMROUNDEDRECTD23*
21,1,1.80000,0.90000,0,0,90.0*
21,1,0.90000,1.80000,0,0,90.0*
1,1,0.90000,0.45000,0.45000*
1,1,0.90000,0.45000,-0.45000*
1,1,0.90000,-0.45000,-0.45000*
1,1,0.90000,-0.45000,0.45000*
%
%ADD23ROUNDEDRECTD23*%
%TA.AperFunction,ViaPad*%
%ADD24C,3.20000*%
%ADD25C,1.00000*%
D14*
X22000000Y14746001D02*
X24130499D01*
X26138501Y12738000D01*
X24595500Y12992000D02*
X24738000D01*
X25811499Y11700000D02*
Y11918500D01*
X24738000Y12992000D02*
X25811499Y11918500D01*
X22595500Y12992000D02*
X23595500D01*
X24595500D01*
X22595500Y12738000D02*
X23887500Y11446000D01*
X24922501D01*
X23595500Y12738000D02*
X24633501Y11700000D01*
X25049500D01*
X24595500Y12738000D02*
X25176500Y12157000D01*
Y11446000D02*
Y12157000D01*
X20134000Y15253999D02*
X21842000D01*
X22000000Y15096001D01*
X20550000Y14746001D02*
X22000000D01*
X20134000D02*
X20550000D01*
X19918500Y15253999D02*
X20134000D01*
X17550000Y14746001D02*
X20134000D01*
X17134000Y15253999D02*
X19918500D01*
X19672501Y15500000D02*
X19918500Y15253999D01*
X17134000Y14746001D02*
X17550000D01*
X16672501Y15500000D02*
X16918500Y15253999D01*
X17134000D01*
D15*
X19334500Y11446000D02*
X19510500Y11270000D01*
X25508501D01*
X25684500Y11446000D01*
D16*
X22000000Y14746001D02*
D03*
D17*
Y15096001D02*
D03*
D18*
X30637500Y10811000D02*
D03*
X31780499D02*
D03*
X25938501D02*
D03*
X24795500D02*
D03*
X19588499D02*
D03*
X18445500D02*
D03*
X12349500D02*
D03*
X11206500D02*
D03*
D19*
X30764499Y11446000D02*
D03*
X24922501D02*
D03*
X18572501D02*
D03*
X11333500D02*
D03*
D20*
X31018500D02*
D03*
X31272501D02*
D03*
X31526501D02*
D03*
X30891501Y11700000D02*
D03*
X31145499D02*
D03*
X31399500D02*
D03*
X31653500D02*
D03*
X25811499D02*
D03*
X25557500D02*
D03*
X25303500D02*
D03*
X25049500D02*
D03*
X25684500Y11446000D02*
D03*
X25430499D02*
D03*
X25176500D02*
D03*
X19461501Y11700000D02*
D03*
X19207500D02*
D03*
X18953500D02*
D03*
X18699500D02*
D03*
X19334500Y11446000D02*
D03*
X19080499D02*
D03*
X18826500D02*
D03*
X12222500Y11700000D02*
D03*
X11968500D02*
D03*
X11714500D02*
D03*
X11460500D02*
D03*
X12095500Y11446000D02*
D03*
X11841500D02*
D03*
X11587500D02*
D03*
D21*
X18245500Y13500000D02*
D03*
Y13246001D02*
D03*
Y12992000D02*
D03*
X24595500Y12738000D02*
D03*
X31335999D02*
D03*
X31082001D02*
D03*
X31335999Y12992000D02*
D03*
X31082001D02*
D03*
X31335999Y13246001D02*
D03*
Y13500000D02*
D03*
X31082001Y13246001D02*
D03*
X20134000Y14746001D02*
D03*
Y15000000D02*
D03*
X19788499Y12738000D02*
D03*
X11006500Y12992000D02*
D03*
Y13246001D02*
D03*
Y13500000D02*
D03*
X12549500Y13246001D02*
D03*
Y12992000D02*
D03*
Y12738000D02*
D03*
X22595500D02*
D03*
X26138501D02*
D03*
X23595500D02*
D03*
X26646500D02*
D03*
X20296500D02*
D03*
X27154501D02*
D03*
X20804500D02*
D03*
X27662500D02*
D03*
X21312500D02*
D03*
X17134000Y15000000D02*
D03*
Y14746001D02*
D03*
D22*
X18245500Y12738000D02*
D03*
X24595500Y12992000D02*
D03*
X31082001Y13500000D02*
D03*
X20134000Y15253999D02*
D03*
X19788499Y12992000D02*
D03*
X11006500Y12738000D02*
D03*
X20092500Y16700000D02*
D03*
X17092500D02*
D03*
X12549500Y13500000D02*
D03*
X22595500Y12992000D02*
D03*
X26138501D02*
D03*
X23595500D02*
D03*
X26646500D02*
D03*
X20296500D02*
D03*
X27154501D02*
D03*
X20804500D02*
D03*
X27662500D02*
D03*
X21312500D02*
D03*
X17134000Y15253999D02*
D03*
D23*
X19880000Y15000000D02*
D03*
X16880000D02*
D03*
D24*
X22000000Y10400000D02*
D03*
X29500000D02*
D03*
X31800000Y16600000D02*
D03*
X10400000Y10400000D02*
D03*
Y16600000D02*
D03*
D25*
X20550000Y14746001D02*
D03*
X19672501Y15500000D02*
D03*
X17550000Y14746001D02*
D03*
X16672501Y15500000D02*
D03*
%TF.MD5,4321379375cf33b8501afa62545f139f*%
M02*
