%TF.GenerationSoftware,Altium Limited,Altium Designer,25.8.1 (18)*%
G04 Layer_Color=8421504*
%FSLAX45Y45*%
%MOMM*%
%TF.SameCoordinates,A785B3B1-CB1D-45D8-AEAD-54020840EAB1*%
%TF.FilePolarity,Positive*%
%TF.FileFunction,Paste,Top*%
%TF.Part,Single*%
G01*
G75*
%TA.AperFunction,SMDPad,CuDef*%
%ADD10R,1.45000X1.05000*%
%ADD11R,1.05000X1.45000*%
%ADD12R,1.20000X1.80000*%
%ADD13R,1.30000X0.65000*%
D10*
X20134000Y14005000D02*
D03*
Y14195000D02*
D03*
X20384000Y14195000D02*
D03*
Y14005000D02*
D03*
X17384000Y14195000D02*
D03*
Y14005000D02*
D03*
X17134000Y14005000D02*
D03*
Y14195000D02*
D03*
X22595500Y12395000D02*
D03*
Y12205000D02*
D03*
X23595500Y12395000D02*
D03*
Y12205000D02*
D03*
X24595500Y12395000D02*
D03*
Y12205000D02*
D03*
X20092500Y16264999D02*
D03*
Y16455000D02*
D03*
X17092500Y16264999D02*
D03*
Y16455000D02*
D03*
D11*
X16907500Y16080000D02*
D03*
X17092500D02*
D03*
X19907500D02*
D03*
X20092500D02*
D03*
X19487500Y15800000D02*
D03*
X19672501D02*
D03*
X16487500D02*
D03*
X16672501D02*
D03*
D12*
X22947501Y15096001D02*
D03*
X22652499D02*
D03*
D13*
X20120000Y15705000D02*
D03*
Y15800000D02*
D03*
Y15895000D02*
D03*
X19880000D02*
D03*
Y15800000D02*
D03*
Y15705000D02*
D03*
X17120000D02*
D03*
Y15800000D02*
D03*
Y15895000D02*
D03*
X16880000D02*
D03*
Y15800000D02*
D03*
Y15705000D02*
D03*
%TF.MD5,77384b75e354a34de6d202797950589e*%
M02*
