%TF.GenerationSoftware,Altium Limited,Altium Designer,25.8.1 (18)*%
G04 Layer_Color=16711935*
%FSLAX45Y45*%
%MOMM*%
%TF.SameCoordinates,A785B3B1-CB1D-45D8-AEAD-54020840EAB1*%
%TF.FilePolarity,Negative*%
%TF.FileFunction,Soldermask,Bot*%
%TF.Part,Single*%
G01*
G75*
%TA.AperFunction,ViaPad*%
%ADD34C,3.40320*%
%TA.AperFunction,ComponentPad*%
G04:AMPARAMS|DCode=35|XSize=2.0032mm|YSize=2.0032mm|CornerRadius=0.5516mm|HoleSize=0mm|Usage=FLASHONLY|Rotation=90.000|XOffset=0mm|YOffset=0mm|HoleType=Round|Shape=RoundedRectangle|*
%AMROUNDEDRECTD35*
21,1,2.00320,0.90000,0,0,90.0*
21,1,0.90000,2.00320,0,0,90.0*
1,1,1.10320,0.45000,0.45000*
1,1,1.10320,0.45000,-0.45000*
1,1,1.10320,-0.45000,-0.45000*
1,1,1.10320,-0.45000,0.45000*
%
%ADD35ROUNDEDRECTD35*%
%ADD36C,2.00320*%
G04:AMPARAMS|DCode=37|XSize=2.0032mm|YSize=2.0032mm|CornerRadius=0.5516mm|HoleSize=0mm|Usage=FLASHONLY|Rotation=0.000|XOffset=0mm|YOffset=0mm|HoleType=Round|Shape=RoundedRectangle|*
%AMROUNDEDRECTD37*
21,1,2.00320,0.90000,0,0,0.0*
21,1,0.90000,2.00320,0,0,0.0*
1,1,1.10320,0.45000,-0.45000*
1,1,1.10320,-0.45000,-0.45000*
1,1,1.10320,-0.45000,0.45000*
1,1,1.10320,0.45000,0.45000*
%
%ADD37ROUNDEDRECTD37*%
%ADD38C,1.80320*%
%ADD39R,1.80320X1.80320*%
%ADD40C,3.50320*%
G04:AMPARAMS|DCode=41|XSize=2.1032mm|YSize=2.1032mm|CornerRadius=0.5766mm|HoleSize=0mm|Usage=FLASHONLY|Rotation=90.000|XOffset=0mm|YOffset=0mm|HoleType=Round|Shape=RoundedRectangle|*
%AMROUNDEDRECTD41*
21,1,2.10320,0.95000,0,0,90.0*
21,1,0.95000,2.10320,0,0,90.0*
1,1,1.15320,0.47500,0.47500*
1,1,1.15320,0.47500,-0.47500*
1,1,1.15320,-0.47500,-0.47500*
1,1,1.15320,-0.47500,0.47500*
%
%ADD41ROUNDEDRECTD41*%
%ADD42C,2.10320*%
%TA.AperFunction,ViaPad*%
%ADD43C,1.20320*%
D34*
X22000000Y10400000D02*
D03*
X29500000D02*
D03*
X31800000Y16600000D02*
D03*
X10400000Y10400000D02*
D03*
Y16600000D02*
D03*
D35*
X16880000Y15000000D02*
D03*
X19880000D02*
D03*
D36*
X19788499Y12738000D02*
D03*
X18245500Y12992000D02*
D03*
Y13246001D02*
D03*
Y13500000D02*
D03*
X11006500Y12992000D02*
D03*
Y13246001D02*
D03*
Y13500000D02*
D03*
X12549500Y13246001D02*
D03*
Y12992000D02*
D03*
Y12738000D02*
D03*
X31082001Y13246001D02*
D03*
X31335999Y13500000D02*
D03*
Y13246001D02*
D03*
X31082001Y12992000D02*
D03*
X31335999D02*
D03*
X31082001Y12738000D02*
D03*
X31335999D02*
D03*
X22595500D02*
D03*
X26138501D02*
D03*
X23595500D02*
D03*
X26646500D02*
D03*
X20296500D02*
D03*
X27154501D02*
D03*
X20804500D02*
D03*
X24595500D02*
D03*
X27662500D02*
D03*
X21312500D02*
D03*
X20134000Y15000000D02*
D03*
Y14746001D02*
D03*
X17134000Y15000000D02*
D03*
Y14746001D02*
D03*
D37*
X19788499Y12992000D02*
D03*
X18245500Y12738000D02*
D03*
X11006500D02*
D03*
X20092500Y16700000D02*
D03*
X17092500D02*
D03*
X12549500Y13500000D02*
D03*
X31082001D02*
D03*
X22595500Y12992000D02*
D03*
X26138501D02*
D03*
X23595500D02*
D03*
X26646500D02*
D03*
X20296500D02*
D03*
X27154501D02*
D03*
X20804500D02*
D03*
X24595500D02*
D03*
X27662500D02*
D03*
X21312500D02*
D03*
X20134000Y15253999D02*
D03*
X17134000D02*
D03*
D38*
X31653500Y11700000D02*
D03*
X31399500D02*
D03*
X31145499D02*
D03*
X30891501D02*
D03*
X31526501Y11446000D02*
D03*
X31272501D02*
D03*
X31018500D02*
D03*
X25811499Y11700000D02*
D03*
X25557500D02*
D03*
X25303500D02*
D03*
X25049500D02*
D03*
X25684500Y11446000D02*
D03*
X25430499D02*
D03*
X25176500D02*
D03*
X19461501Y11700000D02*
D03*
X19207500D02*
D03*
X18953500D02*
D03*
X18699500D02*
D03*
X19334500Y11446000D02*
D03*
X19080499D02*
D03*
X18826500D02*
D03*
X12222500Y11700000D02*
D03*
X11968500D02*
D03*
X11714500D02*
D03*
X11460500D02*
D03*
X12095500Y11446000D02*
D03*
X11841500D02*
D03*
X11587500D02*
D03*
D39*
X30764499D02*
D03*
X24922501D02*
D03*
X18572501D02*
D03*
X11333500D02*
D03*
D40*
X31780499Y10811000D02*
D03*
X30637500D02*
D03*
X25938501D02*
D03*
X24795500D02*
D03*
X19588499D02*
D03*
X18445500D02*
D03*
X12349500D02*
D03*
X11206500D02*
D03*
D41*
X22000000Y15096001D02*
D03*
D42*
Y14746001D02*
D03*
D43*
X20550000Y14746001D02*
D03*
X19672501Y15500000D02*
D03*
X17550000Y14746001D02*
D03*
X16672501Y15500000D02*
D03*
%TF.MD5,de1ed732d827d4a0910ffda4a44ea8d1*%
M02*
