999
FreeCAD v0.20 29177 (Git)
  0
SECTION
  2
HEADER
  9
$ACADVER
  1
AC1014
  9
$ACADMAINTVER
 70
     9
  9
$DWGCODEPAGE
  3
ANSI_1252
  9
$TEXTSTYLE
  7
STANDARD
  9
$DIMSTYLE
  2
STANDARD
  9
$DIMTXSTY
  7
STANDARD
  9
$CMLSTYLE
  2
STANDARD
  9
$LUNITS
 70
2
  9
$INSUNITS
 70
4
  9
$PEXTMAX
 10
50
 20
50
 30
50
  9
$PEXTMIN
 10
0
 20
0
 30
0
  9
$HANDSEED
  5
FFFF
  0
ENDSEC
  0
SECTION
  2
CLASSES
  0
CLASS
  1
ACDBDICTIONARYWDFLT
  2
AcDbDictionaryWithDefault
  3
ObjectDBX Classes
 90
        0
280
     0
281
     0
  0
CLASS
  1
XRECORD
  2
AcDbXrecord
  3
ObjectDBX Classes
 90
        0
280
     0
281
     0
  0
CLASS
  1
LWPOLYLINE
  2
AcDbPolyline
  3
ObjectDBX Classes
 90
        0
280
     0
281
     1
  0
ENDSEC
  0
SECTION
  2
TABLES
  0
TABLE
  2
VPORT
  5
20
330
0
100
AcDbSymbolTable
 70
     1
  0
VPORT
  5
21
330
20
100
AcDbSymbolTableRecord
100
AcDbViewportTableRecord
  2
*ACTIVE
 70
     0
  0
ENDTAB
  0
TABLE
  2
LTYPE
  5
22
330
0
100
AcDbSymbolTable
 70
     1
  0
LTYPE
  5
23
330
21
100
AcDbSymbolTableRecord
100
AcDbLinetypeTableRecord
  2
BYBLOCK
 70
     0
  3

 72
    65
 73
     0
 40
0.0
  0
LTYPE
  5
24
330
21
100
AcDbSymbolTableRecord
100
AcDbLinetypeTableRecord
  2
BYLAYER
 70
     0
  3

 72
    65
 73
     0
 40
0.0
  0
LTYPE
  5
25
330
21
100
AcDbSymbolTableRecord
100
AcDbLinetypeTableRecord
  2
CONTINUOUS
 70
     0
  3
Solid line
 72
    65
 73
     0
 40
0.0
  0
ENDTAB
  0
TABLE
  2
LAYER
  5
AD9
330
0
100
AcDbSymbolTable
 70
6
  0
LAYER
  5
ADA
330
AD9
100
AcDbSymbolTableRecord
100
AcDbLayerTableRecord
  2
0
 70
   0
 62
   7
  6
CONTINUOUS
  0
LAYER
  5
ADB
330
AD9
100
AcDbSymbolTableRecord
100
AcDbLayerTableRecord
  2
View001
 70
    0
 62
    7
  6
CONTINUOUS
  0
LAYER
  5
ADC
330
AD9
100
AcDbSymbolTableRecord
100
AcDbLayerTableRecord
  2
SectionView001
 70
    0
 62
    7
  6
CONTINUOUS
  0
LAYER
  5
ADD
330
AD9
100
AcDbSymbolTableRecord
100
AcDbLayerTableRecord
  2
Dimension045
 70
    0
 62
    7
  6
CONTINUOUS
  0
LAYER
  5
ADE
330
AD9
100
AcDbSymbolTableRecord
100
AcDbLayerTableRecord
  2
Dimension047
 70
    0
 62
    7
  6
CONTINUOUS
  0
LAYER
  5
ADF
330
AD9
100
AcDbSymbolTableRecord
100
AcDbLayerTableRecord
  2
Dimension049
 70
    0
 62
    7
  6
CONTINUOUS
  0
ENDTAB
  0
TABLE
  2
STYLE
  5
70
330
0
100
AcDbSymbolTable
 70
     2
  0
STYLE
  5
71
330
70
100
AcDbSymbolTableRecord
100
AcDbTextStyleTableRecord
  2
STANDARD
 70
     0
 40
0.0
 41
1.0
 50
0.0
 71
     0
 42
2.5
  3
arial.ttf
  4

  0
STYLE
  5
72
330
70
100
AcDbSymbolTableRecord
100
AcDbTextStyleTableRecord
  2
ANNOTATIVE
 70
     0
 40
0.0
 41
1.0
 50
0.0
 71
     0
 42
2.5
  3
arial.ttf
  4

  0
ENDTAB
  0
TABLE
  2
VIEW
  5
73
330
0
100
AcDbSymbolTable
 70
     0
  0
ENDTAB
  0
TABLE
  2
UCS
  5
74
330
0
100
AcDbSymbolTable
 70
     0
  0
ENDTAB
  0
TABLE
  2
APPID
  5
75
330
0
100
AcDbSymbolTable
 70
     2
  0
APPID
  5
76
330
75
100
AcDbSymbolTableRecord
100
AcDbRegAppTableRecord
  2
ACAD
 70
     0
  0
APPID
  5
77
330
75
100
AcDbSymbolTableRecord
100
AcDbRegAppTableRecord
  2
ACADANNOTATIVE
 70
     0
  0
ENDTAB
  0
TABLE
  2
DIMSTYLE
  5
78
330
0
100
AcDbSymbolTable
 70
     2
  0
DIMSTYLE
105
79
330
78
100
AcDbSymbolTableRecord
100
AcDbDimStyleTableRecord
  2
STANDARD
 70
     0
  3

  4

  5

  6

  7

 40
0.0
 41
2.5
 42
0.625
 43
3.75
 44
1.25
 45
0.0
 46
0.0
 47
0.0
 48
0.0
140
2.5
141
2.5
142
0.0
143
0.03937007874016
144
1.0
145
0.0
146
1.0
147
0.625
 71
     0
 72
     0
 73
     0
 74
     0
 75
     0
 76
     0
 77
     1
 78
     8
170
     0
171
     3
172
     1
173
     0
174
     0
175
     0
176
     0
177
     0
178
     0
270
     2
271
     2
272
     2
273
     2
274
     3
340
71
275
     0
280
     0
281
     0
282
     0
283
     0
284
     8
285
     0
286
     0
287
     3
288
     0
  0
ENDTAB
  0
TABLE
  2
BLOCK_RECORD
  5
A01
330
0
100
AcDbSymbolTable
  70
5
  0
BLOCK_RECORD
  5
A02
330
A01
100
AcDbSymbolTableRecord
100
AcDbBlockTableRecord
  2
*MODEL_SPACE
  0
BLOCK_RECORD
  5
A03
330
A01
100
AcDbSymbolTableRecord
100
AcDbBlockTableRecord
  2
*PAPER_SPACE
  0
BLOCK_RECORD
  5
ABC
330
A01
100
AcDbSymbolTableRecord
100
AcDbBlockTableRecord
  2
*Dimension045
  0
BLOCK_RECORD
  5
AC6
330
A01
100
AcDbSymbolTableRecord
100
AcDbBlockTableRecord
  2
*Dimension047
  0
BLOCK_RECORD
  5
AD0
330
A01
100
AcDbSymbolTableRecord
100
AcDbBlockTableRecord
  2
*Dimension049
  0
ENDTAB
  0
ENDSEC
  0
SECTION
  2
BLOCKS
  0
BLOCK
  5
A04
330
A02
100
AcDbEntity
  8
0
100
AcDbBlockBegin
  2
*MODEL_SPACE
 70
   0
 10
0
 20
0
 30
0
  3
*MODEL_SPACE
  1
 
  0
ENDBLK
  5
A05
330
A02
100
AcDbEntity
  8
0
100
AcDbBlockEnd
  0
BLOCK
  5
A06
330
A03
100
AcDbEntity
 67
1
  8
0
100
AcDbBlockBegin
  2
*PAPER_SPACE
 70
   0
 10
0
 20
0
 30
0
  3
*PAPER_SPACE
  1
 
  0
ENDBLK
  5
A07
330
A03
100
AcDbEntity
 67
    1
  8
0
100
AcDbBlockEnd
  0
BLOCK
  5
ABD
330
ABC
100
AcDbEntity
  8
Dimension045
100
AcDbBlockBegin
  2
*Dimension045
 70
   1
 10
0
 20
0
 30
0
  3
*Dimension045
  1
 
  0
LINE
  5
ABE
330
ABC
100
AcDbEntity
  8
Dimension045
100
AcDbLine
 10
32.25
 20
78
 30
0
 11
29.3954
 21
78
 31
0
  0
LINE
  5
ABF
330
ABC
100
AcDbEntity
  8
Dimension045
100
AcDbLine
 10
32.25
 20
82
 30
0
 11
29.3954
 21
82
 31
0
  0
LINE
  5
AC0
330
ABC
100
AcDbEntity
  8
Dimension045
100
AcDbLine
 10
29.3954
 20
82
 30
0
 11
29.3954
 21
78
 31
0
  0
TEXT
  5
AC1
330
ABC
100
AcDbEntity
  8
Dimension045
100
AcDbText
 10
24.3954
 20
91.6637
 30
0
 40
3.5
  1
4,00
  7
STANDARD
 72
1
 11
29.3954
 21
91.6637
 31
0
100
AcDbText
  0
SOLID
  5
AC2
330
ABC
100
AcDbEntity
  8
0
 62
     0
100
AcDbTrace
 10
28.9788
 20
87
 30
0
 11
29.8121
 21
87
 31
0
 12
29.3954
 22
82
 32
0
 13
29.3954
 23
82
 33
0
  0
SOLID
  5
AC3
330
ABC
100
AcDbEntity
  8
0
 62
     0
100
AcDbTrace
 10
28.9788
 20
73
 30
0
 11
29.8121
 21
73
 31
0
 12
29.3954
 22
78
 32
0
 13
29.3954
 23
78
 33
0
  0
ENDBLK
  5
AC4
330
ABC
100
AcDbEntity
  8
Dimension045
100
AcDbBlockEnd
  0
BLOCK
  5
AC7
330
AC6
100
AcDbEntity
  8
Dimension047
100
AcDbBlockBegin
  2
*Dimension047
 70
   1
 10
0
 20
0
 30
0
  3
*Dimension047
  1
 
  0
LINE
  5
AC8
330
AC6
100
AcDbEntity
  8
Dimension047
100
AcDbLine
 10
258.25
 20
80
 30
0
 11
263.381
 21
80
 31
0
  0
LINE
  5
AC9
330
AC6
100
AcDbEntity
  8
Dimension047
100
AcDbLine
 10
258.25
 20
82
 30
0
 11
263.381
 21
82
 31
0
  0
LINE
  5
ACA
330
AC6
100
AcDbEntity
  8
Dimension047
100
AcDbLine
 10
263.381
 20
82
 30
0
 11
263.381
 21
80
 31
0
  0
TEXT
  5
ACB
330
AC6
100
AcDbEntity
  8
Dimension047
100
AcDbText
 10
258.381
 20
93.9728
 30
0
 40
3.5
  1
2,00
  7
STANDARD
 72
1
 11
263.381
 21
93.9728
 31
0
100
AcDbText
  0
SOLID
  5
ACC
330
AC6
100
AcDbEntity
  8
0
 62
     0
100
AcDbTrace
 10
263.798
 20
87
 30
0
 11
262.964
 21
87
 31
0
 12
263.381
 22
82
 32
0
 13
263.381
 23
82
 33
0
  0
SOLID
  5
ACD
330
AC6
100
AcDbEntity
  8
0
 62
     0
100
AcDbTrace
 10
263.798
 20
75
 30
0
 11
262.964
 21
75
 31
0
 12
263.381
 22
80
 32
0
 13
263.381
 23
80
 33
0
  0
ENDBLK
  5
ACE
330
AC6
100
AcDbEntity
  8
Dimension047
100
AcDbBlockEnd
  0
BLOCK
  5
AD1
330
AD0
100
AcDbEntity
  8
Dimension049
100
AcDbBlockBegin
  2
*Dimension049
 70
   1
 10
0
 20
0
 30
0
  3
*Dimension049
  1
 
  0
LINE
  5
AD2
330
AD0
100
AcDbEntity
  8
Dimension049
100
AcDbLine
 10
89.75
 20
80.5
 30
0
 11
94.2264
 21
80.5
 31
0
  0
LINE
  5
AD3
330
AD0
100
AcDbEntity
  8
Dimension049
100
AcDbLine
 10
89.75
 20
82
 30
0
 11
94.2264
 21
82
 31
0
  0
LINE
  5
AD4
330
AD0
100
AcDbEntity
  8
Dimension049
100
AcDbLine
 10
94.2264
 20
82
 30
0
 11
94.2264
 21
80.5
 31
0
  0
TEXT
  5
AD5
330
AD0
100
AcDbEntity
  8
Dimension049
100
AcDbText
 10
89.2264
 20
94.3537
 30
0
 40
3.5
  1
1,50
  7
STANDARD
 72
1
 11
94.2264
 21
94.3537
 31
0
100
AcDbText
  0
SOLID
  5
AD6
330
AD0
100
AcDbEntity
  8
0
 62
     0
100
AcDbTrace
 10
94.643
 20
87
 30
0
 11
93.8097
 21
87
 31
0
 12
94.2264
 22
82
 32
0
 13
94.2264
 23
82
 33
0
  0
SOLID
  5
AD7
330
AD0
100
AcDbEntity
  8
0
 62
     0
100
AcDbTrace
 10
94.643
 20
75.5
 30
0
 11
93.8097
 21
75.5
 31
0
 12
94.2264
 22
80.5
 32
0
 13
94.2264
 23
80.5
 33
0
  0
ENDBLK
  5
AD8
330
AD0
100
AcDbEntity
  8
Dimension049
100
AcDbBlockEnd
  0
ENDSEC
  0
SECTION
  2
ENTITIES
  0
LINE
  5
A08
330
A02
100
AcDbEntity
  8
View001
100
AcDbLine
 10
147.45
 20
116.75
 30
0
 11
34.442
 21
116.75
 31
0
  0
LINE
  5
A09
330
A02
100
AcDbEntity
  8
View001
100
AcDbLine
 10
147.45
 20
116.75
 30
0
 11
147.45
 21
118.3
 31
0
  0
LINE
  5
A0A
330
A02
100
AcDbEntity
  8
View001
100
AcDbLine
 10
34.442
 20
116.75
 30
0
 11
34.896
 21
117.204
 31
0
  0
ARC
  5
A0B
330
A02
100
AcDbEntity
  8
View001
100
AcDbCircle
 10
149
 20
118.3
 30
0
 40
1.55
100
AcDbArc
 50
0
 51
180
  0
ARC
  5
A0C
330
A02
100
AcDbEntity
  8
View001
100
AcDbCircle
 10
33.8
 20
118.3
 30
0
 40
1.55
100
AcDbArc
 50
-45
 51
135
  0
LINE
  5
A0D
330
A02
100
AcDbEntity
  8
View001
100
AcDbLine
 10
150.55
 20
116.75
 30
0
 11
150.55
 21
118.3
 31
0
  0
LINE
  5
A0E
330
A02
100
AcDbEntity
  8
View001
100
AcDbLine
 10
32.25
 20
118.942
 30
0
 11
32.704
 21
119.396
 31
0
  0
LINE
  5
A0F
330
A02
100
AcDbEntity
  8
View001
100
AcDbLine
 10
150.55
 20
116.75
 30
0
 11
263.558
 21
116.75
 31
0
  0
LINE
  5
A10
330
A02
100
AcDbEntity
  8
View001
100
AcDbLine
 10
32.25
 20
118.942
 30
0
 11
32.25
 21
181.058
 31
0
  0
LINE
  5
A11
330
A02
100
AcDbEntity
  8
View001
100
AcDbLine
 10
263.558
 20
116.75
 30
0
 11
263.104
 21
117.204
 31
0
  0
LINE
  5
A12
330
A02
100
AcDbEntity
  8
View001
100
AcDbLine
 10
32.25
 20
181.058
 30
0
 11
32.704
 21
180.604
 31
0
  0
ARC
  5
A13
330
A02
100
AcDbEntity
  8
View001
100
AcDbCircle
 10
264.2
 20
118.3
 30
0
 40
1.55
100
AcDbArc
 50
45
 51
-135
  0
ARC
  5
A14
330
A02
100
AcDbEntity
  8
View001
100
AcDbCircle
 10
33.8
 20
181.7
 30
0
 40
1.55
100
AcDbArc
 50
-135
 51
45
  0
LINE
  5
A15
330
A02
100
AcDbEntity
  8
View001
100
AcDbLine
 10
265.75
 20
118.942
 30
0
 11
265.296
 21
119.396
 31
0
  0
LINE
  5
A16
330
A02
100
AcDbEntity
  8
View001
100
AcDbLine
 10
34.442
 20
183.25
 30
0
 11
34.896
 21
182.796
 31
0
  0
LINE
  5
A17
330
A02
100
AcDbEntity
  8
View001
100
AcDbLine
 10
265.75
 20
118.942
 30
0
 11
265.75
 21
181.058
 31
0
  0
LINE
  5
A18
330
A02
100
AcDbEntity
  8
View001
100
AcDbLine
 10
34.442
 20
183.25
 30
0
 11
147.45
 21
183.25
 31
0
  0
LINE
  5
A19
330
A02
100
AcDbEntity
  8
View001
100
AcDbLine
 10
265.75
 20
181.058
 30
0
 11
265.296
 21
180.604
 31
0
  0
LINE
  5
A1A
330
A02
100
AcDbEntity
  8
View001
100
AcDbLine
 10
147.45
 20
183.25
 30
0
 11
147.45
 21
181.7
 31
0
  0
ARC
  5
A1B
330
A02
100
AcDbEntity
  8
View001
100
AcDbCircle
 10
264.2
 20
181.7
 30
0
 40
1.55
100
AcDbArc
 50
135
 51
-45
  0
ARC
  5
A1C
330
A02
100
AcDbEntity
  8
View001
100
AcDbCircle
 10
149
 20
181.7
 30
0
 40
1.55
100
AcDbArc
 50
180
 51
0
  0
LINE
  5
A1D
330
A02
100
AcDbEntity
  8
View001
100
AcDbLine
 10
263.558
 20
183.25
 30
0
 11
263.104
 21
182.796
 31
0
  0
LINE
  5
A1E
330
A02
100
AcDbEntity
  8
View001
100
AcDbLine
 10
150.55
 20
183.25
 30
0
 11
150.55
 21
181.7
 31
0
  0
LINE
  5
A1F
330
A02
100
AcDbEntity
  8
View001
100
AcDbLine
 10
150.55
 20
183.25
 30
0
 11
263.558
 21
183.25
 31
0
  0
CIRCLE
  5
A20
330
A02
100
AcDbEntity
  8
View001
100
AcDbCircle
 10
111.5
 20
168.25
 40
5.4
  0
CIRCLE
  5
A21
330
A02
100
AcDbEntity
  8
View001
100
AcDbCircle
 10
136.5
 20
168.25
 40
5.4
  0
LINE
  5
A22
330
A02
100
AcDbEntity
  8
View001
100
AcDbLine
 10
49.75
 20
157.5
 30
0
 11
49.75
 21
142.5
 31
0
  0
LINE
  5
A23
330
A02
100
AcDbEntity
  8
View001
100
AcDbLine
 10
64.75
 20
157.5
 30
0
 11
49.75
 21
157.5
 31
0
  0
LINE
  5
A24
330
A02
100
AcDbEntity
  8
View001
100
AcDbLine
 10
64.75
 20
142.5
 30
0
 11
64.75
 21
157.5
 31
0
  0
LINE
  5
A25
330
A02
100
AcDbEntity
  8
View001
100
AcDbLine
 10
49.75
 20
142.5
 30
0
 11
64.75
 21
142.5
 31
0
  0
LINE
  5
A26
330
A02
100
AcDbEntity
  8
View001
100
AcDbLine
 10
74.75
 20
157.5
 30
0
 11
74.75
 21
142.5
 31
0
  0
LINE
  5
A27
330
A02
100
AcDbEntity
  8
View001
100
AcDbLine
 10
89.75
 20
157.5
 30
0
 11
74.75
 21
157.5
 31
0
  0
LINE
  5
A28
330
A02
100
AcDbEntity
  8
View001
100
AcDbLine
 10
89.75
 20
142.5
 30
0
 11
89.75
 21
157.5
 31
0
  0
LINE
  5
A29
330
A02
100
AcDbEntity
  8
View001
100
AcDbLine
 10
74.75
 20
142.5
 30
0
 11
89.75
 21
142.5
 31
0
  0
LINE
  5
A2A
330
A02
100
AcDbEntity
  8
View001
100
AcDbLine
 10
141.5
 20
157.5
 30
0
 11
141.5
 21
142.5
 31
0
  0
LINE
  5
A2B
330
A02
100
AcDbEntity
  8
View001
100
AcDbLine
 10
156.5
 20
157.5
 30
0
 11
141.5
 21
157.5
 31
0
  0
LINE
  5
A2C
330
A02
100
AcDbEntity
  8
View001
100
AcDbLine
 10
156.5
 20
142.5
 30
0
 11
156.5
 21
157.5
 31
0
  0
LINE
  5
A2D
330
A02
100
AcDbEntity
  8
View001
100
AcDbLine
 10
141.5
 20
142.5
 30
0
 11
156.5
 21
142.5
 31
0
  0
CIRCLE
  5
A2E
330
A02
100
AcDbEntity
  8
View001
100
AcDbCircle
 10
161.5
 20
168.25
 40
5.4
  0
CIRCLE
  5
A2F
330
A02
100
AcDbEntity
  8
View001
100
AcDbCircle
 10
186.5
 20
168.25
 40
5.4
  0
CIRCLE
  5
A30
330
A02
100
AcDbEntity
  8
View001
100
AcDbCircle
 10
225.75
 20
168.25
 40
7.5
  0
CIRCLE
  5
A31
330
A02
100
AcDbEntity
  8
View001
100
AcDbCircle
 10
250.75
 20
168.25
 40
7.5
  0
CIRCLE
  5
A32
330
A02
100
AcDbEntity
  8
View001
100
AcDbCircle
 10
225.75
 20
150
 40
7.5
  0
CIRCLE
  5
A33
330
A02
100
AcDbEntity
  8
View001
100
AcDbCircle
 10
250.75
 20
150
 40
7.5
  0
CIRCLE
  5
A34
330
A02
100
AcDbEntity
  8
View001
100
AcDbCircle
 10
111.5
 20
131.75
 40
5.4
  0
CIRCLE
  5
A35
330
A02
100
AcDbEntity
  8
View001
100
AcDbCircle
 10
136.5
 20
131.75
 40
5.4
  0
CIRCLE
  5
A36
330
A02
100
AcDbEntity
  8
View001
100
AcDbCircle
 10
161.5
 20
131.75
 40
5.4
  0
CIRCLE
  5
A37
330
A02
100
AcDbEntity
  8
View001
100
AcDbCircle
 10
186.5
 20
131.75
 40
5.4
  0
CIRCLE
  5
A38
330
A02
100
AcDbEntity
  8
View001
100
AcDbCircle
 10
225.75
 20
131.75
 40
7.5
  0
CIRCLE
  5
A39
330
A02
100
AcDbEntity
  8
View001
100
AcDbCircle
 10
225.75
 20
168.25
 40
4
  0
CIRCLE
  5
A3A
330
A02
100
AcDbEntity
  8
View001
100
AcDbCircle
 10
250.75
 20
168.25
 40
4
  0
CIRCLE
  5
A3B
330
A02
100
AcDbEntity
  8
View001
100
AcDbCircle
 10
225.75
 20
150
 40
4
  0
CIRCLE
  5
A3C
330
A02
100
AcDbEntity
  8
View001
100
AcDbCircle
 10
250.75
 20
150
 40
4
  0
LINE
  5
A3D
330
A02
100
AcDbEntity
  8
View001
100
AcDbLine
 10
56.25
 20
146.4
 30
0
 11
56.25
 21
144.7
 31
0
  0
LINE
  5
A3E
330
A02
100
AcDbEntity
  8
View001
100
AcDbLine
 10
58.25
 20
144.7
 30
0
 11
56.25
 21
144.7
 31
0
  0
LINE
  5
A3F
330
A02
100
AcDbEntity
  8
View001
100
AcDbLine
 10
53.6
 20
146.4
 30
0
 11
56.25
 21
146.4
 31
0
  0
LINE
  5
A40
330
A02
100
AcDbEntity
  8
View001
100
AcDbLine
 10
58.25
 20
146.4
 30
0
 11
58.25
 21
144.7
 31
0
  0
LINE
  5
A41
330
A02
100
AcDbEntity
  8
View001
100
AcDbLine
 10
53.6
 20
147.925
 30
0
 11
53.6
 21
146.4
 31
0
  0
LINE
  5
A42
330
A02
100
AcDbEntity
  8
View001
100
AcDbLine
 10
60.9
 20
146.4
 30
0
 11
58.25
 21
146.4
 31
0
  0
LINE
  5
A43
330
A02
100
AcDbEntity
  8
View001
100
AcDbLine
 10
51.75
 20
147.925
 30
0
 11
53.6
 21
147.925
 31
0
  0
LINE
  5
A44
330
A02
100
AcDbEntity
  8
View001
100
AcDbLine
 10
60.9
 20
147.925
 30
0
 11
60.9
 21
146.4
 31
0
  0
LINE
  5
A45
330
A02
100
AcDbEntity
  8
View001
100
AcDbLine
 10
51.75
 20
152.075
 30
0
 11
51.75
 21
147.925
 31
0
  0
LINE
  5
A46
330
A02
100
AcDbEntity
  8
View001
100
AcDbLine
 10
62.75
 20
147.925
 30
0
 11
60.9
 21
147.925
 31
0
  0
LINE
  5
A47
330
A02
100
AcDbEntity
  8
View001
100
AcDbLine
 10
53.6
 20
152.075
 30
0
 11
51.75
 21
152.075
 31
0
  0
LINE
  5
A48
330
A02
100
AcDbEntity
  8
View001
100
AcDbLine
 10
62.75
 20
152.075
 30
0
 11
62.75
 21
147.925
 31
0
  0
LINE
  5
A49
330
A02
100
AcDbEntity
  8
View001
100
AcDbLine
 10
53.6
 20
153.6
 30
0
 11
53.6
 21
152.075
 31
0
  0
LINE
  5
A4A
330
A02
100
AcDbEntity
  8
View001
100
AcDbLine
 10
60.9
 20
152.075
 30
0
 11
62.75
 21
152.075
 31
0
  0
LINE
  5
A4B
330
A02
100
AcDbEntity
  8
View001
100
AcDbLine
 10
60.9
 20
153.6
 30
0
 11
53.6
 21
153.6
 31
0
  0
LINE
  5
A4C
330
A02
100
AcDbEntity
  8
View001
100
AcDbLine
 10
60.9
 20
153.6
 30
0
 11
60.9
 21
152.075
 31
0
  0
LINE
  5
A4D
330
A02
100
AcDbEntity
  8
View001
100
AcDbLine
 10
81.25
 20
146.4
 30
0
 11
81.25
 21
144.7
 31
0
  0
LINE
  5
A4E
330
A02
100
AcDbEntity
  8
View001
100
AcDbLine
 10
83.25
 20
144.7
 30
0
 11
81.25
 21
144.7
 31
0
  0
LINE
  5
A4F
330
A02
100
AcDbEntity
  8
View001
100
AcDbLine
 10
78.6
 20
146.4
 30
0
 11
81.25
 21
146.4
 31
0
  0
LINE
  5
A50
330
A02
100
AcDbEntity
  8
View001
100
AcDbLine
 10
83.25
 20
146.4
 30
0
 11
83.25
 21
144.7
 31
0
  0
LINE
  5
A51
330
A02
100
AcDbEntity
  8
View001
100
AcDbLine
 10
78.6
 20
147.925
 30
0
 11
78.6
 21
146.4
 31
0
  0
LINE
  5
A52
330
A02
100
AcDbEntity
  8
View001
100
AcDbLine
 10
85.9
 20
146.4
 30
0
 11
83.25
 21
146.4
 31
0
  0
LINE
  5
A53
330
A02
100
AcDbEntity
  8
View001
100
AcDbLine
 10
76.75
 20
147.925
 30
0
 11
78.6
 21
147.925
 31
0
  0
LINE
  5
A54
330
A02
100
AcDbEntity
  8
View001
100
AcDbLine
 10
85.9
 20
147.925
 30
0
 11
85.9
 21
146.4
 31
0
  0
LINE
  5
A55
330
A02
100
AcDbEntity
  8
View001
100
AcDbLine
 10
76.75
 20
152.075
 30
0
 11
76.75
 21
147.925
 31
0
  0
LINE
  5
A56
330
A02
100
AcDbEntity
  8
View001
100
AcDbLine
 10
87.75
 20
147.925
 30
0
 11
85.9
 21
147.925
 31
0
  0
LINE
  5
A57
330
A02
100
AcDbEntity
  8
View001
100
AcDbLine
 10
78.6
 20
152.075
 30
0
 11
76.75
 21
152.075
 31
0
  0
LINE
  5
A58
330
A02
100
AcDbEntity
  8
View001
100
AcDbLine
 10
87.75
 20
152.075
 30
0
 11
87.75
 21
147.925
 31
0
  0
LINE
  5
A59
330
A02
100
AcDbEntity
  8
View001
100
AcDbLine
 10
78.6
 20
153.6
 30
0
 11
78.6
 21
152.075
 31
0
  0
LINE
  5
A5A
330
A02
100
AcDbEntity
  8
View001
100
AcDbLine
 10
85.9
 20
152.075
 30
0
 11
87.75
 21
152.075
 31
0
  0
LINE
  5
A5B
330
A02
100
AcDbEntity
  8
View001
100
AcDbLine
 10
85.9
 20
153.6
 30
0
 11
78.6
 21
153.6
 31
0
  0
LINE
  5
A5C
330
A02
100
AcDbEntity
  8
View001
100
AcDbLine
 10
85.9
 20
153.6
 30
0
 11
85.9
 21
152.075
 31
0
  0
LINE
  5
A5D
330
A02
100
AcDbEntity
  8
View001
100
AcDbLine
 10
148
 20
146.4
 30
0
 11
148
 21
144.7
 31
0
  0
LINE
  5
A5E
330
A02
100
AcDbEntity
  8
View001
100
AcDbLine
 10
150
 20
144.7
 30
0
 11
148
 21
144.7
 31
0
  0
LINE
  5
A5F
330
A02
100
AcDbEntity
  8
View001
100
AcDbLine
 10
145.35
 20
146.4
 30
0
 11
148
 21
146.4
 31
0
  0
LINE
  5
A60
330
A02
100
AcDbEntity
  8
View001
100
AcDbLine
 10
150
 20
146.4
 30
0
 11
150
 21
144.7
 31
0
  0
LINE
  5
A61
330
A02
100
AcDbEntity
  8
View001
100
AcDbLine
 10
145.35
 20
147.925
 30
0
 11
145.35
 21
146.4
 31
0
  0
LINE
  5
A62
330
A02
100
AcDbEntity
  8
View001
100
AcDbLine
 10
152.65
 20
146.4
 30
0
 11
150
 21
146.4
 31
0
  0
LINE
  5
A63
330
A02
100
AcDbEntity
  8
View001
100
AcDbLine
 10
143.5
 20
147.925
 30
0
 11
145.35
 21
147.925
 31
0
  0
LINE
  5
A64
330
A02
100
AcDbEntity
  8
View001
100
AcDbLine
 10
152.65
 20
147.925
 30
0
 11
152.65
 21
146.4
 31
0
  0
LINE
  5
A65
330
A02
100
AcDbEntity
  8
View001
100
AcDbLine
 10
143.5
 20
152.075
 30
0
 11
143.5
 21
147.925
 31
0
  0
LINE
  5
A66
330
A02
100
AcDbEntity
  8
View001
100
AcDbLine
 10
154.5
 20
147.925
 30
0
 11
152.65
 21
147.925
 31
0
  0
LINE
  5
A67
330
A02
100
AcDbEntity
  8
View001
100
AcDbLine
 10
145.35
 20
152.075
 30
0
 11
143.5
 21
152.075
 31
0
  0
LINE
  5
A68
330
A02
100
AcDbEntity
  8
View001
100
AcDbLine
 10
154.5
 20
152.075
 30
0
 11
154.5
 21
147.925
 31
0
  0
LINE
  5
A69
330
A02
100
AcDbEntity
  8
View001
100
AcDbLine
 10
145.35
 20
153.6
 30
0
 11
145.35
 21
152.075
 31
0
  0
LINE
  5
A6A
330
A02
100
AcDbEntity
  8
View001
100
AcDbLine
 10
152.65
 20
152.075
 30
0
 11
154.5
 21
152.075
 31
0
  0
LINE
  5
A6B
330
A02
100
AcDbEntity
  8
View001
100
AcDbLine
 10
152.65
 20
153.6
 30
0
 11
145.35
 21
153.6
 31
0
  0
LINE
  5
A6C
330
A02
100
AcDbEntity
  8
View001
100
AcDbLine
 10
152.65
 20
153.6
 30
0
 11
152.65
 21
152.075
 31
0
  0
CIRCLE
  5
A6D
330
A02
100
AcDbEntity
  8
View001
100
AcDbCircle
 10
225.75
 20
131.75
 40
4
  0
LINE
  5
A6E
330
A02
100
AcDbEntity
  8
SectionView001
100
AcDbLine
 10
49.75
 20
82
 30
0
 11
32.25
 21
82
 31
0
  0
LINE
  5
A6F
330
A02
100
AcDbEntity
  8
SectionView001
100
AcDbLine
 10
64.75
 20
82
 30
0
 11
49.75
 21
82
 31
0
  0
LINE
  5
A70
330
A02
100
AcDbEntity
  8
SectionView001
100
AcDbLine
 10
74.75
 20
82
 30
0
 11
64.75
 21
82
 31
0
  0
LINE
  5
A71
330
A02
100
AcDbEntity
  8
SectionView001
100
AcDbLine
 10
89.75
 20
82
 30
0
 11
74.75
 21
82
 31
0
  0
LINE
  5
A72
330
A02
100
AcDbEntity
  8
SectionView001
100
AcDbLine
 10
141.5
 20
82
 30
0
 11
89.75
 21
82
 31
0
  0
LINE
  5
A73
330
A02
100
AcDbEntity
  8
SectionView001
100
AcDbLine
 10
156.5
 20
82
 30
0
 11
141.5
 21
82
 31
0
  0
LINE
  5
A74
330
A02
100
AcDbEntity
  8
SectionView001
100
AcDbLine
 10
218.25
 20
82
 30
0
 11
156.5
 21
82
 31
0
  0
SPLINE
  5
A75
330
A02
100
AcDbEntity
  8
SectionView001
100
AcDbSpline
210
0
220
0
230
1
 70
8
 71
1
 72
17
 73
15
 74
0
 40
3.14159
 40
3.14159
 40
3.36599
 40
3.59039
 40
3.81479
 40
4.03919
 40
4.26359
 40
4.48799
 40
4.71239
 40
4.93679
 40
5.16119
 40
5.38559
 40
5.60999
 40
5.83439
 40
6.05879
 40
6.28319
 40
6.28319
 10
218.25
 20
82
 30
0
 10
218.438
 20
82
 30
0
 10
218.993
 20
82
 30
0
 10
219.886
 20
82
 30
0
 10
221.074
 20
82
 30
0
 10
222.496
 20
82
 30
0
 10
224.081
 20
82
 30
0
 10
225.75
 20
82
 30
0
 10
227.419
 20
82
 30
0
 10
229.004
 20
82
 30
0
 10
230.426
 20
82
 30
0
 10
231.614
 20
82
 30
0
 10
232.507
 20
82
 30
0
 10
233.062
 20
82
 30
0
 10
233.25
 20
82
 30
0
  0
LINE
  5
A76
330
A02
100
AcDbEntity
  8
SectionView001
100
AcDbLine
 10
243.25
 20
82
 30
0
 11
233.25
 21
82
 31
0
  0
SPLINE
  5
A77
330
A02
100
AcDbEntity
  8
SectionView001
100
AcDbSpline
210
0
220
0
230
1
 70
8
 71
1
 72
17
 73
15
 74
0
 40
3.14159
 40
3.14159
 40
3.36599
 40
3.59039
 40
3.81479
 40
4.03919
 40
4.26359
 40
4.48799
 40
4.71239
 40
4.93679
 40
5.16119
 40
5.38559
 40
5.60999
 40
5.83439
 40
6.05879
 40
6.28319
 40
6.28319
 10
243.25
 20
82
 30
0
 10
243.438
 20
82
 30
0
 10
243.993
 20
82
 30
0
 10
244.886
 20
82
 30
0
 10
246.074
 20
82
 30
0
 10
247.496
 20
82
 30
0
 10
249.081
 20
82
 30
0
 10
250.75
 20
82
 30
0
 10
252.419
 20
82
 30
0
 10
254.004
 20
82
 30
0
 10
255.426
 20
82
 30
0
 10
256.614
 20
82
 30
0
 10
257.507
 20
82
 30
0
 10
258.062
 20
82
 30
0
 10
258.25
 20
82
 30
0
  0
LINE
  5
A78
330
A02
100
AcDbEntity
  8
SectionView001
100
AcDbLine
 10
265.75
 20
82
 30
0
 11
258.25
 21
82
 31
0
  0
LINE
  5
A79
330
A02
100
AcDbEntity
  8
SectionView001
100
AcDbLine
 10
49.75
 20
80.5
 30
0
 11
49.75
 21
82
 31
0
  0
LINE
  5
A7A
330
A02
100
AcDbEntity
  8
SectionView001
100
AcDbLine
 10
51.75
 20
80.5
 30
0
 11
49.75
 21
80.5
 31
0
  0
LINE
  5
A7B
330
A02
100
AcDbEntity
  8
SectionView001
100
AcDbLine
 10
51.75
 20
78
 30
0
 11
51.75
 21
80.5
 31
0
  0
LINE
  5
A7C
330
A02
100
AcDbEntity
  8
SectionView001
100
AcDbLine
 10
51.75
 20
78
 30
0
 11
32.25
 21
78
 31
0
  0
LINE
  5
A7D
330
A02
100
AcDbEntity
  8
SectionView001
100
AcDbLine
 10
32.25
 20
82
 30
0
 11
32.25
 21
78
 31
0
  0
LINE
  5
A7E
330
A02
100
AcDbEntity
  8
SectionView001
100
AcDbLine
 10
64.75
 20
82
 30
0
 11
64.75
 21
80.5
 31
0
  0
LINE
  5
A7F
330
A02
100
AcDbEntity
  8
SectionView001
100
AcDbLine
 10
74.75
 20
80.5
 30
0
 11
74.75
 21
82
 31
0
  0
LINE
  5
A80
330
A02
100
AcDbEntity
  8
SectionView001
100
AcDbLine
 10
76.75
 20
80.5
 30
0
 11
74.75
 21
80.5
 31
0
  0
LINE
  5
A81
330
A02
100
AcDbEntity
  8
SectionView001
100
AcDbLine
 10
76.75
 20
78
 30
0
 11
76.75
 21
80.5
 31
0
  0
LINE
  5
A82
330
A02
100
AcDbEntity
  8
SectionView001
100
AcDbLine
 10
76.75
 20
78
 30
0
 11
62.75
 21
78
 31
0
  0
LINE
  5
A83
330
A02
100
AcDbEntity
  8
SectionView001
100
AcDbLine
 10
62.75
 20
78
 30
0
 11
62.75
 21
80.5
 31
0
  0
LINE
  5
A84
330
A02
100
AcDbEntity
  8
SectionView001
100
AcDbLine
 10
64.75
 20
80.5
 30
0
 11
62.75
 21
80.5
 31
0
  0
LINE
  5
A85
330
A02
100
AcDbEntity
  8
SectionView001
100
AcDbLine
 10
89.75
 20
82
 30
0
 11
89.75
 21
80.5
 31
0
  0
LINE
  5
A86
330
A02
100
AcDbEntity
  8
SectionView001
100
AcDbLine
 10
141.5
 20
80.5
 30
0
 11
141.5
 21
82
 31
0
  0
LINE
  5
A87
330
A02
100
AcDbEntity
  8
SectionView001
100
AcDbLine
 10
143.5
 20
80.5
 30
0
 11
141.5
 21
80.5
 31
0
  0
LINE
  5
A88
330
A02
100
AcDbEntity
  8
SectionView001
100
AcDbLine
 10
143.5
 20
78
 30
0
 11
143.5
 21
80.5
 31
0
  0
LINE
  5
A89
330
A02
100
AcDbEntity
  8
SectionView001
100
AcDbLine
 10
143.5
 20
78
 30
0
 11
87.75
 21
78
 31
0
  0
LINE
  5
A8A
330
A02
100
AcDbEntity
  8
SectionView001
100
AcDbLine
 10
87.75
 20
78
 30
0
 11
87.75
 21
80.5
 31
0
  0
LINE
  5
A8B
330
A02
100
AcDbEntity
  8
SectionView001
100
AcDbLine
 10
89.75
 20
80.5
 30
0
 11
87.75
 21
80.5
 31
0
  0
LINE
  5
A8C
330
A02
100
AcDbEntity
  8
SectionView001
100
AcDbLine
 10
156.5
 20
82
 30
0
 11
156.5
 21
80.5
 31
0
  0
LINE
  5
A8D
330
A02
100
AcDbEntity
  8
SectionView001
100
AcDbLine
 10
218.25
 20
80
 30
0
 11
218.25
 21
82
 31
0
  0
LINE
  5
A8E
330
A02
100
AcDbEntity
  8
SectionView001
100
AcDbLine
 10
221.75
 20
80
 30
0
 11
218.25
 21
80
 31
0
  0
LINE
  5
A8F
330
A02
100
AcDbEntity
  8
SectionView001
100
AcDbLine
 10
221.75
 20
80
 30
0
 11
221.75
 21
78
 31
0
  0
LINE
  5
A90
330
A02
100
AcDbEntity
  8
SectionView001
100
AcDbLine
 10
221.75
 20
78
 30
0
 11
154.5
 21
78
 31
0
  0
LINE
  5
A91
330
A02
100
AcDbEntity
  8
SectionView001
100
AcDbLine
 10
154.5
 20
78
 30
0
 11
154.5
 21
80.5
 31
0
  0
LINE
  5
A92
330
A02
100
AcDbEntity
  8
SectionView001
100
AcDbLine
 10
156.5
 20
80.5
 30
0
 11
154.5
 21
80.5
 31
0
  0
LINE
  5
A93
330
A02
100
AcDbEntity
  8
SectionView001
100
AcDbLine
 10
233.25
 20
82
 30
0
 11
233.25
 21
80
 31
0
  0
LINE
  5
A94
330
A02
100
AcDbEntity
  8
SectionView001
100
AcDbLine
 10
243.25
 20
80
 30
0
 11
243.25
 21
82
 31
0
  0
LINE
  5
A95
330
A02
100
AcDbEntity
  8
SectionView001
100
AcDbLine
 10
246.75
 20
80
 30
0
 11
243.25
 21
80
 31
0
  0
LINE
  5
A96
330
A02
100
AcDbEntity
  8
SectionView001
100
AcDbLine
 10
246.75
 20
80
 30
0
 11
246.75
 21
78
 31
0
  0
LINE
  5
A97
330
A02
100
AcDbEntity
  8
SectionView001
100
AcDbLine
 10
246.75
 20
78
 30
0
 11
229.75
 21
78
 31
0
  0
LINE
  5
A98
330
A02
100
AcDbEntity
  8
SectionView001
100
AcDbLine
 10
229.75
 20
78
 30
0
 11
229.75
 21
80
 31
0
  0
LINE
  5
A99
330
A02
100
AcDbEntity
  8
SectionView001
100
AcDbLine
 10
233.25
 20
80
 30
0
 11
229.75
 21
80
 31
0
  0
LINE
  5
A9A
330
A02
100
AcDbEntity
  8
SectionView001
100
AcDbLine
 10
258.25
 20
82
 30
0
 11
258.25
 21
80
 31
0
  0
LINE
  5
A9B
330
A02
100
AcDbEntity
  8
SectionView001
100
AcDbLine
 10
265.75
 20
82
 30
0
 11
265.75
 21
78
 31
0
  0
LINE
  5
A9C
330
A02
100
AcDbEntity
  8
SectionView001
100
AcDbLine
 10
265.75
 20
78
 30
0
 11
254.75
 21
78
 31
0
  0
LINE
  5
A9D
330
A02
100
AcDbEntity
  8
SectionView001
100
AcDbLine
 10
254.75
 20
78
 30
0
 11
254.75
 21
80
 31
0
  0
LINE
  5
A9E
330
A02
100
AcDbEntity
  8
SectionView001
100
AcDbLine
 10
258.25
 20
80
 30
0
 11
254.75
 21
80
 31
0
  0
LINE
  5
A9F
330
A02
100
AcDbEntity
  8
SectionView001
100
AcDbLine
 10
53.6
 20
80.5
 30
0
 11
51.75
 21
80.5
 31
0
  0
LINE
  5
AA0
330
A02
100
AcDbEntity
  8
SectionView001
100
AcDbLine
 10
60.9
 20
80.5
 30
0
 11
53.6
 21
80.5
 31
0
  0
LINE
  5
AA1
330
A02
100
AcDbEntity
  8
SectionView001
100
AcDbLine
 10
60.9
 20
80.5
 30
0
 11
62.75
 21
80.5
 31
0
  0
LINE
  5
AA2
330
A02
100
AcDbEntity
  8
SectionView001
100
AcDbLine
 10
51.75
 20
78
 30
0
 11
53.6
 21
78
 31
0
  0
LINE
  5
AA3
330
A02
100
AcDbEntity
  8
SectionView001
100
AcDbLine
 10
53.6
 20
78
 30
0
 11
60.9
 21
78
 31
0
  0
LINE
  5
AA4
330
A02
100
AcDbEntity
  8
SectionView001
100
AcDbLine
 10
62.75
 20
78
 30
0
 11
60.9
 21
78
 31
0
  0
LINE
  5
AA5
330
A02
100
AcDbEntity
  8
SectionView001
100
AcDbLine
 10
76.75
 20
78
 30
0
 11
78.6
 21
78
 31
0
  0
LINE
  5
AA6
330
A02
100
AcDbEntity
  8
SectionView001
100
AcDbLine
 10
78.6
 20
78
 30
0
 11
85.9
 21
78
 31
0
  0
LINE
  5
AA7
330
A02
100
AcDbEntity
  8
SectionView001
100
AcDbLine
 10
87.75
 20
78
 30
0
 11
85.9
 21
78
 31
0
  0
LINE
  5
AA8
330
A02
100
AcDbEntity
  8
SectionView001
100
AcDbLine
 10
143.5
 20
78
 30
0
 11
145.35
 21
78
 31
0
  0
LINE
  5
AA9
330
A02
100
AcDbEntity
  8
SectionView001
100
AcDbLine
 10
145.35
 20
78
 30
0
 11
152.65
 21
78
 31
0
  0
LINE
  5
AAA
330
A02
100
AcDbEntity
  8
SectionView001
100
AcDbLine
 10
154.5
 20
78
 30
0
 11
152.65
 21
78
 31
0
  0
SPLINE
  5
AAB
330
A02
100
AcDbEntity
  8
SectionView001
100
AcDbSpline
210
0
220
0
230
1
 70
8
 71
1
 72
17
 73
15
 74
0
 40
3.14159
 40
3.14159
 40
3.36599
 40
3.59039
 40
3.81479
 40
4.03919
 40
4.26359
 40
4.48799
 40
4.71239
 40
4.93679
 40
5.16119
 40
5.38559
 40
5.60999
 40
5.83439
 40
6.05879
 40
6.28319
 40
6.28319
 10
221.75
 20
78
 30
0
 10
221.85
 20
78
 30
0
 10
222.146
 20
78
 30
0
 10
222.623
 20
78
 30
0
 10
223.256
 20
78
 30
0
 10
224.014
 20
78
 30
0
 10
224.86
 20
78
 30
0
 10
225.75
 20
78
 30
0
 10
226.64
 20
78
 30
0
 10
227.486
 20
78
 30
0
 10
228.244
 20
78
 30
0
 10
228.877
 20
78
 30
0
 10
229.354
 20
78
 30
0
 10
229.65
 20
78
 30
0
 10
229.75
 20
78
 30
0
  0
SPLINE
  5
AAC
330
A02
100
AcDbEntity
  8
SectionView001
100
AcDbSpline
210
0
220
0
230
1
 70
8
 71
1
 72
17
 73
15
 74
0
 40
3.14159
 40
3.14159
 40
3.36599
 40
3.59039
 40
3.81479
 40
4.03919
 40
4.26359
 40
4.48799
 40
4.71239
 40
4.93679
 40
5.16119
 40
5.38559
 40
5.60999
 40
5.83439
 40
6.05879
 40
6.28319
 40
6.28319
 10
246.75
 20
78
 30
0
 10
246.85
 20
78
 30
0
 10
247.146
 20
78
 30
0
 10
247.623
 20
78
 30
0
 10
248.256
 20
78
 30
0
 10
249.014
 20
78
 30
0
 10
249.86
 20
78
 30
0
 10
250.75
 20
78
 30
0
 10
251.64
 20
78
 30
0
 10
252.486
 20
78
 30
0
 10
253.244
 20
78
 30
0
 10
253.877
 20
78
 30
0
 10
254.354
 20
78
 30
0
 10
254.65
 20
78
 30
0
 10
254.75
 20
78
 30
0
  0
LINE
  5
AAD
330
A02
100
AcDbEntity
  8
SectionView001
100
AcDbLine
 10
78.6
 20
80.5
 30
0
 11
76.75
 21
80.5
 31
0
  0
LINE
  5
AAE
330
A02
100
AcDbEntity
  8
SectionView001
100
AcDbLine
 10
85.9
 20
80.5
 30
0
 11
78.6
 21
80.5
 31
0
  0
LINE
  5
AAF
330
A02
100
AcDbEntity
  8
SectionView001
100
AcDbLine
 10
85.9
 20
80.5
 30
0
 11
87.75
 21
80.5
 31
0
  0
LINE
  5
AB0
330
A02
100
AcDbEntity
  8
SectionView001
100
AcDbLine
 10
145.35
 20
80.5
 30
0
 11
143.5
 21
80.5
 31
0
  0
LINE
  5
AB1
330
A02
100
AcDbEntity
  8
SectionView001
100
AcDbLine
 10
152.65
 20
80.5
 30
0
 11
145.35
 21
80.5
 31
0
  0
LINE
  5
AB2
330
A02
100
AcDbEntity
  8
SectionView001
100
AcDbLine
 10
152.65
 20
80.5
 30
0
 11
154.5
 21
80.5
 31
0
  0
SPLINE
  5
AB3
330
A02
100
AcDbEntity
  8
SectionView001
100
AcDbSpline
210
0
220
0
230
1
 70
8
 71
1
 72
17
 73
15
 74
0
 40
3.14159
 40
3.14159
 40
3.36599
 40
3.59039
 40
3.81479
 40
4.03919
 40
4.26359
 40
4.48799
 40
4.71239
 40
4.93679
 40
5.16119
 40
5.38559
 40
5.60999
 40
5.83439
 40
6.05879
 40
6.28319
 40
6.28319
 10
221.75
 20
80
 30
0
 10
221.85
 20
80
 30
0
 10
222.146
 20
80
 30
0
 10
222.623
 20
80
 30
0
 10
223.256
 20
80
 30
0
 10
224.014
 20
80
 30
0
 10
224.86
 20
80
 30
0
 10
225.75
 20
80
 30
0
 10
226.64
 20
80
 30
0
 10
227.486
 20
80
 30
0
 10
228.244
 20
80
 30
0
 10
228.877
 20
80
 30
0
 10
229.354
 20
80
 30
0
 10
229.65
 20
80
 30
0
 10
229.75
 20
80
 30
0
  0
SPLINE
  5
AB4
330
A02
100
AcDbEntity
  8
SectionView001
100
AcDbSpline
210
0
220
0
230
1
 70
8
 71
1
 72
17
 73
15
 74
0
 40
3.14159
 40
3.14159
 40
3.36599
 40
3.59039
 40
3.81479
 40
4.03919
 40
4.26359
 40
4.48799
 40
4.71239
 40
4.93679
 40
5.16119
 40
5.38559
 40
5.60999
 40
5.83439
 40
6.05879
 40
6.28319
 40
6.28319
 10
246.75
 20
80
 30
0
 10
246.85
 20
80
 30
0
 10
247.146
 20
80
 30
0
 10
247.623
 20
80
 30
0
 10
248.256
 20
80
 30
0
 10
249.014
 20
80
 30
0
 10
249.86
 20
80
 30
0
 10
250.75
 20
80
 30
0
 10
251.64
 20
80
 30
0
 10
252.486
 20
80
 30
0
 10
253.244
 20
80
 30
0
 10
253.877
 20
80
 30
0
 10
254.354
 20
80
 30
0
 10
254.65
 20
80
 30
0
 10
254.75
 20
80
 30
0
  0
LINE
  5
AB5
330
A02
100
AcDbEntity
  8
SectionView001
100
AcDbLine
 10
53.6
 20
78
 30
0
 11
53.6
 21
80.5
 31
0
  0
LINE
  5
AB6
330
A02
100
AcDbEntity
  8
SectionView001
100
AcDbLine
 10
60.9
 20
78
 30
0
 11
60.9
 21
80.5
 31
0
  0
LINE
  5
AB7
330
A02
100
AcDbEntity
  8
SectionView001
100
AcDbLine
 10
78.6
 20
78
 30
0
 11
78.6
 21
80.5
 31
0
  0
LINE
  5
AB8
330
A02
100
AcDbEntity
  8
SectionView001
100
AcDbLine
 10
85.9
 20
78
 30
0
 11
85.9
 21
80.5
 31
0
  0
LINE
  5
AB9
330
A02
100
AcDbEntity
  8
SectionView001
100
AcDbLine
 10
145.35
 20
78
 30
0
 11
145.35
 21
80.5
 31
0
  0
LINE
  5
ABA
330
A02
100
AcDbEntity
  8
SectionView001
100
AcDbLine
 10
152.65
 20
78
 30
0
 11
152.65
 21
80.5
 31
0
  0
DIMENSION
  5
ABB
330
A02
100
AcDbEntity
  8
Dimension045
100
AcDbDimension
  2
*Dimension045
 10
29.3954
 20
91.6637
 30
0
 11
24.3954
 21
91.6637
 31
0
 70
32
  1
4,00
  3
STANDARD
100
AcDbAlignedDimension
 13
32.25
 23
82
 33
0
 14
32.25
 24
78
 34
0
 50
90
100
AcDbRotatedDimension
  0
DIMENSION
  5
AC5
330
A02
100
AcDbEntity
  8
Dimension047
100
AcDbDimension
  2
*Dimension047
 10
263.381
 20
93.9728
 30
0
 11
258.381
 21
93.9728
 31
0
 70
32
  1
2,00
  3
STANDARD
100
AcDbAlignedDimension
 13
258.25
 23
82
 33
0
 14
258.25
 24
80
 34
0
 50
90
100
AcDbRotatedDimension
  0
DIMENSION
  5
ACF
330
A02
100
AcDbEntity
  8
Dimension049
100
AcDbDimension
  2
*Dimension049
 10
94.2264
 20
94.3537
 30
0
 11
89.2264
 21
94.3537
 31
0
 70
32
  1
1,50
  3
STANDARD
100
AcDbAlignedDimension
 13
89.75
 23
82
 33
0
 14
89.75
 24
80.5
 34
0
 50
90
100
AcDbRotatedDimension
  0
ENDSEC
  0
SECTION
  2
OBJECTS
  0
DICTIONARY
  5
F000
330
0
100
AcDbDictionary
  3
ACAD_GROUP
350
F001
  0
DICTIONARY
  5
F001
330
F000
100
AcDbDictionary
  0
ENDSEC
  0
EOF