  0
SECTION
  2
HEADER
  9
$MEASUREMENT
  70
  1
  9
$INSUNITS
  70
  4
  0
ENDSEC
  0
SECTION
  2
TABLES
  0
TABLE
  2
LTYPE
 70
     1
  0
LTYPE
  2
CONTINUOUS
 70
    64
  3
Ausgezogene Linie
 72
    65
 73
     0
 40
0.0
  0
ENDTAB
  0
TABLE
  2
LAYER
 70
     3
  0
LAYER
  2
Kontur
 70
    64
 62
     7
  6
CONTINUOUS
  0
LAYER
  2
Gravur
 70
    64
 62
     7
  6
CONTINUOUS
  0
LAYER
  2
Bezugspunkte
 70
    64
 62
     1
  6
CONTINUOUS
  0
ENDTAB
  0
TABLE
  2
STYLE
 70
     1
  0
STYLE
  2
TXT
 70
    64
 40
0.0
 41
1.0
 50
0.0
 71
     0
 42
3.500000
  3
TXT
  0
ENDTAB
  0
ENDSEC
  0
SECTION
  2
BLOCKS
  0
ENDSEC
  0
SECTION
  2
ENTITIES
  0
ARC
  8
Kontur
 62
   7
 39
0.100
  6
CONTINUOUS
 10
116.75000
 20
64.95000
 30
 0
 40
1.55000
 50
180.03697
 51
360.00000
  0
LINE
  8
Kontur
 62
   7
 39
0.100
  6
CONTINUOUS
 10
118.30000
 20
64.95000
 30
 0
 11
118.30000
 21
64.95000
  0
LINE
  8
Kontur
 62
   7
 39
0.100
  6
CONTINUOUS
 10
118.30000
 20
64.95000
 30
 0
 11
118.30000
 21
66.49900
  0
LINE
  8
Kontur
 62
   7
 39
0.100
  6
CONTINUOUS
 10
118.30000
 20
66.49900
 30
 0
 11
231.30800
 21
66.50000
  0
LINE
  8
Kontur
 62
   7
 39
0.100
  6
CONTINUOUS
 10
231.30800
 20
66.50000
 30
 0
 11
230.85200
 21
66.04300
  0
ARC
  8
Kontur
 62
   7
 39
0.100
  6
CONTINUOUS
 10
231.95025
 20
64.94975
 30
 0
 40
1.54963
 50
135.13074
 51
314.99999
  0
LINE
  8
Kontur
 62
   7
 39
0.100
  6
CONTINUOUS
 10
233.04600
 20
63.85400
 30
 0
 11
233.04600
 21
63.85400
  0
LINE
  8
Kontur
 62
   7
 39
0.100
  6
CONTINUOUS
 10
233.04600
 20
63.85400
 30
 0
 11
233.49900
 21
64.30700
  0
LINE
  8
Kontur
 62
   7
 39
0.100
  6
CONTINUOUS
 10
233.49900
 20
64.30700
 30
 0
 11
233.50000
 21
2.19200
  0
LINE
  8
Kontur
 62
   7
 39
0.100
  6
CONTINUOUS
 10
233.50000
 20
2.19200
 30
 0
 11
233.04300
 21
2.64800
  0
ARC
  8
Kontur
 62
   7
 39
0.100
  6
CONTINUOUS
 10
231.94975
 20
1.54975
 30
 0
 40
1.54963
 50
45.13074
 51
224.99999
  0
LINE
  8
Kontur
 62
   7
 39
0.100
  6
CONTINUOUS
 10
230.85400
 20
0.45400
 30
 0
 11
230.85400
 21
0.45400
  0
LINE
  8
Kontur
 62
   7
 39
0.100
  6
CONTINUOUS
 10
230.85400
 20
0.45400
 30
 0
 11
231.30700
 21
0.00100
  0
LINE
  8
Kontur
 62
   7
 39
0.100
  6
CONTINUOUS
 10
231.30700
 20
0.00100
 30
 0
 11
118.30000
 21
0.00000
  0
LINE
  8
Kontur
 62
   7
 39
0.100
  6
CONTINUOUS
 10
118.30000
 20
0.00000
 30
 0
 11
118.30000
 21
1.55100
  0
ARC
  8
Kontur
 62
   7
 39
0.100
  6
CONTINUOUS
 10
116.75000
 20
1.55000
 30
 0
 40
1.55000
 50
0.03697
 51
180.00000
  0
LINE
  8
Kontur
 62
   7
 39
0.100
  6
CONTINUOUS
 10
115.20000
 20
1.55000
 30
 0
 11
115.20000
 21
1.55000
  0
LINE
  8
Kontur
 62
   7
 39
0.100
  6
CONTINUOUS
 10
115.20000
 20
1.55000
 30
 0
 11
115.20000
 21
0.00100
  0
LINE
  8
Kontur
 62
   7
 39
0.100
  6
CONTINUOUS
 10
115.20000
 20
0.00100
 30
 0
 11
2.19200
 21
0.00000
  0
LINE
  8
Kontur
 62
   7
 39
0.100
  6
CONTINUOUS
 10
2.19200
 20
0.00000
 30
 0
 11
2.64800
 21
0.45700
  0
ARC
  8
Kontur
 62
   7
 39
0.100
  6
CONTINUOUS
 10
1.54975
 20
1.55025
 30
 0
 40
1.54963
 50
315.13074
 51
494.99999
  0
LINE
  8
Kontur
 62
   7
 39
0.100
  6
CONTINUOUS
 10
0.45400
 20
2.64600
 30
 0
 11
0.45400
 21
2.64600
  0
LINE
  8
Kontur
 62
   7
 39
0.100
  6
CONTINUOUS
 10
0.45400
 20
2.64600
 30
 0
 11
0.00100
 21
2.19300
  0
LINE
  8
Kontur
 62
   7
 39
0.100
  6
CONTINUOUS
 10
0.00100
 20
2.19300
 30
 0
 11
0.00000
 21
64.30800
  0
LINE
  8
Kontur
 62
   7
 39
0.100
  6
CONTINUOUS
 10
0.00000
 20
64.30800
 30
 0
 11
0.45700
 21
63.85200
  0
ARC
  8
Kontur
 62
   7
 39
0.100
  6
CONTINUOUS
 10
1.55025
 20
64.95025
 30
 0
 40
1.54963
 50
225.13074
 51
404.99999
  0
LINE
  8
Kontur
 62
   7
 39
0.100
  6
CONTINUOUS
 10
2.64600
 20
66.04600
 30
 0
 11
2.64600
 21
66.04600
  0
LINE
  8
Kontur
 62
   7
 39
0.100
  6
CONTINUOUS
 10
2.64600
 20
66.04600
 30
 0
 11
2.19300
 21
66.49900
  0
LINE
  8
Kontur
 62
   7
 39
0.100
  6
CONTINUOUS
 10
2.19300
 20
66.49900
 30
 0
 11
115.20000
 21
66.50000
  0
LINE
  8
Kontur
 62
   7
 39
0.100
  6
CONTINUOUS
 10
115.20000
 20
66.50000
 30
 0
 11
115.20000
 21
64.94900
  0
LINE
  8
Gravur
 62
   7
 39
0.400
  6
CONTINUOUS
 10
76.71673
 20
62.19344
 30
 0
 11
77.28629
 21
62.76300
  0
LINE
  8
Gravur
 62
   7
 39
0.400
  6
CONTINUOUS
 10
77.28629
 20
62.76300
 30
 0
 11
77.28629
 21
60.20000
  0
LINE
  8
Gravur
 62
   7
 39
0.400
  6
CONTINUOUS
 10
77.99921
 20
62.50670
 30
 0
 11
78.17008
 21
62.64909
  0
ARC
  8
Gravur
 62
   7
 39
0.400
  6
CONTINUOUS
 10
78.63178
 20
62.11406
 30
 0
 40
0.70669
 50
-40.79241
 51
130.79241
  0
LINE
  8
Gravur
 62
   7
 39
0.400
  6
CONTINUOUS
 10
79.16680
 20
61.65237
 30
 0
 11
77.97073
 21
60.20000
  0
LINE
  8
Gravur
 62
   7
 39
0.400
  6
CONTINUOUS
 10
77.97073
 20
60.20000
 30
 0
 11
79.39462
 21
60.20000
  0
LINE
  8
Gravur
 62
   7
 39
0.400
  6
CONTINUOUS
 10
80.07773
 20
62.76200
 30
 0
 11
80.93207
 21
60.19900
  0
LINE
  8
Gravur
 62
   7
 39
0.400
  6
CONTINUOUS
 10
80.93207
 20
60.19900
 30
 0
 11
81.78640
 21
62.76200
  0
LINE
  8
Gravur
 62
   7
 39
0.400
  6
CONTINUOUS
 10
101.71673
 20
62.19344
 30
 0
 11
102.28629
 21
62.76300
  0
LINE
  8
Gravur
 62
   7
 39
0.400
  6
CONTINUOUS
 10
102.28629
 20
62.76300
 30
 0
 11
102.28629
 21
60.20000
  0
LINE
  8
Gravur
 62
   7
 39
0.400
  6
CONTINUOUS
 10
102.99921
 20
62.50670
 30
 0
 11
103.17008
 21
62.64909
  0
ARC
  8
Gravur
 62
   7
 39
0.400
  6
CONTINUOUS
 10
103.63178
 20
62.11406
 30
 0
 40
0.70669
 50
-40.79241
 51
130.79241
  0
LINE
  8
Gravur
 62
   7
 39
0.400
  6
CONTINUOUS
 10
104.16680
 20
61.65237
 30
 0
 11
102.97073
 21
60.20000
  0
LINE
  8
Gravur
 62
   7
 39
0.400
  6
CONTINUOUS
 10
102.97073
 20
60.20000
 30
 0
 11
104.39462
 21
60.20000
  0
LINE
  8
Gravur
 62
   7
 39
0.400
  6
CONTINUOUS
 10
105.07773
 20
62.76200
 30
 0
 11
105.93207
 21
60.19900
  0
LINE
  8
Gravur
 62
   7
 39
0.400
  6
CONTINUOUS
 10
105.93207
 20
60.19900
 30
 0
 11
106.78640
 21
62.76200
  0
LINE
  8
Gravur
 62
   7
 39
0.400
  6
CONTINUOUS
 10
126.71673
 20
62.19344
 30
 0
 11
127.28629
 21
62.76300
  0
LINE
  8
Gravur
 62
   7
 39
0.400
  6
CONTINUOUS
 10
127.28629
 20
62.76300
 30
 0
 11
127.28629
 21
60.20000
  0
LINE
  8
Gravur
 62
   7
 39
0.400
  6
CONTINUOUS
 10
127.99921
 20
62.50670
 30
 0
 11
128.17008
 21
62.64909
  0
ARC
  8
Gravur
 62
   7
 39
0.400
  6
CONTINUOUS
 10
128.63178
 20
62.11406
 30
 0
 40
0.70669
 50
-40.79241
 51
130.79241
  0
LINE
  8
Gravur
 62
   7
 39
0.400
  6
CONTINUOUS
 10
129.16680
 20
61.65237
 30
 0
 11
127.97073
 21
60.20000
  0
LINE
  8
Gravur
 62
   7
 39
0.400
  6
CONTINUOUS
 10
127.97073
 20
60.20000
 30
 0
 11
129.39462
 21
60.20000
  0
LINE
  8
Gravur
 62
   7
 39
0.400
  6
CONTINUOUS
 10
130.07773
 20
62.76200
 30
 0
 11
130.93207
 21
60.19900
  0
LINE
  8
Gravur
 62
   7
 39
0.400
  6
CONTINUOUS
 10
130.93207
 20
60.19900
 30
 0
 11
131.78640
 21
62.76200
  0
LINE
  8
Gravur
 62
   7
 39
0.400
  6
CONTINUOUS
 10
151.71673
 20
62.19344
 30
 0
 11
152.28629
 21
62.76300
  0
LINE
  8
Gravur
 62
   7
 39
0.400
  6
CONTINUOUS
 10
152.28629
 20
62.76300
 30
 0
 11
152.28629
 21
60.20000
  0
LINE
  8
Gravur
 62
   7
 39
0.400
  6
CONTINUOUS
 10
152.99921
 20
62.50670
 30
 0
 11
153.17008
 21
62.64909
  0
ARC
  8
Gravur
 62
   7
 39
0.400
  6
CONTINUOUS
 10
153.63178
 20
62.11406
 30
 0
 40
0.70669
 50
-40.79241
 51
130.79241
  0
LINE
  8
Gravur
 62
   7
 39
0.400
  6
CONTINUOUS
 10
154.16680
 20
61.65237
 30
 0
 11
152.97073
 21
60.20000
  0
LINE
  8
Gravur
 62
   7
 39
0.400
  6
CONTINUOUS
 10
152.97073
 20
60.20000
 30
 0
 11
154.39462
 21
60.20000
  0
LINE
  8
Gravur
 62
   7
 39
0.400
  6
CONTINUOUS
 10
155.07773
 20
62.76200
 30
 0
 11
155.93207
 21
60.19900
  0
LINE
  8
Gravur
 62
   7
 39
0.400
  6
CONTINUOUS
 10
155.93207
 20
60.19900
 30
 0
 11
156.78640
 21
62.76200
  0
LINE
  8
Gravur
 62
   7
 39
0.400
  6
CONTINUOUS
 10
78.65271
 20
26.26300
 30
 0
 11
77.37121
 21
26.26300
  0
LINE
  8
Gravur
 62
   7
 39
0.400
  6
CONTINUOUS
 10
77.37121
 20
26.26300
 30
 0
 11
77.37121
 21
25.06693
  0
ARC
  8
Gravur
 62
   7
 39
0.400
  6
CONTINUOUS
 10
77.96724
 20
24.29473
 30
 0
 40
0.97548
 50
84.85750
 51
127.66291
  0
ARC
  8
Gravur
 62
   7
 39
0.400
  6
CONTINUOUS
 10
77.97692
 20
24.44586
 30
 0
 40
0.82410
 50
-44.24474
 51
84.58605
  0
ARC
  8
Gravur
 62
   7
 39
0.400
  6
CONTINUOUS
 10
78.01824
 20
24.40952
 30
 0
 40
0.76914
 50
208.56608
 51
315.54698
  0
LINE
  8
Gravur
 62
   7
 39
0.400
  6
CONTINUOUS
 10
79.45073
 20
26.26300
 30
 0
 11
80.30507
 21
23.70000
  0
LINE
  8
Gravur
 62
   7
 39
0.400
  6
CONTINUOUS
 10
80.30507
 20
23.70000
 30
 0
 11
81.15940
 21
26.26300
  0
LINE
  8
Gravur
 62
   7
 39
0.400
  6
CONTINUOUS
 10
103.65271
 20
26.26300
 30
 0
 11
102.37121
 21
26.26300
  0
LINE
  8
Gravur
 62
   7
 39
0.400
  6
CONTINUOUS
 10
102.37121
 20
26.26300
 30
 0
 11
102.37121
 21
25.06693
  0
ARC
  8
Gravur
 62
   7
 39
0.400
  6
CONTINUOUS
 10
102.96724
 20
24.29473
 30
 0
 40
0.97548
 50
84.85750
 51
127.66291
  0
ARC
  8
Gravur
 62
   7
 39
0.400
  6
CONTINUOUS
 10
102.97692
 20
24.44586
 30
 0
 40
0.82410
 50
-44.24474
 51
84.58605
  0
ARC
  8
Gravur
 62
   7
 39
0.400
  6
CONTINUOUS
 10
103.01824
 20
24.40952
 30
 0
 40
0.76914
 50
208.56608
 51
315.54698
  0
LINE
  8
Gravur
 62
   7
 39
0.400
  6
CONTINUOUS
 10
104.45073
 20
26.26300
 30
 0
 11
105.30507
 21
23.70000
  0
LINE
  8
Gravur
 62
   7
 39
0.400
  6
CONTINUOUS
 10
105.30507
 20
23.70000
 30
 0
 11
106.15940
 21
26.26300
  0
LINE
  8
Gravur
 62
   7
 39
0.400
  6
CONTINUOUS
 10
128.65271
 20
26.26300
 30
 0
 11
127.37121
 21
26.26300
  0
LINE
  8
Gravur
 62
   7
 39
0.400
  6
CONTINUOUS
 10
127.37121
 20
26.26300
 30
 0
 11
127.37121
 21
25.06693
  0
ARC
  8
Gravur
 62
   7
 39
0.400
  6
CONTINUOUS
 10
127.96724
 20
24.29473
 30
 0
 40
0.97548
 50
84.85750
 51
127.66291
  0
ARC
  8
Gravur
 62
   7
 39
0.400
  6
CONTINUOUS
 10
127.97692
 20
24.44586
 30
 0
 40
0.82410
 50
-44.24474
 51
84.58605
  0
ARC
  8
Gravur
 62
   7
 39
0.400
  6
CONTINUOUS
 10
128.01824
 20
24.40952
 30
 0
 40
0.76914
 50
208.56608
 51
315.54698
  0
LINE
  8
Gravur
 62
   7
 39
0.400
  6
CONTINUOUS
 10
129.45073
 20
26.26300
 30
 0
 11
130.30507
 21
23.70000
  0
LINE
  8
Gravur
 62
   7
 39
0.400
  6
CONTINUOUS
 10
130.30507
 20
23.70000
 30
 0
 11
131.15940
 21
26.26300
  0
LINE
  8
Gravur
 62
   7
 39
0.400
  6
CONTINUOUS
 10
153.65271
 20
26.26300
 30
 0
 11
152.37121
 21
26.26300
  0
LINE
  8
Gravur
 62
   7
 39
0.400
  6
CONTINUOUS
 10
152.37121
 20
26.26300
 30
 0
 11
152.37121
 21
25.06693
  0
ARC
  8
Gravur
 62
   7
 39
0.400
  6
CONTINUOUS
 10
152.96724
 20
24.29473
 30
 0
 40
0.97548
 50
84.85750
 51
127.66291
  0
ARC
  8
Gravur
 62
   7
 39
0.400
  6
CONTINUOUS
 10
152.97692
 20
24.44586
 30
 0
 40
0.82410
 50
-44.24474
 51
84.58605
  0
ARC
  8
Gravur
 62
   7
 39
0.400
  6
CONTINUOUS
 10
153.01824
 20
24.40952
 30
 0
 40
0.76914
 50
208.56608
 51
315.54698
  0
LINE
  8
Gravur
 62
   7
 39
0.400
  6
CONTINUOUS
 10
154.45073
 20
26.26300
 30
 0
 11
155.30507
 21
23.70000
  0
LINE
  8
Gravur
 62
   7
 39
0.400
  6
CONTINUOUS
 10
155.30507
 20
23.70000
 30
 0
 11
156.15940
 21
26.26300
  0
LINE
  8
Gravur
 62
   7
 39
0.400
  6
CONTINUOUS
 10
190.90973
 20
58.70000
 30
 0
 11
190.90973
 21
61.26300
  0
LINE
  8
Gravur
 62
   7
 39
0.400
  6
CONTINUOUS
 10
190.90973
 20
61.26300
 30
 0
 11
191.84950
 21
61.26300
  0
ARC
  8
Gravur
 62
   7
 39
0.400
  6
CONTINUOUS
 10
191.84950
 20
60.62225
 30
 0
 40
0.64075
 50
-90.00000
 51
90.00000
  0
LINE
  8
Gravur
 62
   7
 39
0.400
  6
CONTINUOUS
 10
191.84950
 20
59.98150
 30
 0
 11
190.90973
 21
59.98150
  0
LINE
  8
Gravur
 62
   7
 39
0.400
  6
CONTINUOUS
 10
193.13173
 20
61.26300
 30
 0
 11
194.01454
 21
61.26300
  0
ARC
  8
Gravur
 62
   7
 39
0.400
  6
CONTINUOUS
 10
193.98138
 20
60.40461
 30
 0
 40
0.85903
 50
0.27068
 51
87.78728
  0
LINE
  8
Gravur
 62
   7
 39
0.400
  6
CONTINUOUS
 10
194.84040
 20
60.40867
 30
 0
 11
194.84040
 21
59.55433
  0
ARC
  8
Gravur
 62
   7
 39
0.400
  6
CONTINUOUS
 10
194.01597
 20
59.52495
 30
 0
 40
0.82495
 50
-90.09907
 51
2.04111
  0
LINE
  8
Gravur
 62
   7
 39
0.400
  6
CONTINUOUS
 10
194.01454
 20
58.70000
 30
 0
 11
193.13173
 21
58.70000
  0
LINE
  8
Gravur
 62
   7
 39
0.400
  6
CONTINUOUS
 10
193.13173
 20
58.70000
 30
 0
 11
193.13173
 21
61.26300
  0
LINE
  8
Gravur
 62
   7
 39
0.400
  6
CONTINUOUS
 10
195.52373
 20
60.69244
 30
 0
 11
196.09329
 21
61.26200
  0
LINE
  8
Gravur
 62
   7
 39
0.400
  6
CONTINUOUS
 10
196.09329
 20
61.26200
 30
 0
 11
196.09329
 21
58.69900
  0
LINE
  8
Gravur
 62
   7
 39
0.400
  6
CONTINUOUS
 10
190.48173
 20
40.45000
 30
 0
 11
190.48173
 21
43.01300
  0
LINE
  8
Gravur
 62
   7
 39
0.400
  6
CONTINUOUS
 10
190.48173
 20
43.01300
 30
 0
 11
191.42150
 21
43.01300
  0
ARC
  8
Gravur
 62
   7
 39
0.400
  6
CONTINUOUS
 10
191.42150
 20
42.37225
 30
 0
 40
0.64075
 50
-90.00000
 51
90.00000
  0
LINE
  8
Gravur
 62
   7
 39
0.400
  6
CONTINUOUS
 10
191.42150
 20
41.73150
 30
 0
 11
190.48173
 21
41.73150
  0
LINE
  8
Gravur
 62
   7
 39
0.400
  6
CONTINUOUS
 10
192.70373
 20
43.01300
 30
 0
 11
193.58654
 21
43.01300
  0
ARC
  8
Gravur
 62
   7
 39
0.400
  6
CONTINUOUS
 10
193.55338
 20
42.15461
 30
 0
 40
0.85903
 50
0.27068
 51
87.78728
  0
LINE
  8
Gravur
 62
   7
 39
0.400
  6
CONTINUOUS
 10
194.41240
 20
42.15867
 30
 0
 11
194.41240
 21
41.30433
  0
ARC
  8
Gravur
 62
   7
 39
0.400
  6
CONTINUOUS
 10
193.58797
 20
41.27495
 30
 0
 40
0.82495
 50
-90.09907
 51
2.04111
  0
LINE
  8
Gravur
 62
   7
 39
0.400
  6
CONTINUOUS
 10
193.58654
 20
40.45000
 30
 0
 11
192.70373
 21
40.45000
  0
LINE
  8
Gravur
 62
   7
 39
0.400
  6
CONTINUOUS
 10
192.70373
 20
40.45000
 30
 0
 11
192.70373
 21
43.01300
  0
LINE
  8
Gravur
 62
   7
 39
0.400
  6
CONTINUOUS
 10
195.12421
 20
42.75570
 30
 0
 11
195.29508
 21
42.89809
  0
ARC
  8
Gravur
 62
   7
 39
0.400
  6
CONTINUOUS
 10
195.75678
 20
42.36306
 30
 0
 40
0.70669
 50
-40.79241
 51
130.79241
  0
LINE
  8
Gravur
 62
   7
 39
0.400
  6
CONTINUOUS
 10
196.29180
 20
41.90137
 30
 0
 11
195.09573
 21
40.44900
  0
LINE
  8
Gravur
 62
   7
 39
0.400
  6
CONTINUOUS
 10
195.09573
 20
40.44900
 30
 0
 11
196.51962
 21
40.44900
  0
LINE
  8
Gravur
 62
   7
 39
0.400
  6
CONTINUOUS
 10
190.51773
 20
22.20000
 30
 0
 11
190.51773
 21
24.76300
  0
LINE
  8
Gravur
 62
   7
 39
0.400
  6
CONTINUOUS
 10
190.51773
 20
24.76300
 30
 0
 11
191.45750
 21
24.76300
  0
ARC
  8
Gravur
 62
   7
 39
0.400
  6
CONTINUOUS
 10
191.45750
 20
24.12225
 30
 0
 40
0.64075
 50
-90.00000
 51
90.00000
  0
LINE
  8
Gravur
 62
   7
 39
0.400
  6
CONTINUOUS
 10
191.45750
 20
23.48150
 30
 0
 11
190.51773
 21
23.48150
  0
LINE
  8
Gravur
 62
   7
 39
0.400
  6
CONTINUOUS
 10
192.73973
 20
24.76300
 30
 0
 11
193.62254
 21
24.76300
  0
ARC
  8
Gravur
 62
   7
 39
0.400
  6
CONTINUOUS
 10
193.58938
 20
23.90461
 30
 0
 40
0.85903
 50
0.27068
 51
87.78728
  0
LINE
  8
Gravur
 62
   7
 39
0.400
  6
CONTINUOUS
 10
194.44840
 20
23.90867
 30
 0
 11
194.44840
 21
23.05433
  0
ARC
  8
Gravur
 62
   7
 39
0.400
  6
CONTINUOUS
 10
193.62397
 20
23.02495
 30
 0
 40
0.82495
 50
-90.09907
 51
2.04111
  0
LINE
  8
Gravur
 62
   7
 39
0.400
  6
CONTINUOUS
 10
193.62254
 20
22.20000
 30
 0
 11
192.73973
 21
22.20000
  0
LINE
  8
Gravur
 62
   7
 39
0.400
  6
CONTINUOUS
 10
192.73973
 20
22.20000
 30
 0
 11
192.73973
 21
24.76300
  0
ARC
  8
Gravur
 62
   7
 39
0.400
  6
CONTINUOUS
 10
195.82009
 20
24.07120
 30
 0
 40
0.74777
 50
90.37438
 51
157.00576
  0
ARC
  8
Gravur
 62
   7
 39
0.400
  6
CONTINUOUS
 10
195.81520
 20
24.14973
 30
 0
 40
0.66923
 50
-90.00000
 51
90.00000
  0
ARC
  8
Gravur
 62
   7
 39
0.400
  6
CONTINUOUS
 10
195.81520
 20
22.81127
 30
 0
 40
0.66923
 50
-90.00000
 51
90.00000
  0
ARC
  8
Gravur
 62
   7
 39
0.400
  6
CONTINUOUS
 10
195.81909
 20
22.93388
 30
 0
 40
0.79185
 50
209.76844
 51
269.71869
  0
ARC
  8
Gravur
 62
   7
 39
0.400
  6
CONTINUOUS
 10
212.61190
 20
42.35254
 30
 0
 40
0.67574
 50
36.73449
 51
77.79505
  0
ARC
  8
Gravur
 62
   7
 39
0.400
  6
CONTINUOUS
 10
212.41168
 20
41.44158
 30
 0
 40
1.60844
 50
77.68434
 51
106.40648
  0
ARC
  8
Gravur
 62
   7
 39
0.400
  6
CONTINUOUS
 10
212.17682
 20
42.25583
 30
 0
 40
0.76101
 50
106.75938
 51
144.31597
  0
ARC
  8
Gravur
 62
   7
 39
0.400
  6
CONTINUOUS
 10
211.98196
 20
42.39591
 30
 0
 40
0.52103
 50
144.32844
 51
251.30934
  0
LINE
  8
Gravur
 62
   7
 39
0.400
  6
CONTINUOUS
 10
211.81499
 20
41.90237
 30
 0
 11
212.81171
 21
41.56063
  0
ARC
  8
Gravur
 62
   7
 39
0.400
  6
CONTINUOUS
 10
212.64474
 20
41.06709
 30
 0
 40
0.52103
 50
-35.67156
 51
71.30934
  0
ARC
  8
Gravur
 62
   7
 39
0.400
  6
CONTINUOUS
 10
212.44988
 20
41.20717
 30
 0
 40
0.76101
 50
286.75938
 51
324.31597
  0
ARC
  8
Gravur
 62
   7
 39
0.400
  6
CONTINUOUS
 10
212.21502
 20
42.02142
 30
 0
 40
1.60844
 50
257.68434
 51
286.40648
  0
ARC
  8
Gravur
 62
   7
 39
0.400
  6
CONTINUOUS
 10
212.01480
 20
41.11046
 30
 0
 40
0.67574
 50
216.73449
 51
257.79505
  0
LINE
  8
Gravur
 62
   7
 39
0.400
  6
CONTINUOUS
 10
213.83773
 20
39.59567
 30
 0
 11
213.83773
 21
41.44672
  0
ARC
  8
Gravur
 62
   7
 39
0.400
  6
CONTINUOUS
 10
214.54968
 20
41.44672
 30
 0
 40
0.71194
 50
0.00000
 51
180.00000
  0
LINE
  8
Gravur
 62
   7
 39
0.400
  6
CONTINUOUS
 10
215.26162
 20
41.44672
 30
 0
 11
215.26162
 21
41.16194
  0
ARC
  8
Gravur
 62
   7
 39
0.400
  6
CONTINUOUS
 10
214.54968
 20
41.16194
 30
 0
 40
0.71194
 50
-180.00000
 51
0.00000
  0
LINE
  8
Gravur
 62
   7
 39
0.400
  6
CONTINUOUS
 10
213.83773
 20
41.16194
 30
 0
 11
213.83773
 21
42.15867
  0
LINE
  8
Gravur
 62
   7
 39
0.400
  6
CONTINUOUS
 10
215.94573
 20
41.30333
 30
 0
 11
217.36962
 21
41.30333
  0
LINE
  8
Gravur
 62
   7
 39
0.400
  6
CONTINUOUS
 10
217.36962
 20
41.30333
 30
 0
 11
217.36962
 21
41.44572
  0
ARC
  8
Gravur
 62
   7
 39
0.400
  6
CONTINUOUS
 10
216.65768
 20
41.44572
 30
 0
 40
0.71194
 50
0.00000
 51
180.00000
  0
LINE
  8
Gravur
 62
   7
 39
0.400
  6
CONTINUOUS
 10
215.94573
 20
41.44572
 30
 0
 11
215.94573
 21
41.16094
  0
ARC
  8
Gravur
 62
   7
 39
0.400
  6
CONTINUOUS
 10
216.69231
 20
41.16035
 30
 0
 40
0.74658
 50
179.95424
 51
322.44599
  0
LINE
  8
Gravur
 62
   7
 39
0.400
  6
CONTINUOUS
 10
219.53458
 20
42.15767
 30
 0
 11
219.53458
 21
41.16094
  0
ARC
  8
Gravur
 62
   7
 39
0.400
  6
CONTINUOUS
 10
218.79416
 20
41.16094
 30
 0
 40
0.74042
 50
-180.00000
 51
0.00000
  0
LINE
  8
Gravur
 62
   7
 39
0.400
  6
CONTINUOUS
 10
218.05373
 20
41.16094
 30
 0
 11
218.05373
 21
41.44572
  0
ARC
  8
Gravur
 62
   7
 39
0.400
  6
CONTINUOUS
 10
218.79416
 20
41.44572
 30
 0
 40
0.74042
 50
0.00000
 51
180.00000
  0
LINE
  8
Gravur
 62
   7
 39
0.400
  6
CONTINUOUS
 10
219.53458
 20
41.44572
 30
 0
 11
219.53458
 21
40.76226
  0
ARC
  8
Gravur
 62
   7
 39
0.400
  6
CONTINUOUS
 10
219.94746
 20
40.80055
 30
 0
 40
0.41466
 50
185.29897
 51
260.11981
  0
LINE
  8
Gravur
 62
   7
 39
0.400
  6
CONTINUOUS
 10
220.55973
 20
43.01200
 30
 0
 11
220.55973
 21
40.44900
  0
LINE
  8
Gravur
 62
   7
 39
0.400
  6
CONTINUOUS
 10
220.55973
 20
40.44900
 30
 0
 11
220.55973
 21
41.01856
  0
LINE
  8
Gravur
 62
   7
 39
0.400
  6
CONTINUOUS
 10
220.55973
 20
41.01856
 30
 0
 11
221.98362
 21
42.15767
  0
LINE
  8
Gravur
 62
   7
 39
0.400
  6
CONTINUOUS
 10
221.98362
 20
42.15767
 30
 0
 11
221.12929
 21
41.47420
  0
LINE
  8
Gravur
 62
   7
 39
0.400
  6
CONTINUOUS
 10
221.12929
 20
41.47420
 30
 0
 11
221.98362
 21
40.44900
  0
LINE
  8
Gravur
 62
   7
 39
0.400
  6
CONTINUOUS
 10
222.66673
 20
41.30233
 30
 0
 11
224.09062
 21
41.30233
  0
LINE
  8
Gravur
 62
   7
 39
0.400
  6
CONTINUOUS
 10
224.09062
 20
41.30233
 30
 0
 11
224.09062
 21
41.44472
  0
ARC
  8
Gravur
 62
   7
 39
0.400
  6
CONTINUOUS
 10
223.37868
 20
41.44472
 30
 0
 40
0.71194
 50
0.00000
 51
180.00000
  0
LINE
  8
Gravur
 62
   7
 39
0.400
  6
CONTINUOUS
 10
222.66673
 20
41.44472
 30
 0
 11
222.66673
 21
41.15994
  0
ARC
  8
Gravur
 62
   7
 39
0.400
  6
CONTINUOUS
 10
223.41331
 20
41.15935
 30
 0
 40
0.74658
 50
179.95424
 51
322.44599
  0
LINE
  8
Gravur
 62
   7
 39
0.400
  6
CONTINUOUS
 10
224.77373
 20
40.44800
 30
 0
 11
224.77373
 21
42.15667
  0
LINE
  8
Gravur
 62
   7
 39
0.400
  6
CONTINUOUS
 10
224.77373
 20
42.15667
 30
 0
 11
224.77373
 21
41.58711
  0
ARC
  8
Gravur
 62
   7
 39
0.400
  6
CONTINUOUS
 10
225.40304
 20
41.58713
 30
 0
 40
0.62931
 50
140.69073
 51
180.00162
  0
ARC
  8
Gravur
 62
   7
 39
0.400
  6
CONTINUOUS
 10
225.22938
 20
41.72827
 30
 0
 40
0.40553
 50
39.42406
 51
140.57594
  0
LINE
  8
Gravur
 62
   7
 39
0.400
  6
CONTINUOUS
 10
212.70573
 20
24.76300
 30
 0
 11
214.41440
 21
24.76300
  0
LINE
  8
Gravur
 62
   7
 39
0.400
  6
CONTINUOUS
 10
214.41440
 20
24.76300
 30
 0
 11
213.56007
 21
24.76300
  0
LINE
  8
Gravur
 62
   7
 39
0.400
  6
CONTINUOUS
 10
213.56007
 20
24.76300
 30
 0
 11
213.56007
 21
22.20000
  0
LINE
  8
Gravur
 62
   7
 39
0.400
  6
CONTINUOUS
 10
215.09873
 20
22.20000
 30
 0
 11
215.09873
 21
23.90867
  0
LINE
  8
Gravur
 62
   7
 39
0.400
  6
CONTINUOUS
 10
215.09873
 20
23.90867
 30
 0
 11
215.09873
 21
23.33911
  0
ARC
  8
Gravur
 62
   7
 39
0.400
  6
CONTINUOUS
 10
215.72804
 20
23.33913
 30
 0
 40
0.62931
 50
140.69073
 51
180.00162
  0
ARC
  8
Gravur
 62
   7
 39
0.400
  6
CONTINUOUS
 10
215.55438
 20
23.48027
 30
 0
 40
0.40553
 50
39.42406
 51
140.57594
  0
LINE
  8
Gravur
 62
   7
 39
0.400
  6
CONTINUOUS
 10
216.52273
 20
24.76300
 30
 0
 11
216.52273
 21
24.62061
  0
LINE
  8
Gravur
 62
   7
 39
0.400
  6
CONTINUOUS
 10
216.52273
 20
23.90867
 30
 0
 11
216.52273
 21
22.20000
  0
LINE
  8
Gravur
 62
   7
 39
0.400
  6
CONTINUOUS
 10
218.63062
 20
23.90867
 30
 0
 11
218.63062
 21
22.91194
  0
ARC
  8
Gravur
 62
   7
 39
0.400
  6
CONTINUOUS
 10
217.91868
 20
22.88347
 30
 0
 40
0.71251
 50
-177.70939
 51
2.29061
  0
LINE
  8
Gravur
 62
   7
 39
0.400
  6
CONTINUOUS
 10
217.20673
 20
22.85499
 30
 0
 11
217.20673
 21
23.19672
  0
ARC
  8
Gravur
 62
   7
 39
0.400
  6
CONTINUOUS
 10
217.91868
 20
23.19672
 30
 0
 40
0.71194
 50
0.00000
 51
180.00000
  0
LINE
  8
Gravur
 62
   7
 39
0.400
  6
CONTINUOUS
 10
218.63062
 20
23.19672
 30
 0
 11
218.63062
 21
22.05761
  0
ARC
  8
Gravur
 62
   7
 39
0.400
  6
CONTINUOUS
 10
217.91265
 20
22.05382
 30
 0
 40
0.71798
 50
-134.87369
 51
0.30252
  0
LINE
  8
Gravur
 62
   7
 39
0.400
  6
CONTINUOUS
 10
220.73762
 20
23.90867
 30
 0
 11
220.73762
 21
22.91194
  0
ARC
  8
Gravur
 62
   7
 39
0.400
  6
CONTINUOUS
 10
220.02568
 20
22.88347
 30
 0
 40
0.71251
 50
-177.70939
 51
2.29061
  0
LINE
  8
Gravur
 62
   7
 39
0.400
  6
CONTINUOUS
 10
219.31373
 20
22.85499
 30
 0
 11
219.31373
 21
23.19672
  0
ARC
  8
Gravur
 62
   7
 39
0.400
  6
CONTINUOUS
 10
220.02568
 20
23.19672
 30
 0
 40
0.71194
 50
0.00000
 51
180.00000
  0
LINE
  8
Gravur
 62
   7
 39
0.400
  6
CONTINUOUS
 10
220.73762
 20
23.19672
 30
 0
 11
220.73762
 21
22.05761
  0
ARC
  8
Gravur
 62
   7
 39
0.400
  6
CONTINUOUS
 10
220.01965
 20
22.05382
 30
 0
 40
0.71798
 50
-134.87369
 51
0.30252
  0
LINE
  8
Gravur
 62
   7
 39
0.400
  6
CONTINUOUS
 10
221.42073
 20
23.05433
 30
 0
 11
222.84462
 21
23.05433
  0
LINE
  8
Gravur
 62
   7
 39
0.400
  6
CONTINUOUS
 10
222.84462
 20
23.05433
 30
 0
 11
222.84462
 21
23.19672
  0
ARC
  8
Gravur
 62
   7
 39
0.400
  6
CONTINUOUS
 10
222.13268
 20
23.19672
 30
 0
 40
0.71194
 50
0.00000
 51
180.00000
  0
LINE
  8
Gravur
 62
   7
 39
0.400
  6
CONTINUOUS
 10
221.42073
 20
23.19672
 30
 0
 11
221.42073
 21
22.91194
  0
ARC
  8
Gravur
 62
   7
 39
0.400
  6
CONTINUOUS
 10
222.16731
 20
22.91135
 30
 0
 40
0.74658
 50
179.95424
 51
322.44599
  0
LINE
  8
Gravur
 62
   7
 39
0.400
  6
CONTINUOUS
 10
223.52773
 20
22.20000
 30
 0
 11
223.52773
 21
23.90867
  0
LINE
  8
Gravur
 62
   7
 39
0.400
  6
CONTINUOUS
 10
223.52773
 20
23.90867
 30
 0
 11
223.52773
 21
23.33911
  0
ARC
  8
Gravur
 62
   7
 39
0.400
  6
CONTINUOUS
 10
224.15704
 20
23.33913
 30
 0
 40
0.62931
 50
140.69073
 51
180.00162
  0
ARC
  8
Gravur
 62
   7
 39
0.400
  6
CONTINUOUS
 10
223.98338
 20
23.48027
 30
 0
 40
0.40553
 50
39.42406
 51
140.57594
  0
LINE
  8
Gravur
 62
   7
 39
0.400
  6
CONTINUOUS
 10
111.68173
 20
43.76300
 30
 0
 11
112.39368
 21
41.20000
  0
LINE
  8
Gravur
 62
   7
 39
0.400
  6
CONTINUOUS
 10
112.39368
 20
41.20000
 30
 0
 11
113.10562
 21
43.76300
  0
LINE
  8
Gravur
 62
   7
 39
0.400
  6
CONTINUOUS
 10
113.10562
 20
43.76300
 30
 0
 11
113.81757
 21
41.20000
  0
LINE
  8
Gravur
 62
   7
 39
0.400
  6
CONTINUOUS
 10
113.81757
 20
41.20000
 30
 0
 11
114.52951
 21
43.76300
  0
LINE
  8
Gravur
 62
   7
 39
0.400
  6
CONTINUOUS
 10
115.21373
 20
43.76300
 30
 0
 11
115.21373
 21
41.20000
  0
LINE
  8
Gravur
 62
   7
 39
0.400
  6
CONTINUOUS
 10
115.21373
 20
41.20000
 30
 0
 11
115.21373
 21
42.19672
  0
ARC
  8
Gravur
 62
   7
 39
0.400
  6
CONTINUOUS
 10
115.92568
 20
42.19672
 30
 0
 40
0.71194
 50
0.00000
 51
180.00000
  0
LINE
  8
Gravur
 62
   7
 39
0.400
  6
CONTINUOUS
 10
116.63762
 20
42.19672
 30
 0
 11
116.63762
 21
41.20000
  0
LINE
  8
Gravur
 62
   7
 39
0.400
  6
CONTINUOUS
 10
117.32073
 20
42.05433
 30
 0
 11
118.74462
 21
42.05433
  0
LINE
  8
Gravur
 62
   7
 39
0.400
  6
CONTINUOUS
 10
118.74462
 20
42.05433
 30
 0
 11
118.74462
 21
42.19672
  0
ARC
  8
Gravur
 62
   7
 39
0.400
  6
CONTINUOUS
 10
118.03268
 20
42.19672
 30
 0
 40
0.71194
 50
0.00000
 51
180.00000
  0
LINE
  8
Gravur
 62
   7
 39
0.400
  6
CONTINUOUS
 10
117.32073
 20
42.19672
 30
 0
 11
117.32073
 21
41.91194
  0
ARC
  8
Gravur
 62
   7
 39
0.400
  6
CONTINUOUS
 10
118.06731
 20
41.91135
 30
 0
 40
0.74658
 50
179.95424
 51
322.44599
  0
LINE
  8
Gravur
 62
   7
 39
0.400
  6
CONTINUOUS
 10
119.42773
 20
42.05433
 30
 0
 11
120.85162
 21
42.05433
  0
LINE
  8
Gravur
 62
   7
 39
0.400
  6
CONTINUOUS
 10
120.85162
 20
42.05433
 30
 0
 11
120.85162
 21
42.19672
  0
ARC
  8
Gravur
 62
   7
 39
0.400
  6
CONTINUOUS
 10
120.13968
 20
42.19672
 30
 0
 40
0.71194
 50
0.00000
 51
180.00000
  0
LINE
  8
Gravur
 62
   7
 39
0.400
  6
CONTINUOUS
 10
119.42773
 20
42.19672
 30
 0
 11
119.42773
 21
41.91194
  0
ARC
  8
Gravur
 62
   7
 39
0.400
  6
CONTINUOUS
 10
120.17431
 20
41.91135
 30
 0
 40
0.74658
 50
179.95424
 51
322.44599
  0
LINE
  8
Gravur
 62
   7
 39
0.400
  6
CONTINUOUS
 10
121.53473
 20
43.76300
 30
 0
 11
121.53473
 21
41.54173
  0
ARC
  8
Gravur
 62
   7
 39
0.400
  6
CONTINUOUS
 10
121.88205
 20
41.54164
 30
 0
 40
0.34731
 50
179.98432
 51
259.62682
  0
LINE
  8
Gravur
 62
   7
 39
0.400
  6
CONTINUOUS
 10
41.10173
 20
43.76300
 30
 0
 11
41.10173
 21
41.20000
  0
LINE
  8
Gravur
 62
   7
 39
0.400
  6
CONTINUOUS
 10
41.10173
 20
41.20000
 30
 0
 11
42.52562
 21
41.20000
  0
LINE
  8
Gravur
 62
   7
 39
0.400
  6
CONTINUOUS
 10
43.20973
 20
42.05433
 30
 0
 11
44.63362
 21
42.05433
  0
LINE
  8
Gravur
 62
   7
 39
0.400
  6
CONTINUOUS
 10
44.63362
 20
42.05433
 30
 0
 11
44.63362
 21
42.19672
  0
ARC
  8
Gravur
 62
   7
 39
0.400
  6
CONTINUOUS
 10
43.92168
 20
42.19672
 30
 0
 40
0.71194
 50
0.00000
 51
180.00000
  0
LINE
  8
Gravur
 62
   7
 39
0.400
  6
CONTINUOUS
 10
43.20973
 20
42.19672
 30
 0
 11
43.20973
 21
41.91194
  0
ARC
  8
Gravur
 62
   7
 39
0.400
  6
CONTINUOUS
 10
43.95631
 20
41.91135
 30
 0
 40
0.74658
 50
179.95424
 51
322.44599
  0
LINE
  8
Gravur
 62
   7
 39
0.400
  6
CONTINUOUS
 10
45.28926
 20
42.90867
 30
 0
 11
46.00120
 21
42.90867
  0
ARC
  8
Gravur
 62
   7
 39
0.400
  6
CONTINUOUS
 10
45.99895
 20
43.33809
 30
 0
 40
0.42492
 50
89.69622
 51
180.30378
  0
LINE
  8
Gravur
 62
   7
 39
0.400
  6
CONTINUOUS
 10
45.57403
 20
43.33583
 30
 0
 11
45.57403
 21
41.20000
  0
LINE
  8
Gravur
 62
   7
 39
0.400
  6
CONTINUOUS
 10
46.94103
 20
43.76300
 30
 0
 11
46.94103
 21
42.90867
  0
LINE
  8
Gravur
 62
   7
 39
0.400
  6
CONTINUOUS
 10
46.94103
 20
42.90867
 30
 0
 11
47.36820
 21
42.90867
  0
LINE
  8
Gravur
 62
   7
 39
0.400
  6
CONTINUOUS
 10
47.36820
 20
42.90867
 30
 0
 11
46.65626
 21
42.90867
  0
LINE
  8
Gravur
 62
   7
 39
0.400
  6
CONTINUOUS
 10
46.65626
 20
42.90867
 30
 0
 11
46.94103
 21
42.90867
  0
LINE
  8
Gravur
 62
   7
 39
0.400
  6
CONTINUOUS
 10
46.94103
 20
42.90867
 30
 0
 11
46.94103
 21
41.54173
  0
ARC
  8
Gravur
 62
   7
 39
0.400
  6
CONTINUOUS
 10
47.28835
 20
41.54164
 30
 0
 40
0.34731
 50
179.98432
 51
259.62682
  0
LINE
  8
Gravur
 62
   7
 39
0.400
  6
CONTINUOUS
 10
49.87473
 20
41.19900
 30
 0
 11
49.87473
 21
43.76200
  0
LINE
  8
Gravur
 62
   7
 39
0.400
  6
CONTINUOUS
 10
49.87473
 20
43.76200
 30
 0
 11
50.87146
 21
41.91094
  0
LINE
  8
Gravur
 62
   7
 39
0.400
  6
CONTINUOUS
 10
50.87146
 20
41.91094
 30
 0
 11
51.86818
 21
43.76200
  0
LINE
  8
Gravur
 62
   7
 39
0.400
  6
CONTINUOUS
 10
51.86818
 20
43.76200
 30
 0
 11
51.86818
 21
41.19900
  0
LINE
  8
Gravur
 62
   7
 39
0.400
  6
CONTINUOUS
 10
52.55073
 20
41.91094
 30
 0
 11
52.55073
 21
42.19572
  0
ARC
  8
Gravur
 62
   7
 39
0.400
  6
CONTINUOUS
 10
53.26268
 20
42.19572
 30
 0
 40
0.71194
 50
0.00000
 51
180.00000
  0
LINE
  8
Gravur
 62
   7
 39
0.400
  6
CONTINUOUS
 10
53.97462
 20
42.19572
 30
 0
 11
53.97462
 21
41.91094
  0
ARC
  8
Gravur
 62
   7
 39
0.400
  6
CONTINUOUS
 10
53.26268
 20
41.91094
 30
 0
 40
0.71194
 50
-180.00000
 51
0.00000
  0
LINE
  8
Gravur
 62
   7
 39
0.400
  6
CONTINUOUS
 10
54.91403
 20
43.76100
 30
 0
 11
54.91403
 21
42.90667
  0
LINE
  8
Gravur
 62
   7
 39
0.400
  6
CONTINUOUS
 10
54.91403
 20
42.90667
 30
 0
 11
55.34120
 21
42.90667
  0
LINE
  8
Gravur
 62
   7
 39
0.400
  6
CONTINUOUS
 10
55.34120
 20
42.90667
 30
 0
 11
54.62926
 21
42.90667
  0
LINE
  8
Gravur
 62
   7
 39
0.400
  6
CONTINUOUS
 10
54.62926
 20
42.90667
 30
 0
 11
54.91403
 21
42.90667
  0
LINE
  8
Gravur
 62
   7
 39
0.400
  6
CONTINUOUS
 10
54.91403
 20
42.90667
 30
 0
 11
54.91403
 21
41.53973
  0
ARC
  8
Gravur
 62
   7
 39
0.400
  6
CONTINUOUS
 10
55.26135
 20
41.53964
 30
 0
 40
0.34731
 50
179.98432
 51
259.62682
  0
LINE
  8
Gravur
 62
   7
 39
0.400
  6
CONTINUOUS
 10
56.02373
 20
41.90894
 30
 0
 11
56.02373
 21
42.19372
  0
ARC
  8
Gravur
 62
   7
 39
0.400
  6
CONTINUOUS
 10
56.73568
 20
42.19372
 30
 0
 40
0.71194
 50
0.00000
 51
180.00000
  0
LINE
  8
Gravur
 62
   7
 39
0.400
  6
CONTINUOUS
 10
57.44762
 20
42.19372
 30
 0
 11
57.44762
 21
41.90894
  0
ARC
  8
Gravur
 62
   7
 39
0.400
  6
CONTINUOUS
 10
56.73568
 20
41.90894
 30
 0
 40
0.71194
 50
-180.00000
 51
0.00000
  0
LINE
  8
Gravur
 62
   7
 39
0.400
  6
CONTINUOUS
 10
58.13073
 20
41.19600
 30
 0
 11
58.13073
 21
42.90467
  0
LINE
  8
Gravur
 62
   7
 39
0.400
  6
CONTINUOUS
 10
58.13073
 20
42.90467
 30
 0
 11
58.13073
 21
42.33511
  0
ARC
  8
Gravur
 62
   7
 39
0.400
  6
CONTINUOUS
 10
58.76004
 20
42.33513
 30
 0
 40
0.62931
 50
140.69073
 51
180.00162
  0
ARC
  8
Gravur
 62
   7
 39
0.400
  6
CONTINUOUS
 10
58.58638
 20
42.47627
 30
 0
 40
0.40553
 50
39.42406
 51
140.57594
  0
LINE
  8
Gravur
 62
   7
 39
0.400
  6
CONTINUOUS
 10
15.33273
 20
41.20000
 30
 0
 11
15.33273
 21
43.76300
  0
LINE
  8
Gravur
 62
   7
 39
0.400
  6
CONTINUOUS
 10
15.33273
 20
43.76300
 30
 0
 11
16.27250
 21
43.76300
  0
ARC
  8
Gravur
 62
   7
 39
0.400
  6
CONTINUOUS
 10
16.27250
 20
43.12225
 30
 0
 40
0.64075
 50
-90.00000
 51
90.00000
  0
LINE
  8
Gravur
 62
   7
 39
0.400
  6
CONTINUOUS
 10
16.27250
 20
42.48150
 30
 0
 11
15.33273
 21
42.48150
  0
LINE
  8
Gravur
 62
   7
 39
0.400
  6
CONTINUOUS
 10
15.33273
 20
42.48150
 30
 0
 11
16.32946
 21
42.48150
  0
LINE
  8
Gravur
 62
   7
 39
0.400
  6
CONTINUOUS
 10
16.32946
 20
42.48150
 30
 0
 11
16.89901
 21
41.20000
  0
LINE
  8
Gravur
 62
   7
 39
0.400
  6
CONTINUOUS
 10
17.55473
 20
43.76300
 30
 0
 11
17.55473
 21
43.62061
  0
LINE
  8
Gravur
 62
   7
 39
0.400
  6
CONTINUOUS
 10
17.55473
 20
42.90867
 30
 0
 11
17.55473
 21
41.20000
  0
LINE
  8
Gravur
 62
   7
 39
0.400
  6
CONTINUOUS
 10
19.66262
 20
42.90867
 30
 0
 11
19.66262
 21
41.91194
  0
ARC
  8
Gravur
 62
   7
 39
0.400
  6
CONTINUOUS
 10
18.95068
 20
41.88347
 30
 0
 40
0.71251
 50
-177.70939
 51
2.29061
  0
LINE
  8
Gravur
 62
   7
 39
0.400
  6
CONTINUOUS
 10
18.23873
 20
41.85499
 30
 0
 11
18.23873
 21
42.19672
  0
ARC
  8
Gravur
 62
   7
 39
0.400
  6
CONTINUOUS
 10
18.95068
 20
42.19672
 30
 0
 40
0.71194
 50
0.00000
 51
180.00000
  0
LINE
  8
Gravur
 62
   7
 39
0.400
  6
CONTINUOUS
 10
19.66262
 20
42.19672
 30
 0
 11
19.66262
 21
41.05761
  0
ARC
  8
Gravur
 62
   7
 39
0.400
  6
CONTINUOUS
 10
18.94465
 20
41.05382
 30
 0
 40
0.71798
 50
-134.87369
 51
0.30252
  0
LINE
  8
Gravur
 62
   7
 39
0.400
  6
CONTINUOUS
 10
20.34673
 20
43.76300
 30
 0
 11
20.34673
 21
41.20000
  0
LINE
  8
Gravur
 62
   7
 39
0.400
  6
CONTINUOUS
 10
20.34673
 20
41.20000
 30
 0
 11
20.34673
 21
42.19672
  0
ARC
  8
Gravur
 62
   7
 39
0.400
  6
CONTINUOUS
 10
21.05868
 20
42.19672
 30
 0
 40
0.71194
 50
0.00000
 51
180.00000
  0
LINE
  8
Gravur
 62
   7
 39
0.400
  6
CONTINUOUS
 10
21.77062
 20
42.19672
 30
 0
 11
21.77062
 21
41.20000
  0
LINE
  8
Gravur
 62
   7
 39
0.400
  6
CONTINUOUS
 10
22.71103
 20
43.76300
 30
 0
 11
22.71103
 21
42.90867
  0
LINE
  8
Gravur
 62
   7
 39
0.400
  6
CONTINUOUS
 10
22.71103
 20
42.90867
 30
 0
 11
23.13820
 21
42.90867
  0
LINE
  8
Gravur
 62
   7
 39
0.400
  6
CONTINUOUS
 10
23.13820
 20
42.90867
 30
 0
 11
22.42626
 21
42.90867
  0
LINE
  8
Gravur
 62
   7
 39
0.400
  6
CONTINUOUS
 10
22.42626
 20
42.90867
 30
 0
 11
22.71103
 21
42.90867
  0
LINE
  8
Gravur
 62
   7
 39
0.400
  6
CONTINUOUS
 10
22.71103
 20
42.90867
 30
 0
 11
22.71103
 21
41.54173
  0
ARC
  8
Gravur
 62
   7
 39
0.400
  6
CONTINUOUS
 10
23.05835
 20
41.54164
 30
 0
 40
0.34731
 50
179.98432
 51
259.62682
  0
LINE
  8
Gravur
 62
   7
 39
0.400
  6
CONTINUOUS
 10
25.64373
 20
41.19900
 30
 0
 11
25.64373
 21
43.76200
  0
LINE
  8
Gravur
 62
   7
 39
0.400
  6
CONTINUOUS
 10
25.64373
 20
43.76200
 30
 0
 11
26.64046
 21
41.91094
  0
LINE
  8
Gravur
 62
   7
 39
0.400
  6
CONTINUOUS
 10
26.64046
 20
41.91094
 30
 0
 11
27.63718
 21
43.76200
  0
LINE
  8
Gravur
 62
   7
 39
0.400
  6
CONTINUOUS
 10
27.63718
 20
43.76200
 30
 0
 11
27.63718
 21
41.19900
  0
LINE
  8
Gravur
 62
   7
 39
0.400
  6
CONTINUOUS
 10
28.31973
 20
41.91094
 30
 0
 11
28.31973
 21
42.19572
  0
ARC
  8
Gravur
 62
   7
 39
0.400
  6
CONTINUOUS
 10
29.03168
 20
42.19572
 30
 0
 40
0.71194
 50
0.00000
 51
180.00000
  0
LINE
  8
Gravur
 62
   7
 39
0.400
  6
CONTINUOUS
 10
29.74362
 20
42.19572
 30
 0
 11
29.74362
 21
41.91094
  0
ARC
  8
Gravur
 62
   7
 39
0.400
  6
CONTINUOUS
 10
29.03168
 20
41.91094
 30
 0
 40
0.71194
 50
-180.00000
 51
0.00000
  0
LINE
  8
Gravur
 62
   7
 39
0.400
  6
CONTINUOUS
 10
30.68303
 20
43.76100
 30
 0
 11
30.68303
 21
42.90667
  0
LINE
  8
Gravur
 62
   7
 39
0.400
  6
CONTINUOUS
 10
30.68303
 20
42.90667
 30
 0
 11
31.11020
 21
42.90667
  0
LINE
  8
Gravur
 62
   7
 39
0.400
  6
CONTINUOUS
 10
31.11020
 20
42.90667
 30
 0
 11
30.39826
 21
42.90667
  0
LINE
  8
Gravur
 62
   7
 39
0.400
  6
CONTINUOUS
 10
30.39826
 20
42.90667
 30
 0
 11
30.68303
 21
42.90667
  0
LINE
  8
Gravur
 62
   7
 39
0.400
  6
CONTINUOUS
 10
30.68303
 20
42.90667
 30
 0
 11
30.68303
 21
41.53973
  0
ARC
  8
Gravur
 62
   7
 39
0.400
  6
CONTINUOUS
 10
31.03035
 20
41.53964
 30
 0
 40
0.34731
 50
179.98432
 51
259.62682
  0
LINE
  8
Gravur
 62
   7
 39
0.400
  6
CONTINUOUS
 10
31.79273
 20
41.90894
 30
 0
 11
31.79273
 21
42.19372
  0
ARC
  8
Gravur
 62
   7
 39
0.400
  6
CONTINUOUS
 10
32.50468
 20
42.19372
 30
 0
 40
0.71194
 50
0.00000
 51
180.00000
  0
LINE
  8
Gravur
 62
   7
 39
0.400
  6
CONTINUOUS
 10
33.21662
 20
42.19372
 30
 0
 11
33.21662
 21
41.90894
  0
ARC
  8
Gravur
 62
   7
 39
0.400
  6
CONTINUOUS
 10
32.50468
 20
41.90894
 30
 0
 40
0.71194
 50
-180.00000
 51
0.00000
  0
LINE
  8
Gravur
 62
   7
 39
0.400
  6
CONTINUOUS
 10
33.89973
 20
41.19600
 30
 0
 11
33.89973
 21
42.90467
  0
LINE
  8
Gravur
 62
   7
 39
0.400
  6
CONTINUOUS
 10
33.89973
 20
42.90467
 30
 0
 11
33.89973
 21
42.33511
  0
ARC
  8
Gravur
 62
   7
 39
0.400
  6
CONTINUOUS
 10
34.52904
 20
42.33513
 30
 0
 40
0.62931
 50
140.69073
 51
180.00162
  0
ARC
  8
Gravur
 62
   7
 39
0.400
  6
CONTINUOUS
 10
34.35538
 20
42.47627
 30
 0
 40
0.40553
 50
39.42406
 51
140.57594
  0
CIRCLE
  8
Kontur
 62
   7
 39
0.100
  6
CONTINUOUS
 10
193.50000
 20
15.00000
 30
 0
 40
4.00000
  0
CIRCLE
  8
Kontur
 62
   7
 39
0.100
  6
CONTINUOUS
 10
218.50000
 20
15.00000
 30
 0
 40
4.00000
  0
CIRCLE
  8
Kontur
 62
   7
 39
0.100
  6
CONTINUOUS
 10
193.50000
 20
33.25000
 30
 0
 40
4.00000
  0
CIRCLE
  8
Kontur
 62
   7
 39
0.100
  6
CONTINUOUS
 10
218.50000
 20
33.25000
 30
 0
 40
4.00000
  0
CIRCLE
  8
Kontur
 62
   7
 39
0.100
  6
CONTINUOUS
 10
193.50000
 20
51.50000
 30
 0
 40
4.00000
  0
CIRCLE
  8
Kontur
 62
   7
 39
0.100
  6
CONTINUOUS
 10
79.25000
 20
15.00000
 30
 0
 40
5.40000
  0
CIRCLE
  8
Kontur
 62
   7
 39
0.100
  6
CONTINUOUS
 10
104.25000
 20
15.00000
 30
 0
 40
5.40000
  0
CIRCLE
  8
Kontur
 62
   7
 39
0.100
  6
CONTINUOUS
 10
129.25000
 20
15.00000
 30
 0
 40
5.40000
  0
CIRCLE
  8
Kontur
 62
   7
 39
0.100
  6
CONTINUOUS
 10
154.25000
 20
15.00000
 30
 0
 40
5.40000
  0
CIRCLE
  8
Kontur
 62
   7
 39
0.100
  6
CONTINUOUS
 10
79.25000
 20
51.50000
 30
 0
 40
5.40000
  0
CIRCLE
  8
Kontur
 62
   7
 39
0.100
  6
CONTINUOUS
 10
104.25000
 20
51.50000
 30
 0
 40
5.40000
  0
CIRCLE
  8
Kontur
 62
   7
 39
0.100
  6
CONTINUOUS
 10
129.25000
 20
51.50000
 30
 0
 40
5.40000
  0
CIRCLE
  8
Kontur
 62
   7
 39
0.100
  6
CONTINUOUS
 10
154.25000
 20
51.50000
 30
 0
 40
5.40000
  0
LINE
  8
Kontur
 62
   7
 39
0.100
  6
CONTINUOUS
 10
24.00000
 20
36.85100
 30
 0
 11
22.85000
 21
36.85000
  0
ARC
  8
Kontur
 62
   7
 39
0.100
  6
CONTINUOUS
 10
22.84994
 20
35.35094
 30
 0
 40
1.49906
 50
89.99757
 51
177.78028
  0
LINE
  8
Kontur
 62
   7
 39
0.100
  6
CONTINUOUS
 10
21.35200
 20
35.40900
 30
 0
 11
21.35200
 21
35.40900
  0
LINE
  8
Kontur
 62
   7
 39
0.100
  6
CONTINUOUS
 10
21.35200
 20
35.40900
 30
 0
 11
21.34600
 21
35.32600
  0
LINE
  8
Kontur
 62
   7
 39
0.100
  6
CONTINUOUS
 10
21.34600
 20
35.32600
 30
 0
 11
21.00000
 21
35.32500
  0
ARC
  8
Kontur
 62
   7
 39
0.100
  6
CONTINUOUS
 10
20.99950
 20
33.82550
 30
 0
 40
1.49950
 50
89.98090
 51
179.98090
  0
LINE
  8
Kontur
 62
   7
 39
0.100
  6
CONTINUOUS
 10
19.50000
 20
33.82600
 30
 0
 11
19.50000
 21
33.82600
  0
LINE
  8
Kontur
 62
   7
 39
0.100
  6
CONTINUOUS
 10
19.50000
 20
33.82600
 30
 0
 11
19.50100
 21
32.67500
  0
ARC
  8
Kontur
 62
   7
 39
0.100
  6
CONTINUOUS
 10
21.00100
 20
32.67500
 30
 0
 40
1.50000
 50
179.99999
 51
269.96180
  0
LINE
  8
Kontur
 62
   7
 39
0.100
  6
CONTINUOUS
 10
21.00000
 20
31.17500
 30
 0
 11
21.00000
 21
31.17500
  0
LINE
  8
Kontur
 62
   7
 39
0.100
  6
CONTINUOUS
 10
21.00000
 20
31.17500
 30
 0
 11
21.34900
 21
31.17500
  0
LINE
  8
Kontur
 62
   7
 39
0.100
  6
CONTINUOUS
 10
21.34900
 20
31.17500
 30
 0
 11
21.35000
 21
31.15000
  0
ARC
  8
Kontur
 62
   7
 39
0.100
  6
CONTINUOUS
 10
22.84950
 20
31.14950
 30
 0
 40
1.49950
 50
179.98090
 51
269.98090
  0
LINE
  8
Kontur
 62
   7
 39
0.100
  6
CONTINUOUS
 10
22.84900
 20
29.65000
 30
 0
 11
22.84900
 21
29.65000
  0
LINE
  8
Kontur
 62
   7
 39
0.100
  6
CONTINUOUS
 10
22.84900
 20
29.65000
 30
 0
 11
27.15000
 21
29.65100
  0
ARC
  8
Kontur
 62
   7
 39
0.100
  6
CONTINUOUS
 10
27.15010
 20
31.15010
 30
 0
 40
1.49910
 50
269.99600
 51
357.70233
  0
LINE
  8
Kontur
 62
   7
 39
0.100
  6
CONTINUOUS
 10
28.64800
 20
31.09000
 30
 0
 11
28.64800
 21
31.09000
  0
LINE
  8
Kontur
 62
   7
 39
0.100
  6
CONTINUOUS
 10
28.64800
 20
31.09000
 30
 0
 11
28.65500
 21
31.17400
  0
LINE
  8
Kontur
 62
   7
 39
0.100
  6
CONTINUOUS
 10
28.65500
 20
31.17400
 30
 0
 11
29.00000
 21
31.17500
  0
ARC
  8
Kontur
 62
   7
 39
0.100
  6
CONTINUOUS
 10
29.00050
 20
32.67450
 30
 0
 40
1.49950
 50
269.98091
 51
359.98088
  0
LINE
  8
Kontur
 62
   7
 39
0.100
  6
CONTINUOUS
 10
30.50000
 20
32.67400
 30
 0
 11
30.50000
 21
32.67400
  0
LINE
  8
Kontur
 62
   7
 39
0.100
  6
CONTINUOUS
 10
30.50000
 20
32.67400
 30
 0
 11
30.49900
 21
33.82500
  0
ARC
  8
Kontur
 62
   7
 39
0.100
  6
CONTINUOUS
 10
28.99950
 20
33.82550
 30
 0
 40
1.49950
 50
359.98090
 51
449.98090
  0
LINE
  8
Kontur
 62
   7
 39
0.100
  6
CONTINUOUS
 10
29.00000
 20
35.32500
 30
 0
 11
29.00000
 21
35.32500
  0
LINE
  8
Kontur
 62
   7
 39
0.100
  6
CONTINUOUS
 10
29.00000
 20
35.32500
 30
 0
 11
28.65100
 21
35.32500
  0
LINE
  8
Kontur
 62
   7
 39
0.100
  6
CONTINUOUS
 10
28.65100
 20
35.32500
 30
 0
 11
28.65000
 21
35.35000
  0
ARC
  8
Kontur
 62
   7
 39
0.100
  6
CONTINUOUS
 10
27.15100
 20
35.35100
 30
 0
 40
1.49900
 50
359.96178
 51
450.00001
  0
LINE
  8
Kontur
 62
   7
 39
0.100
  6
CONTINUOUS
 10
27.15100
 20
36.85000
 30
 0
 11
27.15100
 21
36.85000
  0
LINE
  8
Kontur
 62
   7
 39
0.100
  6
CONTINUOUS
 10
27.15100
 20
36.85000
 30
 0
 11
26.00100
 21
36.85000
  0
LINE
  8
Kontur
 62
   7
 39
0.100
  6
CONTINUOUS
 10
26.00100
 20
36.85000
 30
 0
 11
25.97700
 21
36.87100
  0
ARC
  8
Kontur
 62
   7
 39
0.100
  6
CONTINUOUS
 10
24.99990
 20
35.73400
 30
 0
 40
1.49916
 50
49.32539
 51
131.83382
  0
LINE
  8
Kontur
 62
   7
 39
0.100
  6
CONTINUOUS
 10
24.00000
 20
36.85100
 30
 0
 11
24.00000
 21
36.85100
  0
LINE
  8
Kontur
 62
   7
 39
0.100
  6
CONTINUOUS
 10
49.00000
 20
36.85100
 30
 0
 11
47.85000
 21
36.85000
  0
ARC
  8
Kontur
 62
   7
 39
0.100
  6
CONTINUOUS
 10
47.84994
 20
35.35094
 30
 0
 40
1.49906
 50
89.99757
 51
177.78028
  0
LINE
  8
Kontur
 62
   7
 39
0.100
  6
CONTINUOUS
 10
46.35200
 20
35.40900
 30
 0
 11
46.35200
 21
35.40900
  0
LINE
  8
Kontur
 62
   7
 39
0.100
  6
CONTINUOUS
 10
46.35200
 20
35.40900
 30
 0
 11
46.34600
 21
35.32600
  0
LINE
  8
Kontur
 62
   7
 39
0.100
  6
CONTINUOUS
 10
46.34600
 20
35.32600
 30
 0
 11
46.00000
 21
35.32500
  0
ARC
  8
Kontur
 62
   7
 39
0.100
  6
CONTINUOUS
 10
45.99950
 20
33.82550
 30
 0
 40
1.49950
 50
89.98090
 51
179.98090
  0
LINE
  8
Kontur
 62
   7
 39
0.100
  6
CONTINUOUS
 10
44.50000
 20
33.82600
 30
 0
 11
44.50000
 21
33.82600
  0
LINE
  8
Kontur
 62
   7
 39
0.100
  6
CONTINUOUS
 10
44.50000
 20
33.82600
 30
 0
 11
44.50100
 21
32.67500
  0
ARC
  8
Kontur
 62
   7
 39
0.100
  6
CONTINUOUS
 10
46.00050
 20
32.67450
 30
 0
 40
1.49950
 50
179.98090
 51
269.98090
  0
LINE
  8
Kontur
 62
   7
 39
0.100
  6
CONTINUOUS
 10
46.00000
 20
31.17500
 30
 0
 11
46.00000
 21
31.17500
  0
LINE
  8
Kontur
 62
   7
 39
0.100
  6
CONTINUOUS
 10
46.00000
 20
31.17500
 30
 0
 11
46.34900
 21
31.17500
  0
LINE
  8
Kontur
 62
   7
 39
0.100
  6
CONTINUOUS
 10
46.34900
 20
31.17500
 30
 0
 11
46.35000
 21
31.15000
  0
ARC
  8
Kontur
 62
   7
 39
0.100
  6
CONTINUOUS
 10
47.85000
 20
31.15000
 30
 0
 40
1.50000
 50
179.99999
 51
269.96180
  0
LINE
  8
Kontur
 62
   7
 39
0.100
  6
CONTINUOUS
 10
47.84900
 20
29.65000
 30
 0
 11
47.84900
 21
29.65000
  0
LINE
  8
Kontur
 62
   7
 39
0.100
  6
CONTINUOUS
 10
47.84900
 20
29.65000
 30
 0
 11
52.15000
 21
29.65100
  0
ARC
  8
Kontur
 62
   7
 39
0.100
  6
CONTINUOUS
 10
52.15010
 20
31.15010
 30
 0
 40
1.49910
 50
269.99600
 51
357.70233
  0
LINE
  8
Kontur
 62
   7
 39
0.100
  6
CONTINUOUS
 10
53.64800
 20
31.09000
 30
 0
 11
53.64800
 21
31.09000
  0
LINE
  8
Kontur
 62
   7
 39
0.100
  6
CONTINUOUS
 10
53.64800
 20
31.09000
 30
 0
 11
53.65500
 21
31.17400
  0
LINE
  8
Kontur
 62
   7
 39
0.100
  6
CONTINUOUS
 10
53.65500
 20
31.17400
 30
 0
 11
54.00000
 21
31.17500
  0
ARC
  8
Kontur
 62
   7
 39
0.100
  6
CONTINUOUS
 10
54.00050
 20
32.67450
 30
 0
 40
1.49950
 50
269.98091
 51
359.98088
  0
LINE
  8
Kontur
 62
   7
 39
0.100
  6
CONTINUOUS
 10
55.50000
 20
32.67400
 30
 0
 11
55.50000
 21
32.67400
  0
LINE
  8
Kontur
 62
   7
 39
0.100
  6
CONTINUOUS
 10
55.50000
 20
32.67400
 30
 0
 11
55.49900
 21
33.82500
  0
ARC
  8
Kontur
 62
   7
 39
0.100
  6
CONTINUOUS
 10
53.99950
 20
33.82550
 30
 0
 40
1.49950
 50
359.98090
 51
449.98090
  0
LINE
  8
Kontur
 62
   7
 39
0.100
  6
CONTINUOUS
 10
54.00000
 20
35.32500
 30
 0
 11
54.00000
 21
35.32500
  0
LINE
  8
Kontur
 62
   7
 39
0.100
  6
CONTINUOUS
 10
54.00000
 20
35.32500
 30
 0
 11
53.65100
 21
35.32500
  0
LINE
  8
Kontur
 62
   7
 39
0.100
  6
CONTINUOUS
 10
53.65100
 20
35.32500
 30
 0
 11
53.65000
 21
35.35000
  0
ARC
  8
Kontur
 62
   7
 39
0.100
  6
CONTINUOUS
 10
52.15100
 20
35.35100
 30
 0
 40
1.49900
 50
359.96178
 51
450.00001
  0
LINE
  8
Kontur
 62
   7
 39
0.100
  6
CONTINUOUS
 10
52.15100
 20
36.85000
 30
 0
 11
52.15100
 21
36.85000
  0
LINE
  8
Kontur
 62
   7
 39
0.100
  6
CONTINUOUS
 10
52.15100
 20
36.85000
 30
 0
 11
51.00100
 21
36.85000
  0
LINE
  8
Kontur
 62
   7
 39
0.100
  6
CONTINUOUS
 10
51.00100
 20
36.85000
 30
 0
 11
50.97700
 21
36.87100
  0
ARC
  8
Kontur
 62
   7
 39
0.100
  6
CONTINUOUS
 10
49.99990
 20
35.73400
 30
 0
 40
1.49916
 50
49.32539
 51
131.83382
  0
LINE
  8
Kontur
 62
   7
 39
0.100
  6
CONTINUOUS
 10
49.00000
 20
36.85100
 30
 0
 11
49.00000
 21
36.85100
  0
LINE
  8
Kontur
 62
   7
 39
0.100
  6
CONTINUOUS
 10
115.75000
 20
36.85100
 30
 0
 11
114.60000
 21
36.85000
  0
ARC
  8
Kontur
 62
   7
 39
0.100
  6
CONTINUOUS
 10
114.59994
 20
35.35094
 30
 0
 40
1.49906
 50
89.99757
 51
177.78028
  0
LINE
  8
Kontur
 62
   7
 39
0.100
  6
CONTINUOUS
 10
113.10200
 20
35.40900
 30
 0
 11
113.10200
 21
35.40900
  0
LINE
  8
Kontur
 62
   7
 39
0.100
  6
CONTINUOUS
 10
113.10200
 20
35.40900
 30
 0
 11
113.09600
 21
35.32600
  0
LINE
  8
Kontur
 62
   7
 39
0.100
  6
CONTINUOUS
 10
113.09600
 20
35.32600
 30
 0
 11
112.75000
 21
35.32500
  0
ARC
  8
Kontur
 62
   7
 39
0.100
  6
CONTINUOUS
 10
112.74950
 20
33.82550
 30
 0
 40
1.49950
 50
89.98090
 51
179.98090
  0
LINE
  8
Kontur
 62
   7
 39
0.100
  6
CONTINUOUS
 10
111.25000
 20
33.82600
 30
 0
 11
111.25000
 21
33.82600
  0
LINE
  8
Kontur
 62
   7
 39
0.100
  6
CONTINUOUS
 10
111.25000
 20
33.82600
 30
 0
 11
111.25100
 21
32.67500
  0
ARC
  8
Kontur
 62
   7
 39
0.100
  6
CONTINUOUS
 10
112.75100
 20
32.67500
 30
 0
 40
1.50000
 50
179.99999
 51
269.96180
  0
LINE
  8
Kontur
 62
   7
 39
0.100
  6
CONTINUOUS
 10
112.75000
 20
31.17500
 30
 0
 11
112.75000
 21
31.17500
  0
LINE
  8
Kontur
 62
   7
 39
0.100
  6
CONTINUOUS
 10
112.75000
 20
31.17500
 30
 0
 11
113.09900
 21
31.17500
  0
LINE
  8
Kontur
 62
   7
 39
0.100
  6
CONTINUOUS
 10
113.09900
 20
31.17500
 30
 0
 11
113.10000
 21
31.15000
  0
ARC
  8
Kontur
 62
   7
 39
0.100
  6
CONTINUOUS
 10
114.60000
 20
31.15000
 30
 0
 40
1.50000
 50
179.99999
 51
269.96180
  0
LINE
  8
Kontur
 62
   7
 39
0.100
  6
CONTINUOUS
 10
114.59900
 20
29.65000
 30
 0
 11
114.59900
 21
29.65000
  0
LINE
  8
Kontur
 62
   7
 39
0.100
  6
CONTINUOUS
 10
114.59900
 20
29.65000
 30
 0
 11
118.90000
 21
29.65100
  0
ARC
  8
Kontur
 62
   7
 39
0.100
  6
CONTINUOUS
 10
118.90010
 20
31.15010
 30
 0
 40
1.49910
 50
269.99600
 51
357.70233
  0
LINE
  8
Kontur
 62
   7
 39
0.100
  6
CONTINUOUS
 10
120.39800
 20
31.09000
 30
 0
 11
120.39800
 21
31.09000
  0
LINE
  8
Kontur
 62
   7
 39
0.100
  6
CONTINUOUS
 10
120.39800
 20
31.09000
 30
 0
 11
120.40500
 21
31.17400
  0
LINE
  8
Kontur
 62
   7
 39
0.100
  6
CONTINUOUS
 10
120.40500
 20
31.17400
 30
 0
 11
120.75000
 21
31.17500
  0
ARC
  8
Kontur
 62
   7
 39
0.100
  6
CONTINUOUS
 10
120.75050
 20
32.67450
 30
 0
 40
1.49950
 50
269.98091
 51
359.98088
  0
LINE
  8
Kontur
 62
   7
 39
0.100
  6
CONTINUOUS
 10
122.25000
 20
32.67400
 30
 0
 11
122.25000
 21
32.67400
  0
LINE
  8
Kontur
 62
   7
 39
0.100
  6
CONTINUOUS
 10
122.25000
 20
32.67400
 30
 0
 11
122.24900
 21
33.82500
  0
ARC
  8
Kontur
 62
   7
 39
0.100
  6
CONTINUOUS
 10
120.74950
 20
33.82550
 30
 0
 40
1.49950
 50
359.98090
 51
449.98090
  0
LINE
  8
Kontur
 62
   7
 39
0.100
  6
CONTINUOUS
 10
120.75000
 20
35.32500
 30
 0
 11
120.75000
 21
35.32500
  0
LINE
  8
Kontur
 62
   7
 39
0.100
  6
CONTINUOUS
 10
120.75000
 20
35.32500
 30
 0
 11
120.40100
 21
35.32500
  0
LINE
  8
Kontur
 62
   7
 39
0.100
  6
CONTINUOUS
 10
120.40100
 20
35.32500
 30
 0
 11
120.40000
 21
35.35000
  0
ARC
  8
Kontur
 62
   7
 39
0.100
  6
CONTINUOUS
 10
118.90100
 20
35.35100
 30
 0
 40
1.49900
 50
359.96178
 51
450.00001
  0
LINE
  8
Kontur
 62
   7
 39
0.100
  6
CONTINUOUS
 10
118.90100
 20
36.85000
 30
 0
 11
118.90100
 21
36.85000
  0
LINE
  8
Kontur
 62
   7
 39
0.100
  6
CONTINUOUS
 10
118.90100
 20
36.85000
 30
 0
 11
117.75100
 21
36.85000
  0
LINE
  8
Kontur
 62
   7
 39
0.100
  6
CONTINUOUS
 10
117.75100
 20
36.85000
 30
 0
 11
117.72700
 21
36.87100
  0
ARC
  8
Kontur
 62
   7
 39
0.100
  6
CONTINUOUS
 10
116.74990
 20
35.73400
 30
 0
 40
1.49916
 50
49.32539
 51
131.83382
  0
LINE
  8
Kontur
 62
   7
 39
0.100
  6
CONTINUOUS
 10
115.75000
 20
36.85100
 30
 0
 11
115.75000
 21
36.85100
  0
ENDSEC
  0
EOF
