%TF.GenerationSoftware,Altium Limited,Altium Designer,26.3.0 (6)*%
G04 Layer_Color=0*
%FSLAX45Y45*%
%MOMM*%
%TF.SameCoordinates,9DF5E86A-AFF4-4DEB-8806-04E8110C71FD*%
%TF.FilePolarity,Positive*%
%TF.FileFunction,Plated,1,2,PTH,Drill*%
%TF.Part,Single*%
G01*
G75*
%TA.AperFunction,ComponentDrill*%
%ADD45C,0.90000*%
%ADD46C,3.30000*%
%ADD47C,0.90000*%
%ADD48C,1.00000*%
%ADD49C,1.00000*%
%TA.AperFunction,OtherDrill,Pad Free-X (220mm,104mm)*%
%ADD50C,3.20000*%
%TA.AperFunction,OtherDrill,Pad Free-X (295mm,104mm)*%
%ADD51C,3.20000*%
%TA.AperFunction,OtherDrill,Pad Free-X (318mm,166mm)*%
%ADD52C,3.20000*%
%TA.AperFunction,OtherDrill,Pad Free-X (104mm,104mm)*%
%ADD53C,3.20000*%
%TA.AperFunction,OtherDrill,Pad Free-X (104mm,166mm)*%
%ADD54C,3.20000*%
%TA.AperFunction,ViaDrill,NotFilled*%
%ADD55C,0.60000*%
D45*
X22000000Y14746001D02*
D03*
Y15096001D02*
D03*
D46*
X30637500Y10811000D02*
D03*
X31780499D02*
D03*
X25938501D02*
D03*
X24795500D02*
D03*
X19588499D02*
D03*
X18445500D02*
D03*
X12349500D02*
D03*
X11206500D02*
D03*
D47*
X30764499Y11446000D02*
D03*
X31018500D02*
D03*
X31272501D02*
D03*
X31526501D02*
D03*
X30891501Y11700000D02*
D03*
X31145499D02*
D03*
X31399500D02*
D03*
X31653500D02*
D03*
X25811499D02*
D03*
X25557500D02*
D03*
X25303500D02*
D03*
X25049500D02*
D03*
X25684500Y11446000D02*
D03*
X25430499D02*
D03*
X25176500D02*
D03*
X24922501D02*
D03*
X19461501Y11700000D02*
D03*
X19207500D02*
D03*
X18953500D02*
D03*
X18699500D02*
D03*
X19334500Y11446000D02*
D03*
X19080499D02*
D03*
X18826500D02*
D03*
X18572501D02*
D03*
X12222500Y11700000D02*
D03*
X11968500D02*
D03*
X11714500D02*
D03*
X11460500D02*
D03*
X12095500Y11446000D02*
D03*
X11841500D02*
D03*
X11587500D02*
D03*
X11333500D02*
D03*
D48*
X18245500Y13500000D02*
D03*
Y13246001D02*
D03*
Y12992000D02*
D03*
Y12738000D02*
D03*
X24595500Y12992000D02*
D03*
Y12738000D02*
D03*
X31335999D02*
D03*
X31082001D02*
D03*
X31335999Y12992000D02*
D03*
X31082001D02*
D03*
X31335999Y13246001D02*
D03*
Y13500000D02*
D03*
X31082001Y13246001D02*
D03*
Y13500000D02*
D03*
X20134000Y14746001D02*
D03*
Y15000000D02*
D03*
Y15253999D02*
D03*
X19788499Y12738000D02*
D03*
Y12992000D02*
D03*
X11006500Y12738000D02*
D03*
Y12992000D02*
D03*
Y13246001D02*
D03*
Y13500000D02*
D03*
X20092500Y16700000D02*
D03*
X17092500D02*
D03*
X12549500Y13500000D02*
D03*
Y13246001D02*
D03*
Y12992000D02*
D03*
Y12738000D02*
D03*
X22595500D02*
D03*
Y12992000D02*
D03*
X26138501Y12738000D02*
D03*
Y12992000D02*
D03*
X23595500Y12738000D02*
D03*
Y12992000D02*
D03*
X26646500Y12738000D02*
D03*
Y12992000D02*
D03*
X20296500Y12738000D02*
D03*
Y12992000D02*
D03*
X27154501Y12738000D02*
D03*
Y12992000D02*
D03*
X20804500Y12738000D02*
D03*
Y12992000D02*
D03*
X27662500Y12738000D02*
D03*
Y12992000D02*
D03*
X21312500Y12738000D02*
D03*
Y12992000D02*
D03*
X17134000Y15253999D02*
D03*
Y15000000D02*
D03*
Y14746001D02*
D03*
D49*
X19880000Y15000000D02*
D03*
X16880000D02*
D03*
D50*
X22000000Y10400000D02*
D03*
D51*
X29500000D02*
D03*
D52*
X31800000Y16600000D02*
D03*
D53*
X10400000Y10400000D02*
D03*
D54*
Y16600000D02*
D03*
D55*
X20550000Y14746001D02*
D03*
X19672501Y15500000D02*
D03*
X17550000Y14746001D02*
D03*
X16672501Y15500000D02*
D03*
%TF.MD5,3e33ef90e501be473c38380eeb70a90c*%
M02*
