M48
;Layer_Color=9474304
;FILE_FORMAT=4:4
METRIC,LZ
;TYPE=PLATED
T01F00S00C0.6000
T02F00S00C0.9000
T03F00S00C1.0000
T04F00S00C3.2000
T05F00S00C3.3000
%
T01
X02055Y014746
X0196725Y0155
X01755Y014746
X0166725Y0155
T02
X0113335Y011446
X0115875
X0118415
X0117145Y0117
X0114605
X0119685
X0122225
X0120955Y011446
X0185725
X0188265
X0190805
X0193345
X0194615Y0117
X0192075
X0189535
X0186995
X0250495
X0253035
X0255575
X0258115
X0256845Y011446
X0254305
X0251765
X0249225
X0307645
X0310185
X0312725
X0315265
X0316535Y0117
X0313995
X0311455
X0308915
X022Y014746
Y015096
T03
X031082Y012738
Y012992
Y013246
Y0135
X031336
Y013246
Y012992
Y012738
X0276625
Y012992
X0271545
Y012738
X0266465
Y012992
X0261385
Y012738
X0245955
Y012992
X0235955
Y012738
X0225955
Y012992
X0213125
Y012738
X0208045
Y012992
X0202965
Y012738
X020134Y014746
Y015
Y015254
X01988Y015
X0197885Y012992
Y012738
X0182455
Y012992
Y013246
Y0135
X017134Y014746
Y015
X01688
X017134Y015254
X0125495Y0135
Y013246
Y012992
Y012738
X0110065
Y012992
Y013246
Y0135
X0170925Y0167
X0200925
T04
X0104Y0104
X022
X0295
X0104Y0166
X0318
T05
X0112065Y010811
X0123495
X0184455
X0195885
X0247955
X0259385
X0306375
X0317805
M30
